<svg class="animated" id="freepik_stories-true-friends" xmlns="http://www.w3.org/2000/svg" viewBox="0 0 750 500" version="1.1" xmlns:xlink="http://www.w3.org/1999/xlink" xmlns:svgjs="http://svgjs.com/svgjs"><style>svg#freepik_stories-true-friends:not(.animated) .animable {opacity: 0;}svg#freepik_stories-true-friends.animated #freepik--background-complete--inject-22 {animation: 1.4s 1 forwards ease-in slideDown;animation-delay: 0s;}svg#freepik_stories-true-friends.animated #freepik--Plant--inject-22 {animation: 1.5s Infinite  linear wind;animation-delay: 0s;}svg#freepik_stories-true-friends.animated #freepik--Hearts--inject-22 {animation: 6s Infinite  linear heartbeat;animation-delay: 0s;}svg#freepik_stories-true-friends.animated #freepik--character-2--inject-22 {animation: 1s 1 forwards cubic-bezier(.36,-0.01,.5,1.38) slideRight;animation-delay: 0s;}svg#freepik_stories-true-friends.animated #freepik--character-1--inject-22 {animation: 1s 1 forwards cubic-bezier(.36,-0.01,.5,1.38) slideLeft;animation-delay: 0s;}            @keyframes slideDown {                0% {                    opacity: 0;                    transform: translateY(-30px);                }                100% {                    opacity: 1;                    transform: translateY(0);                }            }                    @keyframes wind {                0% {                    transform: rotate( 0deg );                }                25% {                    transform: rotate( 1deg );                }                75% {                    transform: rotate( -1deg );                }            }                    @keyframes heartbeat {                0% {                    transform: scale(1);                }                10% {                    transform: scale(1.1);                }                30% {                    transform: scale(1);                }                40% {                    transform: scale(1);                }                50% {                    transform: scale(1.1);                }                60% {                    transform: scale(1);                }                100% {                    transform: scale(1);                }            }                    @keyframes slideRight {                0% {                    opacity: 0;                    transform: translateX(30px);                }                100% {                    opacity: 1;                    transform: translateX(0);                }            }                    @keyframes slideLeft {                0% {                    opacity: 0;                    transform: translateX(-30px);                }                100% {                    opacity: 1;                    transform: translateX(0);                }            }        </style><g id="freepik--background-complete--inject-22" class="animable animator-active" style="transform-origin: 377.995px 203.492px;"><path d="M72.63,303.22,86,303l6.58-.12c2.19,0,4.37,0,6.55-.05l-.45.44,0-11.19.5.5-13.24-.06c-4.42,0-8.83-.11-13.24-.16l.27-.28c0,1.84-.08,3.68-.13,5.54Zm0,0-.14-5.53c0-1.87-.12-3.76-.13-5.66v-.27h.28c4.41-.05,8.82-.16,13.24-.16l13.24-.06h.5v.5l-.06,11.19v.45h-.44c-2.23,0-4.47,0-6.7-.06l-6.66-.11Z" style="fill: rgb(235, 235, 235); transform-origin: 85.99px 297.61px;" id="elso86ztb6lf" class="animable"></path><path d="M87.4,317.33l13.36-.27,6.57-.12c2.19,0,4.37,0,6.55-.05l-.45.44-.05-11.19.5.5-13.24-.06c-4.41,0-8.83-.11-13.24-.16l.27-.28c0,1.84-.08,3.68-.13,5.54Zm0,0-.14-5.53c-.05-1.87-.11-3.76-.13-5.66v-.27h.28c4.41-.05,8.83-.16,13.24-.16l13.24-.07h.5v.5l0,11.19v.45h-.44c-2.23,0-4.47,0-6.69-.06l-6.67-.11Z" style="fill: rgb(235, 235, 235); transform-origin: 100.76px 311.71px;" id="elzlkqma6xwkb" class="animable"></path><path d="M57.86,317.33l13.35-.27,6.58-.12c2.19,0,4.36,0,6.55-.05l-.45.44,0-11.19.5.5-13.24-.06c-4.42,0-8.83-.11-13.24-.16l.27-.28c0,1.84-.09,3.68-.13,5.54Zm0,0-.15-5.53c0-1.87-.11-3.76-.13-5.66v-.27h.28c4.41-.05,8.82-.16,13.24-.16l13.24-.07h.5v.5l-.06,11.19v.45h-.44c-2.23,0-4.47,0-6.7-.06L71,317.61Z" style="fill: rgb(235, 235, 235); transform-origin: 71.21px 311.71px;" id="els9xs5dhnk2" class="animable"></path><path d="M434.63,117.32,448,117l6.58-.11c2.18-.05,4.36,0,6.54-.06l-.44.45-.06-11.19.5.5-13.24-.06c-4.41,0-8.83-.12-13.24-.17l.27-.27c0,1.83-.08,3.67-.13,5.54Zm0,0-.14-5.54c-.05-1.86-.11-3.75-.13-5.65v-.27h.28c4.41,0,8.83-.16,13.24-.17l13.24-.06h.5v.5l-.05,11.19v.45h-.44c-2.23,0-4.47,0-6.69-.06l-6.66-.11Z" style="fill: rgb(235, 235, 235); transform-origin: 447.99px 111.7px;" id="elnrqtzn7udv" class="animable"></path><path d="M449.4,131.43l13.36-.28,6.58-.11c2.18,0,4.36,0,6.54-.06l-.44.45-.06-11.19.5.5-13.24-.06c-4.41,0-8.82-.12-13.24-.17l.28-.27c0,1.83-.09,3.67-.14,5.54Zm0,0-.14-5.54c0-1.86-.11-3.75-.13-5.65V120h.27c4.42,0,8.83-.16,13.24-.17l13.24-.06h.5v.5l-.05,11.19v.45h-.45c-2.23,0-4.47,0-6.69-.06l-6.66-.11Z" style="fill: rgb(235, 235, 235); transform-origin: 462.755px 125.84px;" id="eld64u3qlttt5" class="animable"></path><path d="M419.86,131.43l13.35-.28,6.58-.11c2.19,0,4.37,0,6.55-.06l-.45.45-.05-11.19.5.5-13.24-.06c-4.41,0-8.83-.12-13.24-.17l.27-.27c0,1.83-.08,3.67-.13,5.54Zm0,0-.14-5.54c-.05-1.86-.12-3.75-.13-5.65V120h.28c4.41,0,8.83-.16,13.24-.17l13.24-.06h.5v.5l-.06,11.19v.45h-.44c-2.23,0-4.47,0-6.7-.06l-6.66-.11Z" style="fill: rgb(235, 235, 235); transform-origin: 433.22px 125.84px;" id="elasybhkqc1bq" class="animable"></path><path d="M636.12,244.11l13.36-.28,6.57-.11c2.19-.05,4.37,0,6.55-.06l-.45.45,0-11.19.5.5-13.24-.07c-4.41,0-8.83-.11-13.24-.16l.27-.27c0,1.83-.08,3.67-.13,5.53Zm0,0-.14-5.54c-.05-1.87-.11-3.75-.13-5.65v-.27h.28c4.41,0,8.83-.15,13.24-.16l13.24-.06h.5v.5l-.05,11.19v.45h-.44c-2.23,0-4.47,0-6.69-.05l-6.67-.11Z" style="fill: rgb(235, 235, 235); transform-origin: 649.48px 238.5px;" id="el9bg0slr1lr" class="animable"></path><path d="M265.92,181l13.35-.27,6.58-.12c2.19,0,4.37,0,6.55-.05L292,181l-.05-11.19.5.5-13.24-.06c-4.42,0-8.83-.11-13.24-.16l.27-.28c0,1.84-.09,3.68-.13,5.54Zm0,0-.14-5.53c0-1.87-.12-3.76-.14-5.66v-.27h.28c4.41-.05,8.82-.16,13.24-.16l13.24-.07h.5v.5L292.84,181v.45h-.44c-2.23,0-4.47,0-6.7-.06l-6.66-.11Z" style="fill: rgb(235, 235, 235); transform-origin: 279.27px 175.38px;" id="eld50z3p4vz3o" class="animable"></path><path d="M74.16,61.38l13.36-.28L94.09,61c2.19-.05,4.37,0,6.55-.06l-.45.45,0-11.19.5.5L87.4,50.63c-4.41,0-8.83-.12-13.24-.17l.27-.27c0,1.83-.08,3.67-.13,5.54Zm0,0L74,55.84c0-1.86-.11-3.75-.13-5.65v-.27h.28c4.41-.05,8.83-.16,13.24-.17l13.24-.06h.5v.5l0,11.19v.45h-.44c-2.23,0-4.47,0-6.69-.06l-6.67-.11Z" style="fill: rgb(235, 235, 235); transform-origin: 87.5px 55.76px;" id="elje3k5csaox" class="animable"></path><path d="M59.39,75.49l13.35-.28,6.58-.11c2.19,0,4.37,0,6.55-.06l-.45.45,0-11.19.5.5-13.24-.06c-4.42,0-8.83-.12-13.24-.17l.27-.27c0,1.83-.09,3.67-.13,5.54Zm0,0L59.25,70c0-1.86-.12-3.75-.14-5.65V64h.28c4.41-.05,8.82-.16,13.24-.17l13.24-.06h.5v.5l-.06,11.19v.45h-.44c-2.23,0-4.47,0-6.7-.06l-6.66-.11Z" style="fill: rgb(235, 235, 235); transform-origin: 72.74px 69.84px;" id="elmd218dxwirk" class="animable"></path><path d="M665.66,61.39,679,61.11,685.6,61c2.19,0,4.36,0,6.54,0l-.44.44-.06-11.19.5.5-13.24-.06c-4.41,0-8.82-.11-13.24-.17l.28-.27c0,1.83-.09,3.68-.13,5.54Zm0,0-.14-5.53c0-1.87-.11-3.76-.13-5.66v-.27h.27c4.42,0,8.83-.16,13.24-.16l13.24-.07h.51v.5l0,11.19v.45h-.45c-2.23,0-4.47,0-6.69-.06l-6.66-.11Z" style="fill: rgb(235, 235, 235); transform-origin: 679.02px 55.77px;" id="eld5h4ya5nhaw" class="animable"></path><polygon points="611.5 265.05 653.98 265.05 678.29 143.84 639.4 125.97 611.5 265.05" style="fill: rgb(219, 219, 219); transform-origin: 644.895px 195.51px;" id="el8dhaodjvyfg" class="animable"></polygon><polygon points="489.92 265.05 611.5 265.05 639.4 125.97 517.82 125.97 489.92 265.05" style="fill: rgb(235, 235, 235); transform-origin: 564.66px 195.51px;" id="elhh4sfx3jdg4" class="animable"></polygon><g id="elln9bu71187l"><rect x="633.31" y="200.02" width="65.1" height="133.58" style="fill: rgb(219, 219, 219); transform-origin: 665.86px 266.81px; transform: rotate(180deg);" class="animable"></rect></g><polygon points="458.68 333.59 476.47 333.59 502.97 200.02 458.68 200.02 458.68 333.59" style="fill: rgb(219, 219, 219); transform-origin: 480.825px 266.805px;" id="el2tybtezquw" class="animable"></polygon><g id="elr6bupm1tc1e"><rect x="597.54" y="200.02" width="35.77" height="133.58" style="fill: rgb(235, 235, 235); transform-origin: 615.425px 266.81px; transform: rotate(180deg);" class="animable"></rect></g><g id="elx5jxp7oxoee"><rect x="422.91" y="200.02" width="35.77" height="133.58" style="fill: rgb(235, 235, 235); transform-origin: 440.795px 266.81px; transform: rotate(180deg);" class="animable"></rect></g><g id="elzy9ftqyv5s"><rect x="458.68" y="265.05" width="138.86" height="68.55" style="fill: rgb(235, 235, 235); transform-origin: 528.11px 299.325px; transform: rotate(180deg);" class="animable"></rect></g><g id="elhxg7k1f4c7t"><rect x="458.68" y="235.41" width="138.86" height="29.91" style="fill: rgb(235, 235, 235); transform-origin: 528.11px 250.365px; transform: rotate(180deg);" class="animable"></rect></g><path d="M624.55,200c-9,.1-18,.26-27,.3l.31-.3.11,15.63,0,15.63q0,15.63,0,31.26c0,10.43,0,20.85-.13,31.27s-.2,20.84-.34,31.26c-.13-10.42-.28-20.84-.33-31.26s-.11-20.84-.14-31.27,0-20.84,0-31.26l0-15.63.11-15.63v-.31h.3C606.54,199.75,615.55,199.91,624.55,200Z" style="fill: rgb(219, 219, 219); transform-origin: 610.783px 262.37px;" id="ell5h9ozrrgga" class="animable"></path><path d="M458.68,200c.21,10.46.3,20.92.38,31.38l.12,31.38-.11,31.38-.14,15.69-.25,15.69-.24-15.69-.14-15.69-.12-31.38.12-31.38C458.38,220.94,458.47,210.48,458.68,200Z" style="fill: rgb(219, 219, 219); transform-origin: 458.68px 262.76px;" id="elqwf418a96q" class="animable"></path><path d="M458.68,265.05c11.57-.21,23.14-.31,34.72-.39l34.71-.11,34.72.11,17.35.14,17.36.25-17.36.24-17.35.14-34.72.11-34.71-.11C481.82,265.35,470.25,265.25,458.68,265.05Z" style="fill: rgb(219, 219, 219); transform-origin: 528.11px 265.045px;" id="elcdn5wbwhk1" class="animable"></path><path d="M458.68,235.41c11.57-.2,23.14-.3,34.72-.38l34.71-.12,34.72.12,17.35.14,17.36.24-17.36.25-17.35.14-34.72.11-34.71-.11C481.82,235.72,470.25,235.62,458.68,235.41Z" style="fill: rgb(219, 219, 219); transform-origin: 528.11px 235.41px;" id="elrw9ksfvhkfi" class="animable"></path><polygon points="673.67 333.59 674.55 344.41 676.61 369.42 686.03 369.42 688.09 344.41 688.97 333.59 673.67 333.59" style="fill: rgb(199, 199, 199); transform-origin: 681.32px 351.505px;" id="el99bkllpo1ce" class="animable"></polygon><polygon points="688.97 333.59 673.67 333.59 674.55 344.41 688.09 344.41 688.97 333.59" style="fill: rgb(166, 166, 166); transform-origin: 681.32px 339px;" id="elpj40j3icttl" class="animable"></polygon><polygon points="607.78 333.59 608.66 344.41 610.71 369.42 620.14 369.42 622.2 344.41 623.08 333.59 607.78 333.59" style="fill: rgb(199, 199, 199); transform-origin: 615.43px 351.505px;" id="elzhlv4d33m4q" class="animable"></polygon><polygon points="623.08 333.59 607.78 333.59 608.66 344.41 622.2 344.41 623.08 333.59" style="fill: rgb(166, 166, 166); transform-origin: 615.43px 339px;" id="elhfz3rrf3hcq" class="animable"></polygon><polygon points="498.48 333.59 499.36 344.41 501.42 369.42 510.84 369.42 512.9 344.41 513.78 333.59 498.48 333.59" style="fill: rgb(199, 199, 199); transform-origin: 506.13px 351.505px;" id="elzcxlkudafrm" class="animable"></polygon><polygon points="513.78 333.59 498.48 333.59 499.36 344.41 512.9 344.41 513.78 333.59" style="fill: rgb(166, 166, 166); transform-origin: 506.13px 339px;" id="elxrtconsykk" class="animable"></polygon><polygon points="432.57 333.59 433.45 344.41 435.51 369.42 444.93 369.42 446.99 344.41 447.87 333.59 432.57 333.59" style="fill: rgb(199, 199, 199); transform-origin: 440.22px 351.505px;" id="elts5nyztkr5j" class="animable"></polygon><polygon points="432.57 333.59 433.45 344.41 446.99 344.41 447.87 333.59 432.57 333.59" style="fill: rgb(166, 166, 166); transform-origin: 440.22px 339px;" id="el0waq8ncl88k" class="animable"></polygon><g id="el8egwbb1zoax"><rect x="80.12" y="114.85" width="189.52" height="8.31" style="fill: rgb(235, 235, 235); transform-origin: 174.88px 119.005px; transform: rotate(180deg);" class="animable"></rect></g><rect x="250.7" y="123.16" width="8.31" height="27.49" style="fill: rgb(235, 235, 235); transform-origin: 254.855px 136.905px;" id="elkowgdp0o87e" class="animable"></rect><rect x="250.7" y="123.16" width="8.31" height="8.5" style="fill: rgb(219, 219, 219); transform-origin: 254.855px 127.41px;" id="el294vqq7lu22" class="animable"></rect><rect x="90.74" y="123.16" width="8.31" height="27.49" style="fill: rgb(235, 235, 235); transform-origin: 94.895px 136.905px;" id="el01zz83sdccuo" class="animable"></rect><rect x="90.74" y="123.16" width="8.31" height="8.5" style="fill: rgb(219, 219, 219); transform-origin: 94.895px 127.41px;" id="elujy3zc8jst" class="animable"></rect><g id="eljb9xyubfvu"><rect x="201.11" y="81.7" width="52.97" height="13.34" style="fill: rgb(199, 199, 199); transform-origin: 227.595px 88.37px; transform: rotate(90deg);" class="animable"></rect></g><g id="elvzu6m5dagg"><rect x="224.69" y="55.3" width="5.82" height="13.34" style="fill: rgb(219, 219, 219); transform-origin: 227.6px 61.97px; transform: rotate(90deg);" class="animable"></rect></g><g id="elfazt7jdg4ei"><rect x="226.52" y="66.74" width="2.16" height="13.34" style="fill: rgb(219, 219, 219); transform-origin: 227.6px 73.41px; transform: rotate(90deg);" class="animable"></rect></g><g id="elznk73v4cpa"><rect x="223.85" y="97.49" width="5.82" height="15" style="fill: rgb(219, 219, 219); transform-origin: 226.76px 104.99px; transform: rotate(90deg);" class="animable"></rect></g><g id="el5y5tlbrvrdk"><rect x="185.37" y="79.3" width="61.79" height="9.32" style="fill: rgb(219, 219, 219); transform-origin: 216.265px 83.96px; transform: rotate(90deg);" class="animable"></rect></g><g id="elgppr9qjitqn"><rect x="204.42" y="67.96" width="23.76" height="5.59" style="fill: rgb(235, 235, 235); transform-origin: 216.3px 70.755px; transform: rotate(90deg);" class="animable"></rect></g><g id="elz1niq26kytm"><rect x="139.64" y="85.17" width="61.79" height="9.32" style="fill: rgb(199, 199, 199); transform-origin: 170.535px 89.83px; transform: rotate(135.33deg);" class="animable"></rect></g><g id="eltx0uzk5s44d"><rect x="155.42" y="90.18" width="23.76" height="5.59" style="fill: rgb(219, 219, 219); transform-origin: 167.3px 92.975px; transform: rotate(135.33deg);" class="animable"></rect></g><g id="eleoaevbggq9k"><rect x="180.23" y="83.48" width="46.93" height="15.83" style="fill: rgb(166, 166, 166); transform-origin: 203.695px 91.395px; transform: rotate(90deg);" class="animable"></rect></g><g id="elx36humlw5bs"><rect x="201.51" y="99.79" width="4.37" height="15.83" style="fill: rgb(199, 199, 199); transform-origin: 203.695px 107.705px; transform: rotate(90deg);" class="animable"></rect></g><g id="elsw29y8qwlml"><rect x="202.85" y="93.88" width="1.7" height="15.83" style="fill: rgb(199, 199, 199); transform-origin: 203.7px 101.795px; transform: rotate(90deg);" class="animable"></rect></g><g id="elwzpt2uvdtps"><rect x="217.68" y="87.34" width="44.11" height="10.94" style="fill: rgb(166, 166, 166); transform-origin: 239.735px 92.81px; transform: rotate(90deg);" class="animable"></rect></g><g id="el4ngjdvr55u8"><rect x="237.68" y="102.66" width="4.11" height="10.94" style="fill: rgb(199, 199, 199); transform-origin: 239.735px 108.13px; transform: rotate(90deg);" class="animable"></rect></g><g id="elz9zw898kaqg"><rect x="237.68" y="76.44" width="4.11" height="10.94" style="fill: rgb(199, 199, 199); transform-origin: 239.735px 81.91px; transform: rotate(90deg);" class="animable"></rect></g><g id="elp7b7q3lbrv"><rect x="238.94" y="82.11" width="1.59" height="10.94" style="fill: rgb(199, 199, 199); transform-origin: 239.735px 87.58px; transform: rotate(90deg);" class="animable"></rect></g><path d="M118.45,58.35c9.32,9.14,10.89,23.27,8.92,35.64-.05.28-.48.21-.48-.06,0-2.81.08-5.61.08-8.39l-.15-.37a18.93,18.93,0,0,1-6.06-6.52c-1.56-3.06-2.17-6.52-3.36-9.72-.11-.3.21-.21.43-.06,5.67,4.19,7.48,8.69,9.11,14.71a49.71,49.71,0,0,0-1-9.37c-1.22-5.71-3.65-11.37-7.75-15.61A.18.18,0,0,1,118.45,58.35Z" style="fill: rgb(166, 166, 166); transform-origin: 122.748px 76.232px;" id="el2rc7vlshzjy" class="animable"></path><path d="M116.69,59.42c-1.6,0-2.61,2.62-3.86,3.37a1.21,1.21,0,0,1-1.77-.28c-1.24-1.73.46-3.87,2.06-5.06-1.14.47-2.09,1.3-3.33,1.53a1.16,1.16,0,0,1-1.5-.9c-.54-2.36,2.42-3.41,4.45-3.46-1-.68-3.81-2.54-2.31-3.45s4.83,1.74,5.91,2.61c1.59,1.29,3.48,3.21,3.55,5.23C120,61.36,117.93,59.91,116.69,59.42Z" style="fill: rgb(219, 219, 219); transform-origin: 114.06px 57.0196px;" id="el1otu909ebgnj" class="animable"></path><path d="M117.16,59.81c-2.06-.93-6,.41-6.33-.36-.68-1.58,2.47-2.67,4.17-2.88-1.57-.42-4.57-1.1-4.48-2.61.12-1.84,4.61-.26,6.88,1.49,2.86,2.19,2.84,4.31,2.37,4.73C119.12,60.76,117.5,60,117.16,59.81Z" style="fill: rgb(235, 235, 235); transform-origin: 115.262px 56.766px;" id="el468keptxed7" class="animable"></path><path d="M139.69,57.45c-9.67,8.77-11.77,22.83-10.28,35.27,0,.29.48.23.49,0,.11-2.81.13-5.61.24-8.39.06-.12.11-.24.16-.37a18.73,18.73,0,0,0,6.31-6.27c1.67-3,2.41-6.44,3.73-9.59.12-.3-.21-.22-.43-.07-5.83,4-7.81,8.39-9.67,14.35A50.59,50.59,0,0,1,131.59,73c1.44-5.66,4.08-11.23,8.34-15.31A.17.17,0,0,0,139.69,57.45Z" style="fill: rgb(166, 166, 166); transform-origin: 134.671px 75.1614px;" id="elbuolckwye5h" class="animable"></path><path d="M141.4,58.58c1.61.11,2.51,2.72,3.73,3.51a1.19,1.19,0,0,0,1.78-.21c1.31-1.68-.31-3.88-1.86-5.13,1.12.51,2,1.37,3.26,1.65a1.16,1.16,0,0,0,1.54-.84c.63-2.33-2.29-3.49-4.31-3.62,1-.65,3.9-2.4,2.43-3.37s-4.89,1.56-6,2.39c-1.63,1.23-3.6,3.08-3.74,5.09C138,60.39,140.15,59,141.4,58.58Z" style="fill: rgb(219, 219, 219); transform-origin: 144.075px 56.3746px;" id="eleaipblugyc5" class="animable"></path><path d="M140.92,59c2.09-.86,6,.63,6.34-.13.74-1.55-2.36-2.76-4.06-3,1.59-.36,4.61-.93,4.57-2.44,0-1.85-4.58-.43-6.92,1.22-2.95,2.09-3,4.2-2.55,4.65C138.93,59.83,140.58,59.1,140.92,59Z" style="fill: rgb(235, 235, 235); transform-origin: 142.931px 56.0242px;" id="elkgivbnkww3" class="animable"></path><path d="M129.8,80.62a95.2,95.2,0,0,1-3,13.87.34.34,0,0,1-.67-.14c.63-4.28,1.79-8.47,2.42-12.74a64.45,64.45,0,0,0,.75-13.09c-.41-7.2-2.37-14.86-7.07-20.5-.1-.13.12-.32.23-.2,9.41,11,7.91,24.43,7.9,25.63,1.33-4.54,2.7-9.75,7.74-14.37.22-.2.39-.11.35.23-.9,8.43-3.24,12.83-8.12,17.33C130.19,78,130,79.3,129.8,80.62Z" style="fill: rgb(166, 166, 166); transform-origin: 130.33px 71.2721px;" id="elook249nll8q" class="animable"></path><path d="M122.15,49.28c-1.69-.75-4,1.41-5.7,1.56a1.39,1.39,0,0,1-1.7-1.18c-.42-2.42,2.42-3.78,4.68-4.22-1.42-.08-2.82.3-4.22-.08a1.34,1.34,0,0,1-1.1-1.69c.62-2.72,4.22-2.32,6.35-1.35-.68-1.2-2.67-4.55-.65-4.75s4.13,4.24,4.81,5.69c1,2.13,2,5.08,1,7.21C124.59,53,123.18,50.42,122.15,49.28Z" style="fill: rgb(219, 219, 219); transform-origin: 120.047px 44.5541px;" id="elmvp01niwj1" class="animable"></path><path d="M122.43,49.93c-1.66-2-6.42-2.59-6.38-3.57.09-2,3.9-1.52,5.77-.88-1.41-1.23-4.18-3.44-3.32-5,1-1.86,4.9,2,6.38,5,1.87,3.72.78,5.91.08,6.11C124,51.9,122.71,50.26,122.43,49.93Z" style="fill: rgb(235, 235, 235); transform-origin: 120.984px 45.811px;" id="eldhttew1xw6s" class="animable"></path><path d="M136,83.15l4.15,31.71H114.89c.52-2.81,5.22-31.75,5.22-31.75Z" style="fill: rgb(219, 219, 219); transform-origin: 127.52px 98.985px;" id="el8y9nmconidq" class="animable"></path></g><g id="freepik--Shadow--inject-22" class="animable" style="transform-origin: 375px 422.19px;"><ellipse cx="375" cy="422.19" rx="282.24" ry="27.26" style="fill: rgb(235, 235, 235); transform-origin: 375px 422.19px;" id="eljvdfv7bc7zc" class="animable"></ellipse></g><g id="freepik--Floor--inject-22" class="animable" style="transform-origin: 375px 369.41px;"><polygon points="51.9 369.41 132.68 369.17 213.45 369.08 375 368.91 536.55 369.08 617.32 369.17 698.1 369.41 617.32 369.66 536.55 369.74 375 369.91 213.45 369.74 132.68 369.65 51.9 369.41" style="fill: rgb(38, 50, 56); transform-origin: 375px 369.41px;" id="elks1o9lnmkwr" class="animable"></polygon></g><g id="freepik--Plant--inject-22" class="animable" style="transform-origin: 117.364px 282.618px;"><path d="M105.72,239.43a105,105,0,0,1,2.45-17.19c1.21-5.09,2.93-10.29,6.14-14.5,2.93-3.84,7.14-6.9,12-7.5,4.71-.57,9.14,1.53,12.67,4.5,4.36,3.68,7.71,8.55,10.85,13.27a163.3,163.3,0,0,1,9.38,16.42c.09.18-.19.34-.28.15a102.44,102.44,0,0,0-8.39-13.73,86.56,86.56,0,0,0-9.66-11.69c-3.23-3.16-7.35-6.12-12-6.27s-9,2.47-11.78,6.07c-3.14,4-4.73,9-5.93,13.93a103.93,103.93,0,0,0-2.42,16.37c-.92,11.32-1.17,22.71-1.43,34.07q-.21,9.63-.29,19.28c0,3.25,0,6.51-.08,9.76a60.4,60.4,0,0,1-.37,9.42c-.11.64-1.14.57-1.25,0a55.32,55.32,0,0,1-.43-8.92c0-3.09-.08-6.17-.11-9.26q-.09-9-.07-18C104.76,263.54,104.9,251.45,105.72,239.43Z" style="fill: rgb(38, 50, 56); transform-origin: 131.972px 256.195px;" id="elmy41ase96js" class="animable"></path><path d="M121.9,230.89c.6-3.2,1.69-7.37,3.51-9.85,3.28-4.46,6.82-2.52,3.55,2.42a29.44,29.44,0,0,0-4.61,12.17s5.51,7.87,12.16,11.74c-.28-3-1.13-7.68-.54-12.17,1.27-9.72,7.16-9.17,5.7-1.45-1.17,6.19-1.65,12.77-1.33,15.62a32.92,32.92,0,0,0,7.11,3.49c-.38-1.13-.79-2.48-1.24-4.12-2.36-8.72,3.46-11.44,3.64-6.54.14,4,1.71,10.28,2.26,12.37,3.19,1.07,5.84,1.8,7.46,2.37a27.26,27.26,0,0,1,10.9,7.45,34.32,34.32,0,0,0,7.43-9.61c-2-1.75-5.25-4.35-9.7-7.5-8.36-5.9-5.46-13.35,1.18-8.72,4.78,3.35,8.49,9.54,10.17,12.72a51.75,51.75,0,0,0,3.79-17.4c-6.57-6.17-22.8-14.75-17.91-14.75,4.41,0,14.26,6.45,17.88,8.94a47.55,47.55,0,0,0-.56-5c-6.18-4.06-26.28-10.36-23.08-12.18,3.52-2,17.54,4.51,21.78,6.56a25.61,25.61,0,0,0-3.71-7.69c-8.55-11.44-24-15.38-30.68-13.2-4.75,1.54-3.37,13.61-4.39,13.2C123.57,202,114.88,207.45,121.9,230.89Zm46.84-1.32c1.36-1.64,7.63,3.18,5.82,5.81S167,231.67,168.74,229.57ZM136,219.28c1.65,1.05-.79,7.15-3.34,5.3C130.48,223,134.31,218.22,136,219.28Z" style="fill: rgb(255, 199, 39); transform-origin: 151.412px 230.188px;" id="el30yb378neap" class="animable"></path><path d="M138.48,221.15c.86-1.71,1.76-3.4,2.74-5a30.06,30.06,0,0,1,3.16-4.58c-.27-.34-.53-.68-.82-1-.11-.13.09-.32.2-.19l.94,1.11a.29.29,0,0,1,.13.16q1.77,2.13,3.36,4.36a51.67,51.67,0,0,1,5.55,1.61c1.87.63,3.73,1.28,5.55,2.05.19.08.1.39-.09.31-1.81-.8-3.64-1.58-5.51-2.21s-3.57-1.06-5.36-1.56c.58.82,1.15,1.65,1.7,2.49a65.9,65.9,0,0,1,9.82,4c3.31,1.57,6.5,3.4,9.68,5.24.18.1,0,.38-.17.28a105.7,105.7,0,0,0-9.63-5c-3.07-1.44-6.26-2.62-9.35-4,7.8,12.18,12.48,26.23,18.73,39.24.1.19-.2.34-.28.15-1.91-4.56-4.11-9-6.19-13.49-1.87-4-3.69-8.08-5.56-12.11-.55-1.18-1.11-2.36-1.68-3.53.34,6.5.2,13.12,1.27,19.55a.16.16,0,1,1-.32,0c-.45-6.95-1.68-13.79-1.63-20.78,0,0,0-.06,0-.09-1.32-2.66-2.73-5.28-4.26-7.83-2.58,6.09-5.3,12.27-6.51,18.8,0,.2-.36.11-.31-.09,1.76-6.55,3.39-13.11,6.55-19.17a74.55,74.55,0,0,0-5.5-7.92c-.86,1.62-2,3.15-3,4.69s-1.91,3-2.8,4.59a64.44,64.44,0,0,0-4.88,10.32c-.07.19-.39.09-.31-.1C135.26,228,136.77,224.51,138.48,221.15Z" style="fill: rgb(38, 50, 56); transform-origin: 151.646px 234.517px;" id="ellx7sut7fdh" class="animable"></path><path d="M77,236c5-5,10.83-11.61,18.56-11.6,7.47,0,13,6,16.13,12.23,3.3,6.49,4.49,13.84,5.42,21a252.79,252.79,0,0,1,2,25.79c.14,4.79.12,9.58,0,14.37a95.11,95.11,0,0,1-1.1,14.51c-.14.77-1.38.8-1.42,0-.23-4-.07-8.08-.05-12.12s0-7.95-.18-11.92c-.3-8-.88-16.06-1.83-24.05-.82-7-1.47-14.15-3.56-20.89-1.89-6.07-5.41-13-11.58-15.69-8.4-3.65-16.62,3-22.12,8.63C77.07,236.31,76.82,236.1,77,236Z" style="fill: rgb(38, 50, 56); transform-origin: 98.0728px 268.644px;" id="elul6lhzclx8i" class="animable"></path><path d="M51.42,247.18h0c0,1,.1,2,.17,3a18.1,18.1,0,0,1,8.2-3.4c7.11-.76,6.66,4.65,1.91,4.87a27,27,0,0,0-9.75,2c1.16,9.38,3.74,16.93,4.13,17a137.26,137.26,0,0,0,18.77-2.37c-1.76-3.77-5.79-8.77-3.74-9.18s4.3,4.05,5.43,8.83A88.42,88.42,0,0,0,90.2,264.2c-3.12-2.7-8-6.07-6.11-7.5s5.68,3.3,8,6.75a27.9,27.9,0,0,0,5.9-3.29c-4.21-6.19-14.47-7.45-13.14-11.92s11,1.73,15.26,10c5.07-5.25,6.55-12.68,6-19-4.41-.52-12.9.41-12.29-2.75s6.75-2.57,11.77-.72a17.62,17.62,0,0,0-3-7c-4.65-6-18.83,1.62-18.83,1.62s1.52-14.26-3.9-16.72c-3.12-1.42-8.62-1.41-14.14,1.84,3.1.26,6.84,1.24,8.34,3.39,1.93,2.74-1.11,4.23-3,3-1.35-.9-3.89-3.72-8.47-4.1a28.26,28.26,0,0,0-5.12,5.67A27.21,27.21,0,0,0,56,225.8a19.51,19.51,0,0,1,16.61.3c6.15,3.06,2.71,9.44-2.58,7s-10.33-4.92-15.94-3.51c-2.06,4.74-2.74,10.37-2.7,15.9a27.71,27.71,0,0,1,9.11-4.37c6.12-1.61,8,2,1.25,2.73A26.72,26.72,0,0,0,51.42,247.18Zm7.44-9.82c-.42-2,3.92-2.55,4.64-1C64.1,237.79,59.27,239.34,58.86,237.36Zm37.1,11c.41-1.08,3.31.15,3.05,1.49C98.65,251.63,95.57,249.41,96,248.33Zm-20.48,6.95c2.11-.84,5.42,4.41,3.11,5.62S73.75,256,75.48,255.28Z" style="fill: rgb(255, 199, 39); transform-origin: 78.8032px 241.709px;" id="ele458eewuayi" class="animable"></path><path d="M56.91,269.6c3.18-5.33,6.33-10.69,9.68-15.92,1.56-2.44,3.19-4.82,4.88-7.17-.25,0-.51-.12-.75-.18l-1.27-.24c-1-.17-2-.31-3-.41s-1.86-.15-2.8-.16a14.25,14.25,0,0,0-3,.16.08.08,0,1,1,0-.16c1,0,2-.09,3-.1s1.94,0,2.91.06,1.81.15,2.71.29c.49.07,1,.16,1.48.26a9,9,0,0,1,.9.19q2.58-3.57,5.37-7a63.93,63.93,0,0,0-17.45-5.57c-.1,0-.06-.17,0-.16a59.48,59.48,0,0,1,17.7,5.37q1.53-1.87,3.07-3.73c1.16-1.39,2.39-2.74,3.43-4.22.07-.09.21,0,.13.1a60.49,60.49,0,0,0-4,4.95h0a61,61,0,0,1,6.48,5.2c2.12,1.88,4.19,3.83,6.2,5.82a.08.08,0,0,1-.11.12c-2-2-4.05-3.86-6.2-5.65s-4.42-3.43-6.59-5.2a.06.06,0,0,1,0,0c-.5.66-1,1.31-1.49,1.95l-.75,1a.18.18,0,0,1,0,.07c-.83,1.08-1.66,2.16-2.48,3.25a25.76,25.76,0,0,1,2.47,4.45c.71,1.5,1.33,3.05,1.91,4.61a67.43,67.43,0,0,1,2.65,10c0,.1-.13.15-.15,0A58.71,58.71,0,0,0,79,251.8c-.62-1.63-1.33-3.22-2-4.81-.67-1.44-1.47-2.82-2.09-4.28-.71.95-1.42,1.9-2.12,2.87-.21.28-.4.56-.6.84,0,.06,0,.15-.07.15h0c-2.18,3.05-4.27,6.18-6.3,9.35a2.63,2.63,0,0,1,.28.69c.13.39.25.77.37,1.16a21.08,21.08,0,0,1,.55,2.38c.14.75.25,1.5.32,2.26a20,20,0,0,0,.19,2.58c0,.13-.18.14-.15,0a8.53,8.53,0,0,0-.18-2.41c-.12-.82-.27-1.64-.46-2.45s-.37-1.46-.59-2.18c-.11-.36-.22-.72-.35-1.08-.06-.19-.15-.38-.22-.59-1,1.49-1.89,3-2.81,4.49l-5.48,9C57.05,269.88,56.81,269.75,56.91,269.6Z" style="fill: rgb(38, 50, 56); transform-origin: 74.7466px 250.342px;" id="elv6l8sp4d99b" class="animable"></path><path d="M106.06,310.51c.08-3,.56-6.06.88-9.06s.67-6,1-9.05c.62-5.81,1-11.76,2.34-17.46,1.17-4.9,3.33-9.6,7.1-13.06a11.57,11.57,0,0,1,7-3.32,12,12,0,0,1,7.4,2.28,26,26,0,0,1,6.22,6.55,65.59,65.59,0,0,1,4.85,7.88c.05.1-.11.17-.17.07a40.28,40.28,0,0,0-10.49-11.76,12.43,12.43,0,0,0-6.62-2.76,9,9,0,0,0-6.41,2.56c-3.52,3.06-5.56,7.57-6.78,12-1.43,5.24-1.9,10.75-2.62,16.13-.43,3.19-.83,6.39-1.25,9.58s-.69,6.44-1.36,9.58A.53.53,0,0,1,106.06,310.51Z" style="fill: rgb(38, 50, 56); transform-origin: 124.457px 284.848px;" id="el7s8pqz4tkd9" class="animable"></path><path d="M120.91,287.06a16.76,16.76,0,0,0,3.28,3.36c-.49-2.95-1.09-8.19.39-11,2.31-4.33,5-2.17,3.67,1.59A30.61,30.61,0,0,0,126,291.71a45.85,45.85,0,0,0,10,4.73,16.55,16.55,0,0,1-.33-5.16c.46-4.63,4-4.54,3.08.27a29.41,29.41,0,0,0-.48,5.66A104.38,104.38,0,0,0,154,300.73a45.66,45.66,0,0,0,6.47-11.52c-3.77-.94-11.39-1.15-11.23-3.84.22-3.63,7.6-.84,11.93,1.79a29,29,0,0,0,1.3-9.75A48.74,48.74,0,0,0,152,275.69c-7.75-.67-7.37-5.07-1.75-5,4.15.08,9.39,2.62,11.88,3.94-1.62-10.55-9.67-17.31-16.12-17.57-10.85-.44-7,13.06-7,13.06s-7.35-5.17-14.28-5S113.49,276.74,120.91,287.06Zm29-19.51c-.24-1.52,4.6-1.89,4.86.06C155,269.8,150.13,269.09,149.88,267.55Zm7.79,15.83c-.1-1,2-1.16,2.47.09C160.45,284.28,157.76,284.37,157.67,283.38Zm-26,.93c1.64.23,2.57,6.08-.24,6C129.23,290.18,130.24,284.11,131.62,284.31Z" style="fill: rgb(255, 199, 39); transform-origin: 139.76px 278.89px;" id="el54yoq73ukwr" class="animable"></path><path d="M133.89,290.8c.27-.73.51-1.47.74-2.21-.21.75-.4,1.51-.54,2.27A.11.11,0,1,1,133.89,290.8Z" style="fill: rgb(38, 50, 56); transform-origin: 134.25px 289.782px;" id="elui4lx93gp0l" class="animable"></path><path d="M136.75,281.4c.51-1.49,1.08-3,1.66-4.45.31-.78.64-1.56,1-2.33a9.41,9.41,0,0,1,1-2,13.41,13.41,0,0,1-.88-1.89.06.06,0,0,1,.1-.06,21.57,21.57,0,0,1,2.11,3.28l.89,1.54a16.39,16.39,0,0,1,1.82.29c.65.12,1.3.25,1.94.39l1.94.45c.64.16,1.27.37,1.92.47.15,0,.09.26,0,.2a13.18,13.18,0,0,0-2-.53c-.63-.13-1.25-.24-1.88-.34s-1.26-.16-1.9-.23l-1.43-.11c.26.45.53.9.78,1.36,0,.07.07.15.11.22a6.33,6.33,0,0,1,1.56.18l1.68.33c1.13.25,2.26.52,3.37.83,2.35.66,4.67,1.41,7,2.16.13.05.05.24-.08.2a67.33,67.33,0,0,0-7-1.95c-1.11-.25-2.22-.5-3.33-.73l-1.67-.36a11.11,11.11,0,0,1-1.3-.28c1.19,2.2,2.32,4.44,3.35,6.73,2.25,5,4.14,10.1,6.07,15.21.05.13-.15.21-.19.08a139.72,139.72,0,0,0-6.46-14.87l-1.32-2.64c0,.18-.08.36-.11.54-.12.6-.22,1.21-.32,1.81q-.32,1.81-.6,3.63a43.67,43.67,0,0,0-.87,7.54.11.11,0,1,1-.21,0,34.45,34.45,0,0,0,.27-3.67c.08-1.27.17-2.54.32-3.8s.3-2.44.5-3.65c.1-.6.21-1.21.32-1.81a3.57,3.57,0,0,1,.34-1.31L143.18,278c-.6-1.19-1.21-2.38-1.83-3.56-.26-.5-.55-1-.83-1.52a14.49,14.49,0,0,1-.72,1.83c-.27.68-.55,1.37-.83,2-.63,1.52-1.2,3-1.78,4.58-.82,2.16-1.73,4.39-2.41,6.65C135.45,285.85,136,283.59,136.75,281.4Z" style="fill: rgb(38, 50, 56); transform-origin: 146.193px 285.389px;" id="elr8ymqxmm57a" class="animable"></path><path d="M134.63,288.59l.15-.52Z" style="fill: rgb(38, 50, 56); transform-origin: 134.705px 288.33px;" id="elmo287d96che" class="animable"></path><polygon points="87.92 304.64 88.68 320.79 90.64 362.41 133.59 362.41 135.55 320.79 136.31 304.64 87.92 304.64" style="fill: rgb(55, 71, 79); transform-origin: 112.115px 333.525px;" id="eldt3e0od9pqq" class="animable"></polygon><polygon points="87.92 304.64 88.68 320.79 135.55 320.79 136.31 304.64 87.92 304.64" style="fill: rgb(38, 50, 56); transform-origin: 112.115px 312.715px;" id="elqvf7t0svkr" class="animable"></polygon><g id="el0oew98kgm7h"><rect x="84.86" y="298.11" width="54.5" height="13.06" style="fill: rgb(55, 71, 79); transform-origin: 112.11px 304.64px; transform: rotate(180deg);" class="animable"></rect></g><rect x="122.57" y="362.41" width="7.54" height="6.84" style="fill: rgb(55, 71, 79); transform-origin: 126.34px 365.83px;" id="el8jnjetu0eel" class="animable"></rect><rect x="122.57" y="362.41" width="7.54" height="3.42" style="fill: rgb(38, 50, 56); transform-origin: 126.34px 364.12px;" id="elz8figbqpfn" class="animable"></rect><rect x="94.12" y="362.41" width="7.53" height="6.84" style="fill: rgb(55, 71, 79); transform-origin: 97.885px 365.83px;" id="ela2yq221q9bb" class="animable"></rect><rect x="94.12" y="362.41" width="7.53" height="3.42" style="fill: rgb(38, 50, 56); transform-origin: 97.885px 364.12px;" id="elrt0kph3d61h" class="animable"></rect></g><g id="freepik--Hearts--inject-22" class="animable" style="transform-origin: 375.014px 212.784px;"><path d="M349.72,123.56c6.14,4.18,14.91,3.76,14.91,3.76s4.9-7.29,4.5-14.7c-.34-6.19-4.8-10.55-9.22-9.56-6.33,1.41-2.4,11.62-2.4,11.62s-6.71-8.64-11.21-4C343.17,114,344.6,120.08,349.72,123.56Z" style="fill: rgb(255, 199, 39); transform-origin: 356.902px 115.126px;" id="eld2pktpc1fme" class="animable"></path><path d="M367.87,84.46c1.71,4.61,6.6,7.75,6.6,7.75s5.44-2,8.07-6.2c2.19-3.46,1.46-7.53-1.3-8.69-4-1.67-5.76,5.34-5.76,5.34s-.3-7.23-4.52-6.43C368,76.79,366.45,80.62,367.87,84.46Z" style="fill: rgb(255, 199, 39); transform-origin: 375.58px 84.1891px;" id="elq1xlmmyt1h" class="animable"></path><path d="M274.71,253c30,60.5,101.36,96.4,101.36,96.4s71.36-35.9,101.31-96.4c25-50.46,9.15-105-30.28-116.91-56.52-17.1-71,47.73-71,47.73S361.57,119,305,136.06C265.56,148,249.73,202.51,274.71,253Z" style="fill: rgb(255, 199, 39); transform-origin: 376.05px 241.3px;" id="eloqooljqb79m" class="animable"></path><g id="elrs3nubdl6l"><path d="M274.71,253c30,60.5,101.36,96.4,101.36,96.4s71.36-35.9,101.31-96.4c25-50.46,9.15-105-30.28-116.91-56.52-17.1-71,47.73-71,47.73S361.57,119,305,136.06C265.56,148,249.73,202.51,274.71,253Z" style="fill: rgb(255, 255, 255); opacity: 0.5; transform-origin: 376.05px 241.3px;" class="animable"></path></g><path d="M480,196c1,4.81,5.36,8.65,5.36,8.65s5.68-1.21,8.91-4.92c2.68-3.09,2.57-7.22,0-8.79-3.66-2.24-6.5,4.42-6.5,4.42s.79-7.2-3.5-7C481.27,188.39,479.15,191.93,480,196Z" style="fill: rgb(255, 199, 39); transform-origin: 488.025px 196.503px;" id="elmmkxuso1xs" class="animable"></path><path d="M258.67,175.24c7.22,7,19.05,8.6,19.05,8.6s8.29-8.58,9.54-18.59c1-8.35-3.89-15.26-10-15-8.81.38-6,15-6,15s-6.9-13.17-14-8C252.21,160.88,252.66,169.35,258.67,175.24Z" style="fill: rgb(255, 199, 39); transform-origin: 270.589px 167.041px;" id="eludrgqd14mf" class="animable"></path></g><g id="freepik--character-2--inject-22" class="animable" style="transform-origin: 446.499px 309.201px;"><path d="M320.75,318.73l10,.67c2.06-3.38,4.56-9.43,4-18.16-.11-1.45,2.93,7,1.08,18.51,10.51.71,27.46,1.68,40,2.4.46-4.87,1.1-9.36,1.1-9.36a53.91,53.91,0,0,0,1.62,9.53c1.71.11,3.38.19,5,.28,0-7.6,1.83-20.75,1.83-20.75A66.62,66.62,0,0,0,390.55,323c7.93.37,13.16.47,12.84.08-11.41-14.29-2.27-21.84-5.16-34.12-3.46-14.71-15.89-17.56-15-28.46.66-8.87,4.8-41.41-8.19-42.92,0,0-10-11.07-24.57-6.19-18,6-14,48.43-15.41,53.94-2.07,7.89-6,10.53-9.2,19.48s.63,15.34.84,21.59S318.76,318.63,320.75,318.73Z" style="fill: rgb(38, 50, 56); transform-origin: 361.92px 266.738px;" id="el7kfd2o8mf47" class="animable"></path><path d="M403.83,321.1a31.3,31.3,0,0,1-3.51-7.94c-.79-2.75-.28-5.51.39-8.34a87.7,87.7,0,0,0,1.85-8.71,23.23,23.23,0,0,0-.48-9.19,20.39,20.39,0,0,0-4.44-8.08,53.59,53.59,0,0,0-6.57-6.09,32.74,32.74,0,0,1-6.05-6.12,16,16,0,0,1-2.84-8.07,15,15,0,0,0,1.93,8.64,29.94,29.94,0,0,0,5.8,6.85,68,68,0,0,1,6.09,6.17,19.47,19.47,0,0,1,3.83,7.31,22.68,22.68,0,0,1,.47,8.31c-.28,2.84-.94,5.67-1.45,8.6a29.08,29.08,0,0,0-.48,4.51,13,13,0,0,0,.81,4.56A25.18,25.18,0,0,0,403.83,321.1Z" style="fill: rgb(38, 50, 56); transform-origin: 392.981px 289.83px;" id="el8q6im27jdx3" class="animable"></path><path d="M339.39,225.82a41.58,41.58,0,0,0-3.19,10.05c-.71,3.45-1.73,19.81-2.23,23.27l-.78,5.17a25.9,25.9,0,0,1-1.19,4.91,27.29,27.29,0,0,1-5.5,8.46,39.42,39.42,0,0,0-3.23,4.34,23.57,23.57,0,0,0-2.36,5,34.9,34.9,0,0,0-1.18,5.3,21.15,21.15,0,0,0-.11,5.45c.18,1.82.58,3.56.88,5.26a26.06,26.06,0,0,1,.45,5.12,10.52,10.52,0,0,1-5,8.49,10.74,10.74,0,0,0,6.14-8.4,25.55,25.55,0,0,0-.06-5.39c-.18-1.78-.5-3.5-.57-5.18A27,27,0,0,1,323,287.7a23,23,0,0,1,2.21-4.48,36.69,36.69,0,0,1,3.11-4.08c1.11-1.35,2.27-2.74,3.29-4.26a21.5,21.5,0,0,0,2.48-4.93,27.43,27.43,0,0,0,1.12-5.32c.23-1.76.4-3.51.56-5.25.34-3.49,1.11-19.86,1.55-23.32A49.83,49.83,0,0,1,339.39,225.82Z" style="fill: rgb(38, 50, 56); transform-origin: 327.67px 271.23px;" id="el1jurn7xcu5h" class="animable"></path><path d="M419.05,205.31l1.88,42.61c-.07,1.29.79,2.06,1.94,1.71l20.44-6.12a3.46,3.46,0,0,0,2.21-2.95L443.64,198c.07-1.29-.8-2.06-1.94-1.72l-20.44,6.12A3.47,3.47,0,0,0,419.05,205.31Z" style="fill: rgb(166, 166, 166); transform-origin: 432.285px 222.957px;" id="el73rsob4bt2c" class="animable"></path><path d="M421.47,204.56l1.88,42.61c-.07,1.29.79,2.06,1.94,1.72l20.44-6.12a3.49,3.49,0,0,0,2.21-3l-1.88-42.61c.07-1.29-.8-2.06-1.94-1.72l-20.44,6.12A3.49,3.49,0,0,0,421.47,204.56Z" style="fill: rgb(199, 199, 199); transform-origin: 434.705px 222.165px;" id="elzaszbnmbgoc" class="animable"></path><path d="M427.62,204.69a1.82,1.82,0,1,1-2.23-1.26A1.8,1.8,0,0,1,427.62,204.69Z" style="fill: rgb(38, 50, 56); transform-origin: 425.869px 205.184px;" id="elr7asodzuht" class="animable"></path><path d="M371.39,286.06c18.75,21.34,54.1,45.87,64.91,42.89,5.15-1.42,14.66-2.85,19.68-10.69,10.95-17.11,16.1-45.25,14.52-60.05-.56-5.26-34.74-7.13-35.41-1-1.43,13.17-5.08,30.61-6.6,30.93-5.64,1.18-32.41-10.53-51.13-18.81C354.64,259.28,363.91,277.55,371.39,286.06Z" style="fill: rgb(235, 148, 129); transform-origin: 416.898px 291.285px;" id="elzvt68a5y7mj" class="animable"></path><path d="M472.19,271.9a2.95,2.95,0,1,1,3.92-1.41A2.95,2.95,0,0,1,472.19,271.9Z" style="fill: rgb(255, 199, 39); transform-origin: 473.443px 269.229px;" id="el84dml0t8waf" class="animable"></path><path d="M472.19,271.9a3.08,3.08,0,0,1,.18-5.64,3.09,3.09,0,0,1,4.05,1.9,3.08,3.08,0,0,1-4.23,3.74Zm0,0a3,3,0,0,0,2.24.07,2.89,2.89,0,0,0,1.57-1.54,2.83,2.83,0,1,0-5.29-.21A3,3,0,0,0,472.19,271.9Z" style="fill: rgb(38, 50, 56); transform-origin: 473.502px 269.119px;" id="el9no1apicit" class="animable"></path><path d="M466.63,273.12a2.94,2.94,0,1,1,3.91-1.41A2.94,2.94,0,0,1,466.63,273.12Z" style="fill: rgb(255, 199, 39); transform-origin: 467.88px 270.459px;" id="elpme48ufk9ab" class="animable"></path><path d="M466.63,273.12a3.06,3.06,0,0,1,.18-5.63,3.07,3.07,0,0,1,4,1.9,3.06,3.06,0,0,1-4.22,3.73Zm0,0a2.9,2.9,0,0,0,2.24.07,2.79,2.79,0,0,0,1.56-1.53,2.82,2.82,0,1,0-5.29-.21A2.92,2.92,0,0,0,466.63,273.12Z" style="fill: rgb(38, 50, 56); transform-origin: 467.911px 270.354px;" id="el3fceh9ixvap" class="animable"></path><path d="M460.76,273.49a2.95,2.95,0,1,1,3.92-1.41A2.95,2.95,0,0,1,460.76,273.49Z" style="fill: rgb(255, 199, 39); transform-origin: 462.013px 270.819px;" id="el121v5jst917" class="animable"></path><path d="M460.76,273.49a3.08,3.08,0,0,1,.18-5.64,3.09,3.09,0,0,1,4.05,1.9,3.08,3.08,0,0,1-4.23,3.74Zm0,0a3,3,0,0,0,2.24.07,2.89,2.89,0,0,0,1.57-1.54,2.83,2.83,0,0,0-5.11-2.4,2.87,2.87,0,0,0-.18,2.19A3,3,0,0,0,460.76,273.49Z" style="fill: rgb(38, 50, 56); transform-origin: 462.072px 270.709px;" id="elzkhg3jcz4rh" class="animable"></path><path d="M454.88,274.2a2.94,2.94,0,1,1,3.92-1.41A2.95,2.95,0,0,1,454.88,274.2Z" style="fill: rgb(255, 199, 39); transform-origin: 456.138px 271.541px;" id="elfbevxnzm10r" class="animable"></path><path d="M454.88,274.2a3.08,3.08,0,0,1-1.53-4,3.14,3.14,0,0,1,1.71-1.67,3.2,3.2,0,0,1,2.43.08,3.14,3.14,0,0,1,1.61,1.82,3.07,3.07,0,0,1-4.22,3.74Zm0,0a3,3,0,0,0,2.24.07,2.83,2.83,0,1,0-3.72-1.75A2.91,2.91,0,0,0,454.88,274.2Z" style="fill: rgb(38, 50, 56); transform-origin: 456.179px 271.395px;" id="elkhm9lknns2c" class="animable"></path><path d="M449,274.49a2.95,2.95,0,1,1,3.92-1.42A3,3,0,0,1,449,274.49Z" style="fill: rgb(255, 199, 39); transform-origin: 450.249px 271.81px;" id="elwt0qch8cl6l" class="animable"></path><path d="M449,274.49a3.08,3.08,0,0,1,.18-5.64,3.09,3.09,0,0,1,4,1.9,3.12,3.12,0,0,1-.2,2.38A3.08,3.08,0,0,1,449,274.49Zm0,0a3,3,0,0,0,2.24.07,2.89,2.89,0,0,0,1.57-1.54,2.83,2.83,0,0,0-5.11-2.4,2.87,2.87,0,0,0-.18,2.19A3,3,0,0,0,449,274.49Z" style="fill: rgb(38, 50, 56); transform-origin: 450.286px 271.709px;" id="elyi759mo4vq" class="animable"></path><g id="elqfer8fdzzq"><circle cx="444.4" cy="271.81" r="2.94" style="fill: rgb(255, 199, 39); transform-origin: 444.4px 271.81px; transform: rotate(-49.34deg);" class="animable"></circle></g><path d="M443.15,274.47a3.06,3.06,0,0,1,.18-5.63,3.07,3.07,0,0,1,4,1.9,3.06,3.06,0,0,1-4.22,3.73Zm0,0a2.88,2.88,0,0,0,2.23.07,2.81,2.81,0,0,0,.16-5.17,2.82,2.82,0,0,0-3.88,3.42A2.93,2.93,0,0,0,443.15,274.47Z" style="fill: rgb(38, 50, 56); transform-origin: 444.431px 271.704px;" id="elrx6m7mybssi" class="animable"></path><path d="M437.35,273.74a2.94,2.94,0,1,1,3.92-1.41A2.95,2.95,0,0,1,437.35,273.74Z" style="fill: rgb(255, 199, 39); transform-origin: 438.608px 271.081px;" id="elgi438lyl2w8" class="animable"></path><path d="M437.35,273.74a3.08,3.08,0,0,1,.18-5.64,3.25,3.25,0,0,1,2.43.08,3.17,3.17,0,0,1,1.61,1.82,3.07,3.07,0,0,1-4.22,3.74Zm0,0a3,3,0,0,0,2.24.07,2.83,2.83,0,1,0-3.72-1.75A3,3,0,0,0,437.35,273.74Z" style="fill: rgb(38, 50, 56); transform-origin: 438.659px 270.967px;" id="el18kuwq9pkrg" class="animable"></path><path d="M431.75,272.09a2.94,2.94,0,1,1,3.91-1.41A2.95,2.95,0,0,1,431.75,272.09Z" style="fill: rgb(255, 199, 39); transform-origin: 433px 269.427px;" id="el9ah1yjcrbw" class="animable"></path><path d="M431.75,272.09a3.07,3.07,0,0,1,.18-5.64,3.2,3.2,0,0,1,2.43.08,3.24,3.24,0,0,1,1.61,1.82,3.07,3.07,0,0,1-4.22,3.74Zm0,0a3,3,0,0,0,2.24.07,2.82,2.82,0,1,0-3.73-1.75A3,3,0,0,0,431.75,272.09Z" style="fill: rgb(38, 50, 56); transform-origin: 433.052px 269.315px;" id="elpjbreldhee" class="animable"></path><path d="M463.61,232.17c-5.53-9.42-8.39-11-8.83-21.41-.29-6.84-4.78-9.59-7.82-3.15-5,10.52-.4,24.17,2.54,28.44Z" style="fill: rgb(235, 148, 129); transform-origin: 454.175px 220.008px;" id="elcci1v5sojf4" class="animable"></path><path d="M470.58,262.92s.43-15.48-4.46-26.1c-3.39-7.34-12.53-22.49-36.53-24.93-5.7-.58-14.22,2.64-5.26,7,6.36,3.07,11.32,3.09,14.69,5.55,0,0-10.35,5.38-10.71,11.1a105.15,105.15,0,0,0,.14,15,23.12,23.12,0,0,0,2.81.22s.17,5.38,5.83,11.29Z" style="fill: rgb(235, 148, 129); transform-origin: 445.511px 237.371px;" id="el98vwptjdxen" class="animable"></path><path d="M461.77,230.33c-3.87-1.73-12.12-5.27-19.88-5.81-8.62-.6-25.39.56-25.77,6.93-.28,4.66,6.16,4.78,6.16,4.78s-6.82,1.94-6.15,6.22c.61,3.89,5.6,3.68,5.6,3.68s-3.94,1.89-2.63,5.53c1.57,4.37,9.57-.3,15,2.75C435.32,255.09,461.77,230.33,461.77,230.33Z" style="fill: rgb(235, 148, 129); transform-origin: 438.927px 239.402px;" id="elji7e5m4s3ml" class="animable"></path><path d="M442.77,233.73c-3.91-1-13.37-1.1-20.39,2.35-.16.08-.18.24,0,.2a85.41,85.41,0,0,1,20.4-2.47C442.81,233.82,442.81,233.74,442.77,233.73Z" style="fill: rgb(38, 50, 56); transform-origin: 432.527px 234.705px;" id="el96hn70g091m" class="animable"></path><path d="M441.91,242.42c-3.46-.55-13.22-.19-20.21,3.56-.16.08-.18.25,0,.2a90.59,90.59,0,0,1,20.23-3.68S442,242.42,441.91,242.42Z" style="fill: rgb(38, 50, 56); transform-origin: 431.764px 244.202px;" id="el5qdunm5vh7m" class="animable"></path><path d="M388.55,305.37l14.7-26.75s-18.91-9.85-31.52-12.32-12.51,5.28-4.91,15.23S388.55,305.37,388.55,305.37Z" style="fill: rgb(199, 199, 199); transform-origin: 382.419px 285.604px;" id="elr6k84g0attr" class="animable"></path><path d="M396.28,277c-2.62,3.93-9.42,14.82-12.86,22.51,0,0,.15.15.18.11,3.87-5.93,10.69-18.31,12.94-22.47C396.58,277,396.33,276.89,396.28,277Z" style="fill: rgb(38, 50, 56); transform-origin: 389.982px 288.291px;" id="eldn9w0ltsnzj" class="animable"></path><path d="M691.63,420.35c-3.24,1.25-97.23,2.95-100.91.85-.4-.23-.29-4.38-1.67-15.11-.07-.51-2.22-2.51-5.56-5.31C570.92,390.24,541.38,368,541.38,368l46.9-40.76L633.74,372l11.82,11.61s38.41,20.74,42.21,23.48S694.87,419.11,691.63,420.35Z" style="fill: rgb(235, 148, 129); transform-origin: 617.163px 374.716px;" id="el82eft21ozsn" class="animable"></path><path d="M692.35,421.65c-3.29,1.12-97.66,1.7-101.27-.55-.88-.55-1.4-6.44-2.62-14.83-.16-1.1-6-5.21-9.54-8.31L639,375.44l10.74,9.82s35.55,20,39.24,22.9S695.64,420.52,692.35,421.65Z" style="fill: rgb(255, 199, 39); transform-origin: 636.345px 399.039px;" id="el4hhxblh10xe" class="animable"></path><path d="M691,417.88c-15.82-.29-79.66,0-95.32.94-.13,0-.12.1,0,.1,15.68.63,79.51-.2,95.32-.78C691.31,418.13,691.31,417.89,691,417.88Z" style="fill: rgb(38, 50, 56); transform-origin: 643.409px 418.459px;" id="elk566xqb3joc" class="animable"></path><path d="M644.74,384.55c-6.29-.76-13.83.69-18.29,5.42-.17.18.09.43.29.35a87.72,87.72,0,0,1,18-5A.39.39,0,0,0,644.74,384.55Z" style="fill: rgb(38, 50, 56); transform-origin: 635.731px 387.347px;" id="elfernx2mrx36" class="animable"></path><path d="M649.39,387c-6.28-.76-13.82.69-18.28,5.42-.17.18.09.43.29.35a87.72,87.72,0,0,1,18-5A.39.39,0,0,0,649.39,387Z" style="fill: rgb(38, 50, 56); transform-origin: 640.389px 389.797px;" id="elhzlvd57luci" class="animable"></path><path d="M654.05,389.37c-6.28-.76-13.82.69-18.28,5.42-.17.19.09.43.29.35a87.72,87.72,0,0,1,18-5A.39.39,0,0,0,654.05,389.37Z" style="fill: rgb(38, 50, 56); transform-origin: 645.049px 392.167px;" id="elsdkn4s4k4nk" class="animable"></path><path d="M658.71,391.78c-6.28-.76-13.82.69-18.28,5.42-.17.19.09.43.29.35a86.9,86.9,0,0,1,18-5A.4.4,0,0,0,658.71,391.78Z" style="fill: rgb(38, 50, 56); transform-origin: 649.691px 394.577px;" id="elg0cumt552oj" class="animable"></path><path d="M655.28,369.44c-2.66-3.21-7.11-1.4-9.56.95a33.16,33.16,0,0,0-8.64,14.85c0,.13,0,.2.16.21a.76.76,0,0,0,1,.71c5-2.23,10.63-4,14.81-7.7C655.5,376.3,657.79,372.47,655.28,369.44Zm-10.12,11.79c-2.44,1.16-4.92,2.19-7.31,3.43,1.7-2.89,3.26-5.84,5.24-8.56a37,37,0,0,1,3.06-3.77c1.74-1.8,8.83-5.85,8.17,1C654,377.16,648.06,379.85,645.16,381.23Z" style="fill: rgb(38, 50, 56); transform-origin: 646.724px 376.954px;" id="elzunzgiplek" class="animable"></path><path d="M621.18,384.64c5.26,1.85,11.14,1.36,16.62,1.53a.77.77,0,0,0,.68-1.05.17.17,0,0,0,.07-.26,33.31,33.31,0,0,0-13.62-10.48c-3.16-1.24-8-1.23-9.21,2.74C614.54,380.87,618.11,383.56,621.18,384.64Zm-3.09-4.25c-3.21-6.13,4.88-5.05,7.17-4a35.08,35.08,0,0,1,4.26,2.33,98.38,98.38,0,0,1,8.09,5.95c-2.69-.25-5.37-.27-8.06-.42C626.34,384,619.86,383.77,618.09,380.39Z" style="fill: rgb(38, 50, 56); transform-origin: 627.037px 379.912px;" id="el8ilzx7jz3gt" class="animable"></path><path d="M623.72,356.31l-49.89,44.25s-52-52.86-62.72-53.28c-5.38-.21-91.45,47.85-132.14,52.05-28.86,3-46.52-33.73-46.52-33.73l63.82-24.68c44.55-22,94.75-61.4,125.11-57.72C554.35,287.19,623.72,356.31,623.72,356.31Z" style="fill: rgb(55, 71, 79); transform-origin: 478.085px 341.76px;" id="eltihd2qh5f1" class="animable"></path><path d="M607.78,350c-8.16,7.25-5.92,5.06-14,12.4-4,3.59-23.88,21.6-27,25.56-.06.09.06.22.15.16,4.2-2.82,23.73-21.25,27.62-24.91,7.94-7.48,5.58-5.42,13.45-13A.15.15,0,1,0,607.78,350Z" style="fill: rgb(38, 50, 56); transform-origin: 587.403px 369.044px;" id="elvtv0jsz6zw9" class="animable"></path><path d="M566.14,385.66c-11.34-10-48.48-42.54-50-43.75a20.85,20.85,0,0,0-3.86-2.9,4.11,4.11,0,0,0-3.58.29c-1.72.8-3.4,1.68-5.1,2.51l-10.05,4.91c-13,6.34-25.91,12.85-39,19a396.75,396.75,0,0,1-38.51,16,197.06,197.06,0,0,1-40.33,9.61c-1.7.21-3.4.39-5.1.55-.12,0-.12.2,0,.19a162.13,162.13,0,0,0,39.69-7.38,308.43,308.43,0,0,0,38-14.9c12.82-5.9,25.45-12.21,38.09-18.49,6.67-3.31,13.33-6.66,20-9.94,1.52-.74,3.68-2.35,5.41-1.56a10,10,0,0,1,2,1.48l2.23,1.85c2.86,2.39,48.39,41.6,49.88,42.73C566.09,385.9,566.25,385.75,566.14,385.66Z" style="fill: rgb(38, 50, 56); transform-origin: 468.348px 365.4px;" id="elxvqwai3c4nc" class="animable"></path><path d="M510.92,347.3c-6.9.73-91.66,47.86-131.95,52-28.85,3-46.52-33.74-46.52-33.74l21.83-8.44Z" style="fill: rgb(38, 50, 56); transform-origin: 421.685px 373.387px;" id="elkx8k4tpxafe" class="animable"></path><path d="M334.45,355.11S327.52,395.2,347.57,411s166.89,13.85,189.17,6.65,23-43.16-1.38-51.49c-23.16-7.92-121.73-11.78-124.16-12.75-.61-.24,8.74-5.84,8.7-6.19l-22.43-6.85Z" style="fill: rgb(55, 71, 79); transform-origin: 443.42px 381.706px;" id="elx2rivwgg7u" class="animable"></path><path d="M364.88,354.1c0-.17-.3-.11-.29,0A19.81,19.81,0,0,1,360,366.88c-3.41,3.94-8.44,6.15-13,8.46-.44.22-.11.9.35.77a41.19,41.19,0,0,0,8.05-3.47,19.49,19.49,0,0,0,6-5A17.29,17.29,0,0,0,364.88,354.1Z" style="fill: rgb(38, 50, 56); transform-origin: 355.953px 365.06px;" id="el700nn5r82nv" class="animable"></path><path d="M409.59,349.14c-1-1.3-2.13-2.54-3.19-3.8-2.51-3-5-6-7.66-8.87-.25-.27-.74.11-.51.41,1.77,2.32,3.64,4.56,5.49,6.82q1.41,1.74,2.85,3.46a22,22,0,0,1,2.66,3.37c.69,1.29-.22,2.39-1.55,2.53a4.59,4.59,0,0,1-3.2-1.18c-2.08-1.59-3.71-3.87-5.44-5.81-1.06-1.19-2.11-2.38-3.19-3.56s-2.35-2.43-3.49-3.68c-.08-.08-.22,0-.15.13,1,1.36,1.91,2.78,2.91,4.15s2,2.72,3,4.06,2,2.51,3,3.73a12.29,12.29,0,0,0,3.06,2.74c1.91,1.12,5.22,1.36,6.23-1.1A3.48,3.48,0,0,0,409.59,349.14Z" style="fill: rgb(38, 50, 56); transform-origin: 401.373px 345.415px;" id="elh5ktuxxyapr" class="animable"></path><path d="M533.7,417.73c-7.68.15-15.34.59-23,.76s-15.22.2-22.83.13q-22.94-.21-45.82-1.78c-15.41-1.07-32-2.6-47.35-4.72-7.32-1-14.75-1.86-22-3.42a34.67,34.67,0,0,1-17.34-8.86c-9.92-9.62-13.77-23.76-15.36-37.27-.21-1.81-.38-3.62-.53-5.44,0-.13-.2-.12-.19,0,.9,13.85,3.05,28.29,11.76,39.43a34.59,34.59,0,0,0,14.19,11c6.86,2.75,14.47,3.39,21.71,4.37,15.37,2.09,32.06,3.7,47.52,4.9s31.15,2,46.75,2.19,31.22,0,46.8-.76q2.85-.13,5.7-.37C533.81,417.9,533.81,417.73,533.7,417.73Z" style="fill: rgb(38, 50, 56); transform-origin: 436.532px 388.062px;" id="elgri37evhxl8" class="animable"></path><path d="M485.33,358.81c-4.83-.71-9.65-1.41-14.51-1.91S461,356,456.1,355.53c-9.72-.82-19.46-1.56-29.2-2-5.53-.26-11.07-.28-16.6-.21-.18,0-.17.25,0,.27,9.74.88,19.49,1.5,29.24,2.14s19.46,1.51,29.17,2.43c5.51.53,11,.93,16.54,1.38C485.65,359.55,485.73,358.86,485.33,358.81Z" style="fill: rgb(38, 50, 56); transform-origin: 447.881px 356.413px;" id="elqjuij17d1pr" class="animable"></path><path d="M421.05,346.68a75,75,0,0,0-11.18,6,89.65,89.65,0,0,0-10.35,7.24c-.09.08,0,.19.12.15,3.79-1.76,7.44-3.95,11.05-6.06a103,103,0,0,0,10.59-6.8C421.52,347,421.37,346.55,421.05,346.68Z" style="fill: rgb(38, 50, 56); transform-origin: 410.441px 353.368px;" id="elpb9w4wk2wd8" class="animable"></path><path d="M407.49,336.72s-72.82,30.53-75.74,30.06c0,0-.88-39.38,3.6-71.73,4.79-34.65,23.73-30.33,30.94-26.76,8.55,4.23,28.06,23.26,30.17,27.37,3.48,6.78-.53,16.46-.53,16.46Z" style="fill: rgb(219, 219, 219); transform-origin: 369.585px 316.36px;" id="eldc8l8uds09p" class="animable"></path><path d="M397.46,297.24a21.31,21.31,0,0,0-4-6c-1.76-2-3.62-3.86-5.52-5.69l-.19-.19h0c-.15-.25-.3-.49-.46-.73-.29-.44-.61-.88-.93-1.3-.68-.87-1.44-1.69-2.2-2.49-.05-.05-.14,0-.1.07.67.92,1.35,1.85,2.06,2.74l.41.53a73.37,73.37,0,0,0-5.56-4.87c-.05,0-.14,0-.09.09,3.59,3.74,7.34,7.32,10.8,11.19a28.38,28.38,0,0,1,4.21,5.73,14.11,14.11,0,0,1,1.54,7.27,25.42,25.42,0,0,1-.61,4.26c-.32,1.44-.59,2.92-.94,4.35a.1.1,0,0,0,.19.06,34.14,34.14,0,0,0,2.2-7.54A14.64,14.64,0,0,0,397.46,297.24Z" style="fill: rgb(38, 50, 56); transform-origin: 389.652px 295.816px;" id="el0pk75fb78lyh" class="animable"></path><path d="M367.89,315.71a69.59,69.59,0,0,1,9.9-1.85c1.67-.16,3.33-.24,5-.29.84,0,1.66-.07,2.49-.13a10.7,10.7,0,0,0,2.58-.42.06.06,0,0,1,0,.12,14.89,14.89,0,0,1-4.69,1.18c-1.69.18-3.38.28-5.07.44-3.4.32-6.8.65-10.17,1.22C367.79,316,367.74,315.75,367.89,315.71Z" style="fill: rgb(38, 50, 56); transform-origin: 377.859px 314.501px;" id="ell7vsclanwz" class="animable"></path><path d="M361.12,321.31a74.33,74.33,0,0,1,7.67-3.2c1.31-.46,2.64-.83,4-1.18l1.94-.46c.71-.16,1.44-.22,2.15-.39.07,0,.11.09,0,.11-.66.18-1.3.47-1.95.69l-2,.65c-1.31.44-2.62.9-3.93,1.32-2.64.85-5.25,1.73-7.85,2.67C361.06,321.58,361,321.37,361.12,321.31Z" style="fill: rgb(38, 50, 56); transform-origin: 369.001px 318.805px;" id="el0uputh9u7vm" class="animable"></path><path d="M382.34,297.5c-.72,4.62-4.24,11.29-8.34,15.25-5.57-1.22-12.06-5.06-15.11-8.61-4.64-5.42-5-12.69-1.37-15.12,5.35-3.6,9.76,2.69,11.31,5.48-.14-3.19.32-10.86,6.76-10.59C379.92,284.09,383.46,290.45,382.34,297.5Z" style="fill: rgb(255, 255, 255); transform-origin: 368.809px 298.327px;" id="elph3hdj66h4o" class="animable"></path><path d="M364.71,304.12l-1.4-5a.46.46,0,0,1,.3-.59h0l1.1-.31a1.62,1.62,0,0,1,2,1.18,1.78,1.78,0,0,1,0,1.05,1.88,1.88,0,0,1,1.23,1.29,1.83,1.83,0,0,1-1.18,2.3l-1.41.39h0A.47.47,0,0,1,364.71,304.12Zm0-3.4.68-.19a.69.69,0,0,0,.44-.86.68.68,0,0,0-.82-.49l-.68.19Zm.76,2.68,1-.28A.89.89,0,0,0,367,302a.87.87,0,0,0-1.06-.63l-1,.28Z" style="fill: rgb(219, 219, 219); transform-origin: 365.656px 301.316px;" id="eljhs3nocmanc" class="animable"></path><path d="M369.43,302.79l-1.41-5a.47.47,0,0,1,.3-.59h0l2.57-.73a.49.49,0,0,1,.26.94L369,298l.44,1.54,1.85-.52a.48.48,0,0,1,.26.93l-1.84.53.57,2a.48.48,0,0,1-.31.59A.47.47,0,0,1,369.43,302.79Z" style="fill: rgb(219, 219, 219); transform-origin: 369.95px 299.772px;" id="el4rzx1cpd7n" class="animable"></path><path d="M374.23,301.43l-1.41-5a.47.47,0,0,1,.31-.59h0l2.57-.73a.49.49,0,0,1,.26.94l-2.15.61.44,1.54,1.85-.52a.49.49,0,0,1,.27.93l-1.85.53.57,2a.48.48,0,0,1-.31.59A.47.47,0,0,1,374.23,301.43Z" style="fill: rgb(219, 219, 219); transform-origin: 374.726px 298.423px;" id="elfet5xqjy5ld" class="animable"></path><path d="M345.74,281.53c-10.34,8.25-43.21,31.92-59.48,29.79-10.75-1.41-38-9.4-46.7-13-3.56-1.48,15.73-34.62,19.74-33.11,7.44,2.81,29.89,13.93,34.58,14.11,4.19.17,19.56-4.27,46-10.93C353.5,264.93,354.67,274.4,345.74,281.53Z" style="fill: rgb(235, 148, 129); transform-origin: 295.298px 288.307px;" id="elq2w9eht9uvd" class="animable"></path><path d="M240.78,298.59c-3.91-.87-21.48-6.42-26-9.06s-17.07-11.18-15.4-14.86,5.54-1.48,5.54-1.48-4.72-4.44-2.71-8,7.92.08,7.92.08-4.51-4.92-2.24-8.32,7.58,1.24,7.58,1.24-4.33-4.3-1.28-6.32c3.66-2.43,10.75,6.41,16,8.94,1.19.58,24.92,10,24.92,10Z" style="fill: rgb(235, 148, 129); transform-origin: 227.169px 275.021px;" id="elzzonkmlke1m" class="animable"></path><path d="M215,257.8c5.23,6.49,8.64,8.42,16.41,11.07.15.05.11.29-.06.25-7.84-1.91-12.46-3.71-16.68-11.08C214.46,257.68,214.74,257.49,215,257.8Z" style="fill: rgb(38, 50, 56); transform-origin: 223.05px 263.384px;" id="el6yidvekiapb" class="animable"></path><path d="M209.71,264.74c6,6.27,9.7,8.39,17.63,11.77.11,0,0,.24-.08.2-8-2.66-12.63-4.57-17.82-11.61C209.2,264.78,209.43,264.46,209.71,264.74Z" style="fill: rgb(38, 50, 56); transform-origin: 218.363px 270.674px;" id="eltokeksiog6" class="animable"></path><path d="M205.3,273.35c6.27,5.64,10.21,8.15,18.33,10.43a.16.16,0,0,1-.07.31c-8.5-1.53-13.44-4.62-18.41-10.53C204.81,273.15,204.91,273,205.3,273.35Z" style="fill: rgb(38, 50, 56); transform-origin: 214.34px 278.623px;" id="elkf43fd3tjbk" class="animable"></path><path d="M259.3,265.17s-6.93-7.8-10.74-10.56-21.76-7.81-23.07-4c-1.69,4.92,8.1,9.88,13.21,11.69,0,0-3.93,11.39,2.33,16.47S259.3,265.17,259.3,265.17Z" style="fill: rgb(235, 148, 129); transform-origin: 242.298px 264.442px;" id="el4f62xnbuvsy" class="animable"></path><path d="M225.47,252.12c1.7,5.61,8.56,7.54,13.39,9.66a.48.48,0,0,1,.19.77c-1.33,4.89-1.78,12.17,1.65,16.26.1.12-.06.28-.17.18-4.28-3.9-4.42-11.09-2.62-16.34-5-2.1-11.79-4.34-12.49-10.51A0,0,0,1,1,225.47,252.12Z" style="fill: rgb(38, 50, 56); transform-origin: 233.076px 265.571px;" id="elaj5okuxa8g8" class="animable"></path><path d="M308,274.27l15.65,26.2s17.46-10.66,26-20.29,3.45-14.74-9-13.21S308,274.27,308,274.27Z" style="fill: rgb(199, 199, 199); transform-origin: 330.94px 283.586px;" id="elhtskk85ayb7" class="animable"></path><path d="M327.52,296.3c-2.18-4.2-8.43-15.41-13.49-22.14,0,0-.21.06-.19.11,3.32,6.25,10.87,18.2,13.42,22.19C327.31,296.53,327.56,296.38,327.52,296.3Z" style="fill: rgb(38, 50, 56); transform-origin: 320.681px 285.319px;" id="elrsw00lcjeo" class="animable"></path><path d="M338.71,291.41a0,0,0,0,0,0-.07c-1,.44-2,.93-3,1.44,1.81-1.41,3.58-2.88,5.32-4.37.06-.05,0-.14-.08-.1-5.69,3.9-11.48,7.67-17.08,11.69-.55-.49-1.09-1-1.59-1.53a.1.1,0,0,0-.15.12c.49.65.94,1.34,1.37,2,.1.15.3.3.49.18a97.64,97.64,0,0,0,10-6.73c.62-.28,1.23-.56,1.81-.87A24.37,24.37,0,0,0,338.71,291.41Z" style="fill: rgb(38, 50, 56); transform-origin: 331.588px 294.557px;" id="elaeqm5lujdhn" class="animable"></path><path d="M354.12,270.42c.78,1.26,6.76,9.72,12.94,7.33,2-.78,1.78-13.68,1.78-13.68l-.09-.89-1.27-12.43L351,246.57l-2.35-.5s.58,3.38,1.33,7.58c0,.19.07.39.11.6s.07.46.11.68c.11.63.22,1.27.34,1.91.09.48.18,1,.29,1.46s.21,1,.31,1.51A82.3,82.3,0,0,0,354.12,270.42Z" style="fill: rgb(235, 148, 129); transform-origin: 358.749px 262.122px;" id="elmdodakr20dj" class="animable"></path><path d="M368.39,259.64c-6.08,3.5-13.08,3.62-16.49,3.41-.26-1.05-.53-2.14-.77-3.23-.11-.51-.22-1-.32-1.52s-.2-1-.29-1.46-.23-1.28-.34-1.9c0-.23-.07-.46-.12-.7s-.07-.4-.1-.59c-.75-4.2-1.33-7.58-1.33-7.58l2.35.5,16.5,4.18Z" style="fill: rgb(38, 50, 56); transform-origin: 358.51px 254.592px;" id="elq8ube10o0z" class="animable"></path><path d="M333,235.26c-3.69,21.62,8.84,26.27,13.5,27.06,4.23.72,18.73,2.62,24.64-18.5s-3-29.67-12.58-31.82S336.73,213.64,333,235.26Z" style="fill: rgb(235, 148, 129); transform-origin: 352.685px 237.091px;" id="eljp5tqfva37" class="animable"></path><path d="M337.56,232.53a12.66,12.66,0,0,0,1.51-.15,2.47,2.47,0,0,0,1.52-.44.8.8,0,0,0,.1-1,1.93,1.93,0,0,0-1.85-.66,2.91,2.91,0,0,0-1.9.81A.84.84,0,0,0,337.56,232.53Z" style="fill: rgb(38, 50, 56); transform-origin: 338.754px 231.388px;" id="elk1nh043eplb" class="animable"></path><path d="M352,234.2a14.48,14.48,0,0,1-1.45-.48,2.43,2.43,0,0,1-1.38-.76.78.78,0,0,1,.1-1,1.94,1.94,0,0,1,2-.25,2.87,2.87,0,0,1,1.67,1.2A.84.84,0,0,1,352,234.2Z" style="fill: rgb(38, 50, 56); transform-origin: 351.066px 232.89px;" id="elikeyqwjt4bf" class="animable"></path><path d="M351.28,240.05a1.53,1.53,0,0,0,.35.4,1,1,0,0,0,.8.24c.88-.12,1.23-1.06,1.26-2,0-.07,0-.11-.07-.06-.36.47-.77,1-1.29.9a1.82,1.82,0,0,1-.91-.6A4.77,4.77,0,0,1,351.28,240.05Z" style="fill: rgb(38, 50, 56); transform-origin: 352.485px 239.654px;" id="elqpjzvjksm9p" class="animable"></path><path d="M351.64,239.81a2.28,2.28,0,0,0-.38-1.16,1.68,1.68,0,0,0-1.15-.66,1.48,1.48,0,0,0-1.25.49,2.76,2.76,0,0,0-.56,1.07,6,6,0,0,0-.12.72,3.13,3.13,0,0,0,.18,1.49,4.77,4.77,0,0,1,.16-1.08,6.92,6.92,0,0,1,.32-.94c.27-.61.7-1.11,1.2-1s.89.52,1,1.18a10,10,0,0,1,.19,2.09A4.7,4.7,0,0,0,351.64,239.81Z" style="fill: rgb(38, 50, 56); transform-origin: 349.902px 239.997px;" id="elvy9dc7g9ty" class="animable"></path><path d="M337,238.28a1.42,1.42,0,0,1-.46.26,1,1,0,0,1-.83,0c-.8-.4-.83-1.4-.56-2.26,0-.07.06-.09.08,0,.19.56.42,1.16.93,1.26a1.83,1.83,0,0,0,1.06-.27A4.43,4.43,0,0,0,337,238.28Z" style="fill: rgb(38, 50, 56); transform-origin: 336.108px 237.425px;" id="el7cqbujsygb6" class="animable"></path><path d="M336.77,237.94a2.28,2.28,0,0,1,.73-1,1.68,1.68,0,0,1,1.31-.26,1.52,1.52,0,0,1,1,.87,2.69,2.69,0,0,1,.18,1.2,5.52,5.52,0,0,1-.11.71,3.37,3.37,0,0,1-.65,1.36,4.54,4.54,0,0,0,.19-1.08,5.46,5.46,0,0,0,0-1c-.05-.67-.3-1.27-.81-1.36s-1,.21-1.36.79a9.88,9.88,0,0,0-.85,1.92A4.58,4.58,0,0,1,336.77,237.94Z" style="fill: rgb(38, 50, 56); transform-origin: 338.194px 238.731px;" id="eldvvd0n59y6" class="animable"></path><path d="M347.43,251.33c-.38.33-.76.8-1.3.82a3.93,3.93,0,0,1-1.6-.46.06.06,0,0,0-.07.08,2,2,0,0,0,1.87.9,1.58,1.58,0,0,0,1.24-1.27C347.6,251.32,347.49,251.28,347.43,251.33Z" style="fill: rgb(38, 50, 56); transform-origin: 346.016px 251.994px;" id="el0kxy2sm0nynk" class="animable"></path><path d="M341.76,245.27s-.55,2.2-.66,3.25c0,.1.24.17.6.23,0,0,0,0,0,0a5,5,0,0,0,5.05-1.36c.09-.09,0-.22-.14-.16a7.62,7.62,0,0,1-4.7.83c-.05-.3,1.05-3.74.89-3.77a9.12,9.12,0,0,0-2.45.29c1-4.61,2.73-9,3.66-13.63a.15.15,0,0,0-.27-.1c-2.14,4.5-3.41,9.78-4.56,14.52C339.07,246,341.32,245.4,341.76,245.27Z" style="fill: rgb(38, 50, 56); transform-origin: 342.981px 239.872px;" id="elfglzf7m2qqv" class="animable"></path><path d="M341.79,248a6.2,6.2,0,0,0,2,2.38,2.76,2.76,0,0,0,1.61.45c1.25-.05,1.52-1.13,1.5-2.11a6.7,6.7,0,0,0-.22-1.54A7.91,7.91,0,0,1,341.79,248Z" style="fill: rgb(38, 50, 56); transform-origin: 344.346px 249.006px;" id="el13fl4jp53dqj" class="animable"></path><path d="M343.79,250.42a2.76,2.76,0,0,0,1.61.45c1.25-.05,1.52-1.13,1.5-2.11A2.85,2.85,0,0,0,343.79,250.42Z" style="fill: rgb(255, 155, 188); transform-origin: 345.346px 249.794px;" id="elrfm9k8k3598" class="animable"></path><path d="M369.86,244.6c-3.59-.18-3.45-7.72-3.45-7.72s-7.21-.9-8.26-11.57a16.14,16.14,0,0,0,2.09,9s-12.53-3-16.52-14.3c0,0,1.44,5.69,3.19,7.87,0,0-5.14-2.17-7.18-6.83,0,0-3,5.85-5,7.33,0,0,3.38-22.17,23.68-17.17,0,0,12.79,2.51,16.12,13.32S369.86,244.6,369.86,244.6Z" style="fill: rgb(38, 50, 56); transform-origin: 355.036px 227.538px;" id="elq8p5larxvnj" class="animable"></path><path d="M367.46,244.9s5.33-6.43,8.29-4.47S374.3,252,370.55,253a3.72,3.72,0,0,1-4.79-2.4Z" style="fill: rgb(235, 148, 129); transform-origin: 371.24px 246.635px;" id="el0x7h8my6t34" class="animable"></path><path d="M374.42,243.15c.06,0,.06.08,0,.09-2.64.83-4.17,3.08-5.31,5.45a2,2,0,0,1,3.09-.31.08.08,0,0,1-.08.13,2.27,2.27,0,0,0-2.56.59A11,11,0,0,0,368.2,251c-.14.21-.54.06-.43-.2l0-.05C368,247.52,370.9,243.18,374.42,243.15Z" style="fill: rgb(38, 50, 56); transform-origin: 371.108px 247.125px;" id="el7zelt9h2uf3" class="animable"></path></g><g id="freepik--character-1--inject-22" class="animable" style="transform-origin: 212.318px 310.388px;"><path d="M77.53,411.88c3.13,1.17,96.22,3.74,99.73,1.65.42-.24,1.22-20.18,1.22-20.18a635.59,635.59,0,0,0,27.1-64.86l-59.29-2.57-26.42,55.93s-13.46,5.53-24.58,10.39l0,0c-6.84,3-12.81,5.72-14.19,6.75C77.48,401.71,74.4,410.73,77.53,411.88Z" style="fill: rgb(173, 99, 89); transform-origin: 140.908px 370.122px;" id="elilis7csmpqs" class="animable"></path><path d="M77.53,411.88c3.13,1.17,96.22,3.74,99.73,1.65.42-.24.84-8.64,1.22-20.18-23.21,4.15-84.83,9.82-86.42,4.92-.63-1.95.92-4.08,3.2-6-6.84,3-12.81,5.72-14.19,6.75C77.48,401.71,74.4,410.73,77.53,411.88Z" style="fill: rgb(38, 50, 56); transform-origin: 127.357px 403.297px;" id="elv2wt0qnlt4" class="animable"></path><path d="M181.64,388.08l-58.41-13.34s-.21-10,3.86-18c10.19-20,33.59-53.66,51.38-75.67,13.54-16.76,40-19.62,54.23,2.79,19,29.94,46.88,65.94,55.34,81.49l14.68,1.26-3.17,24-48.78,10.93c-18.68,2.23-44.28-61-44.58-60.42-1.1,2-14.09,32.85-16.8,37.81A30.51,30.51,0,0,1,181.64,388.08Z" style="fill: rgb(69, 90, 100); transform-origin: 212.974px 334.687px;" id="elv6baf6arri" class="animable"></path><path d="M203.7,346.69c-4.19,9.62-12.24,28.47-14.31,32.26a30.55,30.55,0,0,1-7.75,9.13l-58.41-13.34a45.56,45.56,0,0,1,.65-7.62Z" style="fill: rgb(55, 71, 79); transform-origin: 163.465px 367.385px;" id="elyrix6mb7b4" class="animable"></path><path d="M195.28,362.58c1.84-3.77,3.27-7.77,4.91-11.64s3.17-7.46,4.74-11.2c3.18-7.56,6.47-15.09,9.54-22.68,1.73-4.27,3.32-8.59,4.93-12.9,0-.1.2-.06.17,0q-1.87,6.1-3.91,12.17c.36-.7.72-1.4,1.1-2.07,1-1.86,2.11-3.7,3.19-5.53,0-.07.14,0,.1.07-1,1.84-2,3.68-3,5.5-.51.91-1.08,1.8-1.62,2.71A284.93,284.93,0,0,1,202,350.22c-2.06,4.22-4.47,8.26-6.52,12.48C195.41,362.83,195.21,362.71,195.28,362.58Z" style="fill: rgb(38, 50, 56); transform-origin: 207.661px 333.428px;" id="eljr8id4w4mq" class="animable"></path><path d="M180.77,372.13c3.12-4.81,10.55-19.38,13.21-24.42,5.38-10.19,10.31-20.59,15-31.13,2.63-5.95,5.09-12,7.53-18,0,0,.08,0,.06,0a339.88,339.88,0,0,1-12.77,32C199,341,183.72,369.21,181,372.25,180.87,372.36,180.69,372.26,180.77,372.13Z" style="fill: rgb(38, 50, 56); transform-origin: 198.662px 335.439px;" id="elixf31pzjd8j" class="animable"></path><path d="M226.06,295.15c5.58,10,28.82,42.2,34.42,52.15,2.83,5,6.67,10,9.47,15.07,1.32,2.37,2.6,4.77,4,7.12a13.36,13.36,0,0,0,5.11,5.3,39.39,39.39,0,0,0,8.11,2.83c3.15.92,6.28,1.91,9.44,2.78a.12.12,0,0,1-.07.22c-2.82-.75-5.66-1.4-8.5-2.1a73.72,73.72,0,0,1-7.71-2.08,12.5,12.5,0,0,1-5.72-3.95,46.47,46.47,0,0,1-4-6.68C265,355.58,226,295.12,226.06,295.15Z" style="fill: rgb(38, 50, 56); transform-origin: 261.362px 337.885px;" id="ellj2tvbjs7sd" class="animable"></path><path d="M188.37,377.19c-3.8-1-7.73-1.68-11.59-2.5s-7.73-1.65-11.59-2.49c-7.71-1.66-33.89-8.07-35.84-8.9-.12-.05-.06-.26.07-.25,1.9.1,19.08,3.84,22.93,4.74,7.7,1.79,15.33,3.81,23,5.76,2.19.56,4.36,1.16,6.55,1.74s4.35,1.23,6.55,1.7A.1.1,0,1,1,188.37,377.19Z" style="fill: rgb(38, 50, 56); transform-origin: 158.901px 370.124px;" id="eldvnt2er7t9m" class="animable"></path><path d="M336.66,355.11S343.6,395.2,323.55,411,156.66,424.8,134.37,417.6s-23-43.16,1.38-51.49c23.17-7.92,121.74-11.78,124.17-12.75.61-.24-8.74-5.84-8.7-6.19l22.43-6.85Z" style="fill: rgb(69, 90, 100); transform-origin: 227.69px 381.666px;" id="elfsdibi5572" class="animable"></path><path d="M306.24,354.1c0-.17.29-.11.29,0a19.75,19.75,0,0,0,4.64,12.73c3.41,3.94,8.44,6.15,13,8.46.44.22.11.9-.35.77a40.67,40.67,0,0,1-8.05-3.47,19.37,19.37,0,0,1-6-5A17.25,17.25,0,0,1,306.24,354.1Z" style="fill: rgb(38, 50, 56); transform-origin: 315.198px 365.035px;" id="elrqbz9cumfa" class="animable"></path><path d="M261.53,349.14c1-1.3,2.13-2.54,3.19-3.8,2.51-3,5-6,7.66-8.87.25-.27.74.11.51.41-1.77,2.32-3.65,4.56-5.49,6.82l-2.85,3.46a21.42,21.42,0,0,0-2.66,3.37c-.69,1.29.21,2.39,1.55,2.53a4.59,4.59,0,0,0,3.2-1.18c2.08-1.59,3.71-3.87,5.44-5.81q1.57-1.79,3.18-3.56c1.15-1.24,2.36-2.43,3.5-3.68.07-.08.22,0,.15.13-1,1.36-1.91,2.78-2.91,4.15s-2,2.72-3,4.06-2,2.51-3,3.73a12.29,12.29,0,0,1-3.06,2.74c-1.91,1.12-5.22,1.36-6.23-1.1A3.46,3.46,0,0,1,261.53,349.14Z" style="fill: rgb(38, 50, 56); transform-origin: 269.745px 345.415px;" id="eli2roaeyfwco" class="animable"></path><path d="M137.42,417.73c7.67.15,15.34.59,23,.76s15.23.2,22.84.13q22.92-.21,45.82-1.78c15.41-1.07,32-2.6,47.34-4.72,7.33-1,14.76-1.86,22-3.42a34.66,34.66,0,0,0,17.35-8.86c9.92-9.62,13.77-23.76,15.35-37.27.22-1.81.39-3.62.54-5.44a.1.1,0,0,1,.19,0c-.9,13.85-3.05,28.29-11.77,39.43a34.47,34.47,0,0,1-14.19,11c-6.85,2.75-14.46,3.39-21.7,4.37-15.37,2.09-32.06,3.7-47.52,4.9s-31.15,2-46.76,2.19-31.21,0-46.79-.76c-1.91-.09-3.8-.21-5.7-.37C137.31,417.9,137.31,417.73,137.42,417.73Z" style="fill: rgb(38, 50, 56); transform-origin: 234.594px 388.075px;" id="el6sm08wno65p" class="animable"></path><path d="M185.79,358.81c4.83-.71,9.65-1.41,14.51-1.91s9.81-.95,14.72-1.37c9.72-.82,19.46-1.56,29.2-2,5.53-.26,11.06-.28,16.6-.21.18,0,.17.25,0,.27-9.74.88-19.49,1.5-29.24,2.14s-19.46,1.51-29.17,2.43c-5.51.53-11,.93-16.54,1.38C185.47,359.55,185.39,358.86,185.79,358.81Z" style="fill: rgb(38, 50, 56); transform-origin: 223.239px 356.413px;" id="elzrne1zyeyfb" class="animable"></path><path d="M250.07,346.68a75.54,75.54,0,0,1,11.18,6,89.65,89.65,0,0,1,10.35,7.24c.09.08,0,.19-.12.15-3.8-1.76-7.44-3.95-11.05-6.06a103,103,0,0,1-10.59-6.8C249.6,347,249.75,346.55,250.07,346.68Z" style="fill: rgb(38, 50, 56); transform-origin: 260.679px 353.368px;" id="elyf3cgoeuebb" class="animable"></path><path d="M300.79,280.21c-12.85,6.1-77.82,22.08-101.37,1.25-8-7.08,18.82-40.22,61-60.71,1.25-.6,23.29,22.95,18.37,28.85-.53.63-16.78,12.06-16.78,12.06s12.81,2.11,35.67,6.88C308.51,270.79,308.47,276.57,300.79,280.21Z" style="fill: rgb(173, 99, 89); transform-origin: 252.117px 256.284px;" id="el5rv82n44xea" class="animable"></path><path d="M253.18,225s11.36-7.82,21.67-9.31c7.13-1,17.74-3.3,31.2,13.47,3.19,4,5.1,15.28.95,15.91-3.95.6-4.49-10.1-10-14.81,0,0,1.24,10-2.87,13.06a93.08,93.08,0,0,1-11.3,7.19,20.29,20.29,0,0,1-1.54-2s-3.93,2.73-11.1,1.36Z" style="fill: rgb(173, 99, 89); transform-origin: 281.279px 232.749px;" id="el8gczi3d7r3g" class="animable"></path><path d="M281.82,215.79c3.17,2.05,9.81,6.51,14,12.05,4.63,6.15,11.89,19.25,7.31,22.62-3.36,2.47-6.57-2.29-6.57-2.29s1.86,6.05-1.66,7.62c-3.21,1.43-5.47-2.4-5.47-2.4s.49,3.86-2.86,4.64c-4,.94-5.1-9.49-10-12.07C275.44,245.38,281.82,215.79,281.82,215.79Z" style="fill: rgb(173, 99, 89); transform-origin: 290.512px 236.94px;" id="elu2xdoy87f1f" class="animable"></path><path d="M288.48,231.64A30.69,30.69,0,0,1,296.61,248c0,.15-.09.25-.14.11a75.55,75.55,0,0,0-8.05-16.45S288.45,231.62,288.48,231.64Z" style="fill: rgb(38, 50, 56); transform-origin: 292.515px 239.906px;" id="elra8fldv8p4g" class="animable"></path><path d="M295.88,227A30.65,30.65,0,0,1,304,243.4c0,.15-.09.25-.14.11a75.55,75.55,0,0,0-8.05-16.45S295.85,227,295.88,227Z" style="fill: rgb(38, 50, 56); transform-origin: 299.905px 235.289px;" id="elqg9nahrcrid" class="animable"></path><path d="M282.41,236.5c2.08,2.32,6.54,9.79,7.13,16.84,0,.15-.1.24-.14.1a81.46,81.46,0,0,0-7-16.9S282.38,236.47,282.41,236.5Z" style="fill: rgb(38, 50, 56); transform-origin: 285.967px 245.001px;" id="el95gltyi2b7" class="animable"></path><path d="M280,249.5c0-.66-2.15-4.61-5.8-6.86-.08-.06-.18.06-.11.14,1.73,1.85,3.08,3.45,3.11,3.49-4.75,1.37-10.24-.48-12.47-1.46-.14-.06-.23.16-.11.24,3.6,2.51,8.77,3.56,12.78,1.48.35.46,2.18,2.83,2.48,3C279.94,249.59,280,249.56,280,249.5Z" style="fill: rgb(38, 50, 56); transform-origin: 272.282px 246.093px;" id="eln751tgv85t" class="animable"></path><path d="M262,261.66q-12.81,9.13-26,17.68-3.69,2.37-7.36,4.78c-.09.05,0,.19.1.15a150.39,150.39,0,0,0,13.68-7.82c4.37-2.8,8.74-5.73,12.82-8.95,2.35-1.86,4.66-3.74,6.93-5.69C262.25,261.73,262.13,261.59,262,261.66Z" style="fill: rgb(38, 50, 56); transform-origin: 245.399px 272.959px;" id="ela2jua0lswk" class="animable"></path><path d="M247.48,293.06l15.24-31.89a209.19,209.19,0,0,1,32.12,5.27c16.61,4.18,17.33,12.76,1.31,17.66C275.05,290.54,247.48,293.06,247.48,293.06Z" style="fill: rgb(255, 199, 39); transform-origin: 277.612px 277.115px;" id="elns0yxqhlfja" class="animable"></path><path d="M268.8,263.19c-1.71,4.65-3.86,9.16-6,13.64s-4.34,8.83-6.78,13.09c0,.08-.18,0-.15-.07,2-4.57,4-9.07,6.2-13.54s4.18-8.9,6.54-13.2A.09.09,0,0,1,268.8,263.19Z" style="fill: rgb(38, 50, 56); transform-origin: 262.337px 276.5px;" id="eld1wt0si8rwu" class="animable"></path><g id="ell5ubvulzkya"><path d="M247.49,293.05s27.55-2.51,48.66-8.95a32.73,32.73,0,0,0,6.9-2.88l-47.83-4.34Z" style="opacity: 0.1; transform-origin: 275.27px 284.965px;" class="animable"></path></g><path d="M258.83,350.41l79.8,15.72s-7.89-70.76-21.21-91.25c-6.06-9.33-13.59-9.41-20.7-5.37-1.78,1-25.18,22.55-28.31,30.74-2.77,7.24,1.75,16,1.75,16Z" style="fill: rgb(255, 199, 39); transform-origin: 298.73px 316.549px;" id="elwadhpo69n5k" class="animable"></path><path d="M292.89,320.49a67.71,67.71,0,0,0-9.9-1.85c-1.66-.16-3.32-.24-5-.29-.83,0-1.66-.07-2.49-.13a10.7,10.7,0,0,1-2.57-.42.06.06,0,0,0,0,.12,18.93,18.93,0,0,0,2.34.79,18.73,18.73,0,0,0,2.36.39c1.68.18,3.38.28,5.06.44,3.41.32,6.81.65,10.18,1.22C293,320.79,293.05,320.53,292.89,320.49Z" style="fill: rgb(38, 50, 56); transform-origin: 282.93px 319.281px;" id="elpepn0ldjxd" class="animable"></path><path d="M299.66,326.09a72.53,72.53,0,0,0-7.67-3.2c-1.31-.46-2.63-.83-4-1.18l-1.93-.46c-.71-.16-1.45-.22-2.15-.39-.08,0-.12.09,0,.11.66.18,1.3.47,1.95.69l2,.65c1.31.44,2.61.89,3.93,1.32,2.63.85,5.25,1.73,7.85,2.67C299.73,326.36,299.79,326.15,299.66,326.09Z" style="fill: rgb(38, 50, 56); transform-origin: 291.785px 323.585px;" id="el39nc0vlictp" class="animable"></path><path d="M297.48,307.07c-2.94,3.55-9.08,7.41-14.27,8.67A30.26,30.26,0,0,1,276,300.65c-.77-7,2.73-13.34,6.74-13.56,6-.31,6.12,7.31,5.87,10.47,1.53-2.78,5.84-9.06,10.65-5.53C302.54,294.42,302,301.65,297.48,307.07Z" style="fill: rgb(255, 255, 255); transform-origin: 288.626px 301.41px;" id="el3jkx18wbiow" class="animable"></path><path d="M280.52,303.63l1.49-4.95a.44.44,0,0,1,.53-.34h0l1,.3a1.55,1.55,0,0,1,.9,2,1.76,1.76,0,0,1-.56.88,2,2,0,0,1,.28,1.73,1.76,1.76,0,0,1-2.09,1.34l-1.29-.38h0A.47.47,0,0,1,280.52,303.63Zm1.75-2.9.62.19a.66.66,0,0,0,.78-.51.64.64,0,0,0-.38-.83l-.62-.19Zm-.8,2.67.91.27a.91.91,0,0,0,.52-1.73l-.91-.28Z" style="fill: rgb(255, 199, 39); transform-origin: 282.518px 301.479px;" id="el9qkv3zroewe" class="animable"></path><path d="M284.83,304.92l1.48-4.95a.46.46,0,0,1,.54-.34h0l2.35.71a.49.49,0,0,1-.27.93l-2-.59-.46,1.54,1.69.5a.47.47,0,0,1,.26.58.46.46,0,0,1-.54.35l-1.69-.5-.6,2a.43.43,0,1,1-.81-.24Z" style="fill: rgb(255, 199, 39); transform-origin: 287.107px 302.579px;" id="el2aipoiqmins" class="animable"></path><path d="M289.22,306.23l1.48-5a.46.46,0,0,1,.54-.34h0l2.35.7a.46.46,0,0,1,.26.58.46.46,0,0,1-.54.35l-2-.59-.46,1.54,1.69.5a.47.47,0,0,1,.26.59.46.46,0,0,1-.54.35l-1.69-.51-.6,2a.43.43,0,1,1-.81-.24Z" style="fill: rgb(255, 199, 39); transform-origin: 291.494px 303.834px;" id="elpbj0kywbktc" class="animable"></path><path d="M318.53,278c12.9,19.39,37.12,65,27.78,74.3-15.36,15.32-58.6,31.42-69.61,33.51-4.8.91-17.79-36.72-12.77-38.16,7-2,49.65-15,49.7-18.18,0-1.82-3.13-17.2-5.38-36.84C305.63,269.87,312.37,268.8,318.53,278Z" style="fill: rgb(173, 99, 89); transform-origin: 305.599px 329.205px;" id="elutl1es5oy7" class="animable"></path><path d="M266.72,347.2s-15.71,1.7-25.94,3.29c-5.7.89-15.34,3.28-19.23,5.85-5.82,3.84-27.71,23.63-23,29,4.24,4.9,20.89-14.49,20.89-14.49s-18.53,18.08-12.34,23,22.08-19.45,22.08-19.45-18.62,19-11.43,23.11c5.44,3.1,21.08-18.2,21.08-18.2s-15.89,16.45-10.44,19.88c6,3.79,21.7-15,21.7-15,15.32,6.39,25.23,3.16,32,0C283.7,383.58,266.72,347.2,266.72,347.2Z" style="fill: rgb(173, 99, 89); transform-origin: 240.044px 373.447px;" id="eljniidelpqe" class="animable"></path><path d="M225.41,364.23c-2.25,2-4.54,4.1-6.61,6.34s-4.05,4.54-5.9,7a52,52,0,0,0-6.28,10.11c3.49-6.17,10.75-14.29,12.82-16.53s4-4.57,6.06-6.81C225.55,364.25,225.47,364.18,225.41,364.23Z" style="fill: rgb(38, 50, 56); transform-origin: 216.068px 375.947px;" id="ely3wg6nz5glg" class="animable"></path><path d="M233.63,371.53c-2.76,2.74-5.61,5.35-8.25,8.21s-6.19,7-8.62,10c-.18.23.07.59.27.37,2.55-2.92,6.36-6.95,8.94-9.84s5.06-5.87,7.73-8.66C233.74,371.55,233.67,371.49,233.63,371.53Z" style="fill: rgb(38, 50, 56); transform-origin: 225.205px 380.848px;" id="elghlbvp1a2ya" class="animable"></path><path d="M241.81,376.54a86.84,86.84,0,0,0-11.66,13.51c-.17.24.07.24.26,0,3.79-4.57,6.74-8.17,11.54-13.37C242,376.61,241.9,376.45,241.81,376.54Z" style="fill: rgb(38, 50, 56); transform-origin: 236.028px 383.372px;" id="ellj4lnexm45" class="animable"></path><path d="M346.78,323.34l-33.54,5.4s-4.74-24.69-6.87-41.65,5.6-20.79,16-7.63C336,296.78,346.78,323.34,346.78,323.34Z" style="fill: rgb(255, 199, 39); transform-origin: 326.398px 300.157px;" id="elew5j7rdi9y6" class="animable"></path><path d="M313.49,322.56c4.78-1.32,9.69-2.23,14.56-3.12s9.7-1.65,14.58-2.16a.08.08,0,0,1,0,.16c-4.84,1.09-9.72,2-14.6,2.89s-9.67,1.81-14.54,2.41A.09.09,0,0,1,313.49,322.56Z" style="fill: rgb(38, 50, 56); transform-origin: 328.055px 320.01px;" id="elxnhl3b4tywd" class="animable"></path><path d="M312.23,326.78c-.17-.65-.34-1.3-.48-2-.62-2.85-1.19-5.7-1.72-8.57-.33-1.81-.62-3.63-.9-5.44-.65-1.89-1.32-3.76-1.89-5.67,0-.07.09-.11.11,0,.56,1.41,1.07,2.84,1.57,4.27q-.74-5.1-1.3-10.23c0-.05.07-.07.08,0,1,4.91,2,9.8,2.91,14.72.43,2.43.89,4.85,1.32,7.28.21,1.18.43,2.35.63,3.53.12.66.22,1.33.32,2,.05.36.07,2.2.79,2,.15,0,.24.2.1.26a.76.76,0,0,1-1-.16A7.56,7.56,0,0,1,312.23,326.78Z" style="fill: rgb(38, 50, 56); transform-origin: 310.54px 314.072px;" id="elygt8tk4rlc" class="animable"></path><path d="M273.74,345a2.95,2.95,0,1,1-2.84-3.05A3,3,0,0,1,273.74,345Z" style="fill: rgb(255, 199, 39); transform-origin: 270.791px 344.898px;" id="elmqdwszzl2sa" class="animable"></path><path d="M273.74,345a3.07,3.07,0,0,1-5.26,2,3.07,3.07,0,0,1,.16-4.46,3.07,3.07,0,0,1,5.1,2.42Zm0,0a3,3,0,0,0-.82-2.09,2.82,2.82,0,1,0-.14,4.11A3,3,0,0,0,273.74,345Z" style="fill: rgb(38, 50, 56); transform-origin: 270.67px 344.847px;" id="elyxomq76qqx" class="animable"></path><path d="M277.05,349.61a2.95,2.95,0,1,1-2.84-3A2.94,2.94,0,0,1,277.05,349.61Z" style="fill: rgb(255, 199, 39); transform-origin: 274.101px 349.558px;" id="elh7ahgokazzk" class="animable"></path><path d="M277.05,349.61a3.09,3.09,0,0,1-3.05,3,3.14,3.14,0,0,1-2.21-.92,3.07,3.07,0,0,1,.16-4.46,3.11,3.11,0,0,1,2.27-.76A3.08,3.08,0,0,1,277.05,349.61Zm0,0a2.91,2.91,0,0,0-.82-2.08,2.82,2.82,0,1,0-2.22,4.8,2.87,2.87,0,0,0,2.08-.69A2.94,2.94,0,0,0,277.05,349.61Z" style="fill: rgb(38, 50, 56); transform-origin: 273.979px 349.536px;" id="el194egqlfoc1" class="animable"></path><path d="M279.69,354.86a2.95,2.95,0,1,1-2.84-3.05A2.95,2.95,0,0,1,279.69,354.86Z" style="fill: rgb(255, 199, 39); transform-origin: 276.742px 354.758px;" id="elp0vr73zpoan" class="animable"></path><path d="M279.69,354.86a3.08,3.08,0,0,1-5.26,2.05,3.07,3.07,0,0,1,.16-4.46,3.07,3.07,0,0,1,5.1,2.41Zm0,0a2.91,2.91,0,0,0-.82-2.08,2.8,2.8,0,0,0-2-.84,2.82,2.82,0,0,0-.21,5.64,2.93,2.93,0,0,0,2.09-.69A3,3,0,0,0,279.69,354.86Z" style="fill: rgb(38, 50, 56); transform-origin: 276.62px 354.749px;" id="elu3cu239d8ep" class="animable"></path><path d="M282.1,360.23a2.94,2.94,0,1,1-2.84-3.05A3,3,0,0,1,282.1,360.23Z" style="fill: rgb(255, 199, 39); transform-origin: 279.161px 360.118px;" id="elvudqeiuxdkr" class="animable"></path><path d="M282.1,360.23a3.07,3.07,0,0,1-5.25,2A3.18,3.18,0,0,1,276,360a3.13,3.13,0,0,1,1-2.2,3.07,3.07,0,0,1,5.09,2.42Zm0,0a2.94,2.94,0,0,0-.81-2.09,2.82,2.82,0,0,0-4.82,1.89,2.82,2.82,0,0,0,4.67,2.22A2.94,2.94,0,0,0,282.1,360.23Z" style="fill: rgb(38, 50, 56); transform-origin: 279.05px 360.091px;" id="elp7499ibkdo9" class="animable"></path><path d="M285.21,365.25a2.95,2.95,0,1,1-2.84-3.05A3,3,0,0,1,285.21,365.25Z" style="fill: rgb(255, 199, 39); transform-origin: 282.261px 365.148px;" id="elde117fdof6t" class="animable"></path><path d="M285.21,365.25A3.07,3.07,0,0,1,280,367.3a3.07,3.07,0,0,1,.15-4.47,3.08,3.08,0,0,1,5.1,2.42Zm0,0a2.91,2.91,0,0,0-.82-2.09,2.82,2.82,0,1,0-.14,4.11A2.94,2.94,0,0,0,285.21,365.25Z" style="fill: rgb(38, 50, 56); transform-origin: 282.179px 365.123px;" id="ellkoise46ois" class="animable"></path><path d="M287.51,370.68a2.94,2.94,0,1,1-2.84-3.05A3,3,0,0,1,287.51,370.68Z" style="fill: rgb(255, 199, 39); transform-origin: 284.571px 370.568px;" id="ele22gv416y0t" class="animable"></path><path d="M287.51,370.68a3.07,3.07,0,0,1-3.05,3,3.12,3.12,0,0,1-2.2-.91,3.18,3.18,0,0,1-.88-2.27,3.13,3.13,0,0,1,1-2.2,3.07,3.07,0,0,1,5.09,2.42Zm0,0a2.94,2.94,0,0,0-.81-2.09,2.85,2.85,0,0,0-2-.83,2.82,2.82,0,1,0,1.88,4.94A2.94,2.94,0,0,0,287.51,370.68Z" style="fill: rgb(38, 50, 56); transform-origin: 284.445px 370.61px;" id="elx7l8ug76dw" class="animable"></path><path d="M289.11,376.3a2.94,2.94,0,1,1-2.83-3.05A2.93,2.93,0,0,1,289.11,376.3Z" style="fill: rgb(255, 199, 39); transform-origin: 286.172px 376.188px;" id="elanwl499o2se" class="animable"></path><path d="M289.11,376.3a3.06,3.06,0,0,1-5.25,2,3.07,3.07,0,0,1,.16-4.46,3.06,3.06,0,0,1,5.09,2.42Zm0,0a2.92,2.92,0,0,0-.81-2.09,2.86,2.86,0,0,0-2-.84,2.82,2.82,0,1,0,1.88,4.95A2.89,2.89,0,0,0,289.11,376.3Z" style="fill: rgb(38, 50, 56); transform-origin: 286.045px 376.146px;" id="el1os3s1w44fx" class="animable"></path><path d="M289.8,382.1a2.95,2.95,0,1,1-2.84-3.05A2.95,2.95,0,0,1,289.8,382.1Z" style="fill: rgb(255, 199, 39); transform-origin: 286.852px 381.998px;" id="els8xjznjtve" class="animable"></path><path d="M289.8,382.1a3.07,3.07,0,0,1-5.26,2,3.07,3.07,0,0,1,.16-4.46,3.07,3.07,0,0,1,5.1,2.42Zm0,0A3,3,0,0,0,289,380a2.82,2.82,0,1,0-.14,4.11A3,3,0,0,0,289.8,382.1Z" style="fill: rgb(38, 50, 56); transform-origin: 286.73px 381.947px;" id="elr8jn3frmwog" class="animable"></path><path d="M266.71,245.78a3.73,3.73,0,0,0,2.74,6.73,4,4,0,0,0,0,1.58,4.12,4.12,0,0,0,4.57,3.16,3.52,3.52,0,0,0,.05,1.33,3.75,3.75,0,0,0,4.5,2.8,3.63,3.63,0,0,0,2.09-1.33,3.74,3.74,0,0,0,4.41,2.49,3.66,3.66,0,0,0,1.42-.67c0,.11,0,.22.07.33a3.75,3.75,0,0,0,7.11.59,3.68,3.68,0,0,0,4.21,2.06,3.74,3.74,0,0,0,2.76-2.6,4.18,4.18,0,0,0,2.72.29,4,4,0,0,0,2.58-1.88,4.11,4.11,0,0,0,6.28-3.27,3.85,3.85,0,0,0,1.47,0,3.73,3.73,0,0,0,2.88-4,4.11,4.11,0,0,0,4.91-4.95,3.92,3.92,0,0,0-.52-1.24,3,3,0,0,0,.65-.08,3.76,3.76,0,0,0,2.81-4.49,3.71,3.71,0,0,0-1-1.78,4.1,4.1,0,0,0,2.71-4.83,4,4,0,0,0-1.1-2,4.13,4.13,0,0,0,1.75-4.38,4.07,4.07,0,0,0-2.29-2.81,3.72,3.72,0,0,0-1.28-5.39,4.11,4.11,0,0,0-2.84-6.73,3.74,3.74,0,0,0-4-4.68,3.78,3.78,0,0,0,0-1.77,4.12,4.12,0,0,0-4.94-3.08,3.33,3.33,0,0,0-.9.33,3,3,0,0,0-.1-.66,4.12,4.12,0,0,0-4.94-3.08,3.58,3.58,0,0,0-1,.36,3.33,3.33,0,0,0-.09-1.17,4.12,4.12,0,0,0-7.57-1.16,4.07,4.07,0,0,0-3.89-1.16,4.12,4.12,0,0,0-2.52,1.75,3.74,3.74,0,0,0-6.84.58,3.74,3.74,0,0,0-6,2.61,4.05,4.05,0,0,0-3.27-.64,4.14,4.14,0,0,0-3.2,4.12,3.52,3.52,0,0,0-1.37,0,3.76,3.76,0,0,0-2.8,4.5,3.64,3.64,0,0,0,.54,1.22l-.24.05a4.13,4.13,0,0,0-3.1,4.95,4,4,0,0,0,.44,1.11,3.74,3.74,0,0,0-2.11,6.92,3.73,3.73,0,0,0,.49,5.94,4.11,4.11,0,0,0,1.58,7.65,3.73,3.73,0,0,0,2,6.34Z" style="fill: rgb(38, 50, 56); transform-origin: 293.79px 231.428px;" id="elf92ta5nokoc" class="animable"></path><path d="M311,270.84c-.52,1.38-8.48,9.68-14.91,8.53-2.09-.37-.54-11.89-.54-11.89l-.08-.88-1.11-12.27,15.18-7.16,2.18-.92s.08,3.37.14,7.58c0,.2,0,.39,0,.6s0,.46,0,.68c0,.63,0,1.27,0,1.91s0,1,0,1.47,0,1,0,1.53A79,79,0,0,1,311,270.84Z" style="fill: rgb(173, 99, 89); transform-origin: 303.11px 262.864px;" id="ellypznr27t6k" class="animable"></path><path d="M311.93,258.49c0,.52,0,1,0,1.53-.07,2.61-.26,5.25-.44,7.27-9.71-.09-14.51-4.08-16.51-6.46l-.59-6.5,15.18-7.16,2.18-.92s.08,3.37.14,7.58c0,.2,0,.39,0,.6s0,.46,0,.68c0,.63,0,1.27,0,1.91S312,258,311.93,258.49Z" style="fill: rgb(38, 50, 56); transform-origin: 303.172px 256.77px;" id="elu108yukwm7g" class="animable"></path><path d="M321.63,234.92c4,21.24-8.24,26.05-12.83,26.92-4.16.78-18.42,2.92-24.62-17.8s2.41-29.31,11.83-31.6S317.61,213.67,321.63,234.92Z" style="fill: rgb(173, 99, 89); transform-origin: 302.251px 237.068px;" id="el9rr56forq38" class="animable"></path><path d="M318,231.61a14.87,14.87,0,0,1-1.49-.08,2.45,2.45,0,0,1-1.5-.38.76.76,0,0,1-.14-.93,1.89,1.89,0,0,1,1.79-.72,2.8,2.8,0,0,1,1.89.72A.82.82,0,0,1,318,231.61Z" style="fill: rgb(38, 50, 56); transform-origin: 316.776px 230.544px;" id="elo7pe1kt0bt8" class="animable"></path><path d="M303,234a14.77,14.77,0,0,0,1.4-.52,2.47,2.47,0,0,0,1.32-.8.76.76,0,0,0-.14-.93,1.86,1.86,0,0,0-1.92-.16,2.79,2.79,0,0,0-1.6,1.24A.82.82,0,0,0,303,234Z" style="fill: rgb(38, 50, 56); transform-origin: 303.894px 232.712px;" id="elvnxqhgk147" class="animable"></path><path d="M307.12,238.69c0-.05-.1.09-.09.15.3,1.44.4,3.14-.83,3.85,0,0,0,.1,0,.08C307.79,242.27,307.64,240,307.12,238.69Z" style="fill: rgb(38, 50, 56); transform-origin: 306.839px 240.726px;" id="el7x7i6swcyv4" class="animable"></path><path d="M305.57,237.4c-2.37.23-1.74,4.94.45,4.73S307.55,237.21,305.57,237.4Z" style="fill: rgb(38, 50, 56); transform-origin: 305.724px 239.766px;" id="elzhequrzrzkj" class="animable"></path><path d="M304.67,237.78c-.37.32-.71.84-1.2,1s-1.07-.3-1.51-.73c0,0-.08,0-.07.07.11.9.58,1.78,1.56,1.79s1.43-.88,1.53-1.82C305,237.87,304.82,237.65,304.67,237.78Z" style="fill: rgb(38, 50, 56); transform-origin: 303.435px 238.826px;" id="elxza6jrpvyrc" class="animable"></path><path d="M315.56,237.11c0-.05.12.06.12.12.14,1.46.55,3.12,1.93,3.44,0,0,.05.08,0,.08C316,240.73,315.45,238.53,315.56,237.11Z" style="fill: rgb(38, 50, 56); transform-origin: 316.589px 238.924px;" id="el8sjf4uut0gj" class="animable"></path><path d="M316.67,235.42c2.32-.47,3.1,4.22.95,4.66S314.72,235.82,316.67,235.42Z" style="fill: rgb(38, 50, 56); transform-origin: 317.213px 237.748px;" id="elzf1eloebfy7" class="animable"></path><path d="M317.7,235.57c.41.19.85.58,1.3.53s.81-.62,1.06-1.16c0-.06.07,0,.08,0,.17.89,0,1.87-.8,2.19s-1.47-.39-1.83-1.24C317.45,235.77,317.53,235.49,317.7,235.57Z" style="fill: rgb(38, 50, 56); transform-origin: 318.845px 236.061px;" id="eldm853uh02o5" class="animable"></path><path d="M308.66,251c.38.31.78.75,1.31.75a3.94,3.94,0,0,0,1.55-.51.05.05,0,0,1,.07.07,2,2,0,0,1-1.79,1,1.56,1.56,0,0,1-1.27-1.19A.08.08,0,0,1,308.66,251Z" style="fill: rgb(38, 50, 56); transform-origin: 310.053px 251.641px;" id="el9ifcax39cti" class="animable"></path><path d="M314,244.63s.61,2.13.76,3.16c0,.09-.22.17-.57.25,0,0,0,0,0,0a4.91,4.91,0,0,1-5-1.13c-.09-.09,0-.21.13-.16a7.45,7.45,0,0,0,4.64.62c0-.29-1.18-3.61-1-3.65a9,9,0,0,1,2.41.19c-1.16-4.48-3-8.74-4.12-13.21a.14.14,0,0,1,.26-.11c2.27,4.32,3.72,9.45,5,14C316.63,245.2,314.4,244.74,314,244.63Z" style="fill: rgb(38, 50, 56); transform-origin: 312.834px 239.403px;" id="elk1fy383si9b" class="animable"></path><path d="M313.78,247.6a5.26,5.26,0,0,1-1.59,2.16,2.4,2.4,0,0,1-1.37.49c-1.09,0-1.37-.9-1.41-1.75a5.65,5.65,0,0,1,.1-1.34A6.91,6.91,0,0,0,313.78,247.6Z" style="fill: rgb(38, 50, 56); transform-origin: 311.592px 248.705px;" id="eltnltz48e4m" class="animable"></path><path d="M312.19,249.76a2.4,2.4,0,0,1-1.37.49c-1.09,0-1.37-.9-1.41-1.75A2.48,2.48,0,0,1,312.19,249.76Z" style="fill: rgb(255, 156, 189); transform-origin: 310.8px 249.34px;" id="el31uo8c10afq" class="animable"></path><path d="M285.53,243.32c4,.45,4.89-8.71,4.89-8.71s16.95-3.12,18.19-17a23.43,23.43,0,0,0,12,12.64s-.82-15.16-12.89-17.94c0,0-15-5.21-23.22,6.75S282.85,243,285.53,243.32Z" style="fill: rgb(38, 50, 56); transform-origin: 300.556px 227.258px;" id="elff3dqa8fbph" class="animable"></path><path d="M308.65,216.6a15.15,15.15,0,0,1-.66,6.33,15.67,15.67,0,0,1-3.13,5.64,15.47,15.47,0,0,1-1.13,1.16l-.58.57-.64.49c-.44.32-.86.66-1.31,1s-.94.53-1.41.78c-.23.13-.47.27-.71.38l-.74.3-1.49.6c-1,.3-2.06.55-3.08.78,1-.44,2-.78,2.91-1.22l1.4-.71.69-.35c.23-.13.44-.28.66-.42.43-.29.86-.57,1.3-.84s.8-.65,1.2-1l.6-.48.55-.54c.34-.38.75-.71,1.05-1.12a17.89,17.89,0,0,0,3.16-5.25,19,19,0,0,0,.91-3A16.9,16.9,0,0,0,308.65,216.6Z" style="fill: rgb(38, 50, 56); transform-origin: 301.254px 225.615px;" id="ele1uug3i41nh" class="animable"></path><path d="M286.34,251a4.41,4.41,0,0,0,1,.15,3.35,3.35,0,0,0,1-.07,3,3,0,0,0,1.2-.53,3.65,3.65,0,0,0,.75-.71,4.15,4.15,0,0,0,.69-1.29L289.25,243s-5.38-6.24-8.25-4.25S282.63,250.07,286.34,251Z" style="fill: rgb(173, 99, 89); transform-origin: 285.534px 244.76px;" id="eluv2cn4dsyr" class="animable"></path><path d="M282.36,241.36a.05.05,0,0,0,0,.1c2.61.76,4.16,2.95,5.33,5.27a2,2,0,0,0-3.06-.24c-.06,0,0,.14.08.12a2.24,2.24,0,0,1,2.54.54,10.63,10.63,0,0,1,1.38,1.87c.14.21.54,0,.43-.2l0-.06C288.76,245.56,285.82,241.34,282.36,241.36Z" style="fill: rgb(38, 50, 56); transform-origin: 285.694px 245.234px;" id="elpocg5iv1xoo" class="animable"></path><path d="M286.55,250.1a1,1,0,1,0,.66-1.25A1,1,0,0,0,286.55,250.1Z" style="fill: rgb(255, 255, 255); transform-origin: 287.506px 249.805px;" id="elw9uttp778yd" class="animable"></path><path d="M284.35,248.8a.71.71,0,1,0,.46-.88A.69.69,0,0,0,284.35,248.8Z" style="fill: rgb(255, 255, 255); transform-origin: 285.027px 248.595px;" id="el4rpt3cwt3ed" class="animable"></path></g><defs>     <filter id="active" height="200%">         <feMorphology in="SourceAlpha" result="DILATED" operator="dilate" radius="2"></feMorphology>                <feFlood flood-color="#32DFEC" flood-opacity="1" result="PINK"></feFlood>        <feComposite in="PINK" in2="DILATED" operator="in" result="OUTLINE"></feComposite>        <feMerge>            <feMergeNode in="OUTLINE"></feMergeNode>            <feMergeNode in="SourceGraphic"></feMergeNode>        </feMerge>    </filter>    <filter id="hover" height="200%">        <feMorphology in="SourceAlpha" result="DILATED" operator="dilate" radius="2"></feMorphology>                <feFlood flood-color="#ff0000" flood-opacity="0.5" result="PINK"></feFlood>        <feComposite in="PINK" in2="DILATED" operator="in" result="OUTLINE"></feComposite>        <feMerge>            <feMergeNode in="OUTLINE"></feMergeNode>            <feMergeNode in="SourceGraphic"></feMergeNode>        </feMerge>            <feColorMatrix type="matrix" values="0   0   0   0   0                0   1   0   0   0                0   0   0   0   0                0   0   0   1   0 "></feColorMatrix>    </filter></defs></svg>