<svg class="animated" id="freepik_stories-buddies" xmlns="http://www.w3.org/2000/svg" viewBox="0 0 500 500" version="1.1" xmlns:xlink="http://www.w3.org/1999/xlink" xmlns:svgjs="http://svgjs.com/svgjs"><style>svg#freepik_stories-buddies:not(.animated) .animable {opacity: 0;}svg#freepik_stories-buddies.animated #freepik--background-complete--inject-78 {animation: 6s Infinite  linear floating;animation-delay: 0s;}svg#freepik_stories-buddies.animated #freepik--Plant--inject-78 {animation: 1.5s Infinite  linear wind;animation-delay: 0s;}svg#freepik_stories-buddies.animated #freepik--speech-bubble--inject-78 {animation: 3s Infinite  linear heartbeat;animation-delay: 0s;}            @keyframes floating {                0% {                    opacity: 1;                    transform: translateY(0px);                }                50% {                    transform: translateY(-10px);                }                100% {                    opacity: 1;                    transform: translateY(0px);                }            }                    @keyframes wind {                0% {                    transform: rotate( 0deg );                }                25% {                    transform: rotate( 1deg );                }                75% {                    transform: rotate( -1deg );                }            }                    @keyframes heartbeat {                0% {                    transform: scale(1);                }                10% {                    transform: scale(1.1);                }                30% {                    transform: scale(1);                }                40% {                    transform: scale(1);                }                50% {                    transform: scale(1.1);                }                60% {                    transform: scale(1);                }                100% {                    transform: scale(1);                }            }        </style><g id="freepik--background-complete--inject-78" class="animable animator-active" style="transform-origin: 244.535px 192.865px;"><rect x="175.74" y="52.46" width="61.39" height="74.46" style="fill: rgb(235, 235, 235); transform-origin: 206.435px 89.69px;" id="elsedvkqf32fe" class="animable"></rect><rect x="182.76" y="59.25" width="47.36" height="60.87" style="fill: rgb(255, 255, 255); transform-origin: 206.44px 89.685px;" id="eldm7dhfk37xa" class="animable"></rect><rect x="182.76" y="59.25" width="1.85" height="60.87" style="fill: rgb(219, 219, 219); transform-origin: 183.685px 89.685px;" id="elppwjufh3asq" class="animable"></rect><rect x="237.13" y="52.46" width="1.85" height="74.46" style="fill: rgb(219, 219, 219); transform-origin: 238.055px 89.69px;" id="elwc75drui6ms" class="animable"></rect><rect x="198.63" y="67.64" width="11.17" height="33.27" style="fill: rgb(219, 219, 219); transform-origin: 204.215px 84.275px;" id="elb8h358qt1bj" class="animable"></rect><path d="M224,107.1H193.26V89.8H224Zm-29.77-1H223V90.8H194.26Z" style="fill: rgb(235, 235, 235); transform-origin: 208.63px 98.45px;" id="eli4ab4gpkkbl" class="animable"></path><rect x="261.02" y="121.52" width="61.39" height="74.46" style="fill: rgb(235, 235, 235); transform-origin: 291.715px 158.75px;" id="el55ssrtzbej4" class="animable"></rect><rect x="268.04" y="128.32" width="47.36" height="60.87" style="fill: rgb(255, 255, 255); transform-origin: 291.72px 158.755px;" id="el9kl8o7fcl7l" class="animable"></rect><rect x="268.04" y="128.32" width="1.85" height="60.87" style="fill: rgb(219, 219, 219); transform-origin: 268.965px 158.755px;" id="el2ncxa0somum" class="animable"></rect><rect x="322.41" y="121.52" width="1.85" height="74.46" style="fill: rgb(219, 219, 219); transform-origin: 323.335px 158.75px;" id="elqa792nwb5li" class="animable"></rect><rect x="287.13" y="144.05" width="9.57" height="24.19" style="fill: rgb(235, 235, 235); transform-origin: 291.915px 156.145px;" id="elbwu0mw2gy3d" class="animable"></rect><path d="M307.27,175.93h-26.7V158.25h26.7Zm-25.7-1h24.7V159.25h-24.7Z" style="fill: rgb(219, 219, 219); transform-origin: 293.92px 167.09px;" id="elwc0gvokhuml" class="animable"></path><g id="elqpbvm2r0ml"><rect x="409.79" y="49.23" width="26.48" height="11.19" style="fill: rgb(235, 235, 235); transform-origin: 423.03px 54.825px; transform: rotate(180deg);" class="animable"></rect></g><g id="elt0pm02btbe"><rect x="424.56" y="35.12" width="26.48" height="11.19" style="fill: rgb(235, 235, 235); transform-origin: 437.8px 40.715px; transform: rotate(180deg);" class="animable"></rect></g><g id="elpw8gflk5zhs"><rect x="395.02" y="35.12" width="26.48" height="11.19" style="fill: rgb(235, 235, 235); transform-origin: 408.26px 40.715px; transform: rotate(180deg);" class="animable"></rect></g><g id="el7mx8ww6k98y"><rect x="41.96" y="35.12" width="26.48" height="11.19" style="fill: rgb(235, 235, 235); transform-origin: 55.2px 40.715px; transform: rotate(180deg);" class="animable"></rect></g><g id="elnsf4hfmpem"><rect x="56.73" y="314.29" width="26.48" height="11.19" style="fill: rgb(235, 235, 235); transform-origin: 69.97px 319.885px; transform: rotate(180deg);" class="animable"></rect></g><g id="elpk0tgg2atog"><rect x="41.96" y="300.18" width="26.48" height="11.19" style="fill: rgb(235, 235, 235); transform-origin: 55.2px 305.775px; transform: rotate(180deg);" class="animable"></rect></g><g id="eloydzc30cc1"><rect x="424.56" y="314.28" width="26.48" height="11.19" style="fill: rgb(235, 235, 235); transform-origin: 437.8px 319.875px; transform: rotate(180deg);" class="animable"></rect></g><rect x="221.7" y="137.49" width="26.48" height="11.19" style="fill: rgb(235, 235, 235); transform-origin: 234.94px 143.085px;" id="elrsgrcyhdx0q" class="animable"></rect><rect x="206.93" y="151.6" width="26.48" height="11.19" style="fill: rgb(235, 235, 235); transform-origin: 220.17px 157.195px;" id="elhz44pqchxlm" class="animable"></rect><polygon points="42.19 323.71 242.18 323.71 246.34 241.65 38.03 241.65 42.19 323.71" style="fill: rgb(235, 235, 235); transform-origin: 142.185px 282.68px;" id="eloialhnj5njc" class="animable"></polygon><path d="M232.7,279.21H149.09l-1.57-28.49h87Zm-82.65-1h81.7l1.7-26.47H148.59Z" style="fill: rgb(219, 219, 219); transform-origin: 191.02px 264.965px;" id="el681wi3jeo3y" class="animable"></path><path d="M231.16,312h-78.8l-1.28-25.72h81.68Zm-77.84-1h76.89l1.48-23.7H152.15Z" style="fill: rgb(219, 219, 219); transform-origin: 191.92px 299.14px;" id="elbp3iw6uuzx" class="animable"></path><path d="M199,268.06h-14l-.89-6.87h15.82Zm-13.17-1h12.28l.62-4.86H185.16Z" style="fill: rgb(219, 219, 219); transform-origin: 192.02px 264.625px;" id="elfeeu0iy123" class="animable"></path><path d="M199,302.56h-14l-.89-6.87h15.82Zm-13.17-1h12.28l.62-4.85H185.16Z" style="fill: rgb(219, 219, 219); transform-origin: 192.02px 299.125px;" id="el08tnjp4lra4" class="animable"></path><path d="M134.35,279.21H50.74l-1.57-28.49h87Zm-82.65-1h81.71l1.7-26.47H50.24Z" style="fill: rgb(219, 219, 219); transform-origin: 92.67px 264.965px;" id="elh5k8q40ytxo" class="animable"></path><path d="M132.81,312H54l-1.28-25.72h81.68ZM55,311h76.88l1.48-23.7H53.8Z" style="fill: rgb(219, 219, 219); transform-origin: 93.56px 299.14px;" id="el7cc3uii0k5k" class="animable"></path><path d="M100.6,268.06h-14l-.89-6.87h15.83Zm-13.16-1H99.71l.63-4.86H86.81Z" style="fill: rgb(219, 219, 219); transform-origin: 93.625px 264.625px;" id="elnzpraqhje1" class="animable"></path><path d="M100.6,302.56h-14l-.89-6.87h15.83Zm-13.16-1H99.71l.63-4.85H86.81Z" style="fill: rgb(219, 219, 219); transform-origin: 93.625px 299.125px;" id="elgsb8its455" class="animable"></path><polygon points="60.12 323.71 58.87 332.65 56.34 350.61 51.4 350.61 51.4 323.71 60.12 323.71" style="fill: rgb(235, 235, 235); transform-origin: 55.76px 337.16px;" id="el3vo7x2ikg0q" class="animable"></polygon><polygon points="60.12 323.71 58.87 332.65 51.4 332.65 51.4 323.71 60.12 323.71" style="fill: rgb(219, 219, 219); transform-origin: 55.76px 328.18px;" id="elu0kbu4ztjqs" class="animable"></polygon><polygon points="224.24 323.71 225.5 332.65 228.03 350.61 232.96 350.61 232.96 323.71 224.24 323.71" style="fill: rgb(235, 235, 235); transform-origin: 228.6px 337.16px;" id="el2q91zn8k93u" class="animable"></polygon><polygon points="224.24 323.71 225.5 332.65 232.96 332.65 232.96 323.71 224.24 323.71" style="fill: rgb(219, 219, 219); transform-origin: 228.6px 328.18px;" id="elfvsdjifb7nb" class="animable"></polygon><g id="elctkbq5elef"><rect x="74.32" y="203.74" width="60.5" height="15.24" style="fill: rgb(199, 199, 199); transform-origin: 104.57px 211.36px; transform: rotate(90deg);" class="animable"></rect></g><g id="elqasth7zbjt"><rect x="101.24" y="173.58" width="6.65" height="15.24" style="fill: rgb(219, 219, 219); transform-origin: 104.565px 181.2px; transform: rotate(90deg);" class="animable"></rect></g><g id="el575dbcaw7j6"><rect x="103.34" y="186.66" width="2.47" height="15.24" style="fill: rgb(219, 219, 219); transform-origin: 104.575px 194.28px; transform: rotate(90deg);" class="animable"></rect></g><g id="elh6rp1voqq89"><rect x="101.24" y="222.73" width="6.65" height="15.24" style="fill: rgb(219, 219, 219); transform-origin: 104.565px 230.35px; transform: rotate(90deg);" class="animable"></rect></g><g id="elcbaszpabl8d"><rect x="82.22" y="201" width="70.58" height="10.65" style="fill: rgb(219, 219, 219); transform-origin: 117.51px 206.325px; transform: rotate(90deg);" class="animable"></rect></g><g id="elbwmx8tlt0w"><rect x="103.89" y="188.05" width="27.14" height="6.39" style="fill: rgb(235, 235, 235); transform-origin: 117.46px 191.245px; transform: rotate(90deg);" class="animable"></rect></g><g id="elyb39yemlqa8"><rect x="134.56" y="207.61" width="70.58" height="10.65" style="fill: rgb(199, 199, 199); transform-origin: 169.85px 212.935px; transform: rotate(44.67deg);" class="animable"></rect></g><g id="el5yyp4n7v59o"><rect x="159.96" y="213.34" width="27.14" height="6.39" style="fill: rgb(219, 219, 219); transform-origin: 173.53px 216.535px; transform: rotate(44.67deg);" class="animable"></rect></g><g id="el6j9ohqvg96n"><rect x="105.06" y="205.78" width="53.61" height="18.08" style="fill: rgb(166, 166, 166); transform-origin: 131.865px 214.82px; transform: rotate(90deg);" class="animable"></rect></g><g id="elprpy7rx7tne"><rect x="129.37" y="224.4" width="5" height="18.08" style="fill: rgb(199, 199, 199); transform-origin: 131.87px 233.44px; transform: rotate(90deg);" class="animable"></rect></g><g id="elzrnyapxao4"><rect x="130.9" y="217.65" width="1.94" height="18.08" style="fill: rgb(199, 199, 199); transform-origin: 131.87px 226.69px; transform: rotate(90deg);" class="animable"></rect></g><g id="elmo2zvfy3f"><rect x="56.18" y="209.79" width="50.38" height="12.49" style="fill: rgb(166, 166, 166); transform-origin: 81.37px 216.035px; transform: rotate(113.23deg);" class="animable"></rect></g><g id="ell2drwogjsro"><rect x="72.12" y="225.87" width="4.7" height="12.49" style="fill: rgb(199, 199, 199); transform-origin: 74.47px 232.115px; transform: rotate(113.23deg);" class="animable"></rect></g><g id="el554tfey1y6a"><rect x="83.93" y="198.34" width="4.7" height="12.49" style="fill: rgb(199, 199, 199); transform-origin: 86.28px 204.585px; transform: rotate(113.23deg);" class="animable"></rect></g><g id="elqoys2xbd59r"><rect x="82.82" y="204.29" width="1.82" height="12.49" style="fill: rgb(199, 199, 199); transform-origin: 83.73px 210.535px; transform: rotate(113.23deg);" class="animable"></rect></g></g><g id="freepik--Shadow--inject-78" class="animable" style="transform-origin: 250px 407.02px;"><ellipse cx="250" cy="407.02" rx="194.11" ry="33.77" style="fill: rgb(235, 235, 235); transform-origin: 250px 407.02px;" id="el36tbc8cmn81" class="animable"></ellipse></g><g id="freepik--Plant--inject-78" class="animable" style="transform-origin: 420.249px 150.91px;"><polygon points="441.12 135.14 420.46 39.77 401.36 135.13 400.45 135 420.42 35.28 442.02 134.99 441.12 135.14" style="fill: rgb(219, 219, 219); transform-origin: 421.235px 85.21px;" id="elih6hy0673r" class="animable"></polygon><polygon points="435.59 230.4 420.68 175.63 406.89 230.39 405.99 230.17 420.64 172 436.48 230.16 435.59 230.4" style="fill: rgb(219, 219, 219); transform-origin: 421.235px 201.2px;" id="el13ynxg50lojl" class="animable"></polygon><path d="M422.33,37a1.89,1.89,0,1,1-1.89-1.89A1.89,1.89,0,0,1,422.33,37Z" style="fill: rgb(166, 166, 166); transform-origin: 420.44px 37px;" id="elzaddu54udkk" class="animable"></path><polygon points="440.83 236.51 440.15 245.44 438.54 266.71 404.27 266.71 402.66 245.44 401.98 236.51 440.83 236.51" style="fill: rgb(255, 199, 39); transform-origin: 421.405px 251.61px;" id="elzmoe4jvmvyo" class="animable"></polygon><g id="eldaj7k0c68rj"><polygon points="440.83 236.51 440.15 245.44 402.66 245.44 401.98 236.51 440.83 236.51" style="opacity: 0.1; transform-origin: 421.405px 240.975px;" class="animable"></polygon></g><rect x="399.63" y="233.65" width="43.56" height="6.94" style="fill: rgb(255, 199, 39); transform-origin: 421.41px 237.12px;" id="el9cwi1b7xipe" class="animable"></rect><path d="M444.37,232.21a2.1,2.1,0,0,1-2.32,1.92,2.23,2.23,0,0,1-2.49.72,2.54,2.54,0,0,1-2.5,1.48,2.57,2.57,0,0,1-1.48,3.09,1.58,1.58,0,0,1-1.64,1.11,2.62,2.62,0,0,1-1.93-1.34,2,2,0,0,1-2.92.27,1.62,1.62,0,0,1-.35-1.78,1.78,1.78,0,0,1-.39-.24,2.54,2.54,0,0,1-.68-2.1,2.43,2.43,0,0,1-1.78,0,1.35,1.35,0,0,1-1.23,1,2.4,2.4,0,0,1-.41,2.18,2.54,2.54,0,0,1-2.23.84c.25,1.17.3,2.5-.77,3.28a1.67,1.67,0,0,1-1.74.17,2.23,2.23,0,0,1-2.75,1.74,2.89,2.89,0,0,1-.26,2.1,1.93,1.93,0,0,1-1.47,1c0,1.14-.49,2.38-1.83,2.36a1.35,1.35,0,0,1-1.27-1.63,1.68,1.68,0,0,1-.86-2.8,2.45,2.45,0,0,1,0-3.86,1.59,1.59,0,0,1,.07-2.36,2.16,2.16,0,0,1-.79-1.71,2.39,2.39,0,0,1,1.24-1.91,1,1,0,0,1-.59-.6c0-.06,0-.12,0-.18a1.62,1.62,0,0,1-1.26,0,1.37,1.37,0,0,1-.63-.58,2.62,2.62,0,0,1-2.5.62,2.1,2.1,0,0,1-3.21.66c-.79.7-1.87,1.38-2.89.74a1.29,1.29,0,0,1-.58-1.16,1.43,1.43,0,0,1-1.3-.76,1.34,1.34,0,0,1,.36-1.65,1.29,1.29,0,0,1-.49-.75,1.51,1.51,0,0,1,1.47-1.67,2.06,2.06,0,0,1,.4-2.1,3,3,0,0,1,2.45-.88,2.64,2.64,0,0,1,1.3-2.74,2.15,2.15,0,0,1,2.65.64,3.44,3.44,0,0,1,5.47-.35,1.7,1.7,0,0,1,2.13-.88,2.81,2.81,0,0,1,1.6,2.8,3.34,3.34,0,0,1,3.42.28,3.41,3.41,0,0,1,1.31,2.83,3,3,0,0,1,3.19.19,6.65,6.65,0,0,1,3.41-2.6,3.22,3.22,0,0,1,2.77.59,3.8,3.8,0,0,1,6.92-.87,2.69,2.69,0,0,1,2.82-.38,5.1,5.1,0,0,1,2.48,3.25A2.06,2.06,0,0,1,444.37,232.21Z" style="fill: rgb(69, 90, 100); transform-origin: 421.428px 236.9px;" id="elxp6nc4klenk" class="animable"></path><polygon points="447.37 137.68 446.46 149.62 444.3 178.04 398.51 178.04 396.35 149.62 395.44 137.68 447.37 137.68" style="fill: rgb(255, 199, 39); transform-origin: 421.405px 157.86px;" id="elk9u3vbp1f0i" class="animable"></polygon><g id="el29zqjdpaflw"><polygon points="447.37 137.68 446.46 149.62 396.35 149.62 395.44 137.68 447.37 137.68" style="opacity: 0.1; transform-origin: 421.405px 143.65px;" class="animable"></polygon></g><rect x="392.3" y="133.85" width="58.21" height="9.27" style="fill: rgb(255, 199, 39); transform-origin: 421.405px 138.485px;" id="elhr8s76xvmie" class="animable"></rect><path d="M449.18,136.19a3.38,3.38,0,0,1,.71,3.17,6.21,6.21,0,0,1-3.56,3.19,3.79,3.79,0,0,1-1.27,5.58c1.39,1.63,2,3.48.17,4.67a4.17,4.17,0,0,1-1.27,5.94c.4,1.29-.84,5.12-3.48,5.12a2.78,2.78,0,0,1-2.4-4.11,3.26,3.26,0,0,1-.76-5.14s-1.62.34-2.39-.48a2.24,2.24,0,0,1-.14-2.2,3.72,3.72,0,0,1,.85-5.42,3.06,3.06,0,0,1,0-4.59,4.34,4.34,0,0,1-1.82-1.55c-1.32.64-2.12.08-2.85-1.18a3.06,3.06,0,0,1-3.32.87,3.66,3.66,0,0,1-5.37,2.17,5,5,0,0,1-1,2.72,7.59,7.59,0,0,1-.6.66,5.58,5.58,0,0,0-.59,1,4.46,4.46,0,0,1-1.2,1.39,2.3,2.3,0,0,1-3-.13,1.71,1.71,0,0,1-.27-1.79,2.33,2.33,0,0,1-1.46-3,2.85,2.85,0,0,1-2.79-1.62,3,3,0,0,1-2.29,1.14,3.35,3.35,0,0,1-1.91,4.23,3.45,3.45,0,0,1-1.48,4.92,2.45,2.45,0,0,1-.71,3.24,3.09,3.09,0,0,1-.12,2.78,2,2,0,0,1-1.89.9,1.49,1.49,0,0,1-.9-2.22,3.8,3.8,0,0,1-2.36-2.71,3.84,3.84,0,0,1,1-3.47,3.06,3.06,0,0,1-1.8-4.66,3.16,3.16,0,0,1-2.4-2.43,3.11,3.11,0,0,1,.66-2.47,1.8,1.8,0,0,1-1.66-.61,1.65,1.65,0,0,1-.34-1.05,2.36,2.36,0,0,1-2.56-1.12,2.31,2.31,0,0,1,.47-2.69,2,2,0,0,1-1.31-1.41,1.81,1.81,0,0,1,.15-1.18,2.28,2.28,0,0,1-2.73-1.92,1.86,1.86,0,0,1,1.25-1.93,2.2,2.2,0,0,1-.18-1.48c.35-1.41,2-1.85,3.27-2a2.91,2.91,0,0,1,3.24-3.81,3,3,0,0,1,1.39-2.79,2.86,2.86,0,0,1,3.14.25h.08a3.51,3.51,0,0,1,3,3.43,3.63,3.63,0,0,1,3.46,0,5.09,5.09,0,0,1,2.4,3.52,4.13,4.13,0,0,1,6.62.86,3.79,3.79,0,0,1,6.53,2.15,9.36,9.36,0,0,1,8.81-1.73,4.12,4.12,0,0,1,6.23-2,4.16,4.16,0,0,1,4.28-2.51c2.17.22,3.77,2,4.66,3.86a4.19,4.19,0,0,1,3.68,5.53A3,3,0,0,1,449.18,136.19Z" style="fill: rgb(69, 90, 100); transform-origin: 420.249px 141.112px;" id="ely8qpuvidgbk" class="animable"></path></g><g id="freepik--Floor--inject-78" class="animable" style="transform-origin: 249.995px 350.61px;"><polygon points="37.28 350.61 90.46 350.37 143.64 350.28 250 350.11 356.36 350.28 409.54 350.37 462.71 350.61 409.54 350.86 356.36 350.94 250 351.11 143.64 350.94 90.46 350.86 37.28 350.61" style="fill: rgb(38, 50, 56); transform-origin: 249.995px 350.61px;" id="elgt0kkbgn03t" class="animable"></polygon></g><g id="freepik--character-1--inject-78" class="animable" style="transform-origin: 251.211px 278.344px;"><path d="M444,376.29c-2.86,1.1-86.05,2.62-89.3.75-.36-.2-.26-3.87-1.49-13.37-.06-.45-1.95-2.22-4.92-4.7C337.14,349.64,311,330,311,330l41.51-36.07,40.23,39.54,10.46,10.28s34,18.36,37.36,20.78S446.83,375.19,444,376.29Z" style="fill: rgb(173, 99, 89); transform-origin: 378.072px 335.926px;" id="elz8b7fbecyt" class="animable"></path><path d="M444,376.29c-2.87,1.11-86.05,2.61-89.3.76-.36-.21-.26-3.88-1.49-13.38-.05-.45-1.95-2.21-4.92-4.71-3.87-3.24-5.7-4.72-11.46-9.2l52.78-19.4,3.16,3.11,10.46,10.28s34,18.34,37.35,20.77S446.84,375.19,444,376.29Z" style="fill: rgb(235, 235, 235); transform-origin: 390.99px 354.141px;" id="eldsysm7k7568" class="animable"></path><path d="M449.7,377.44c-2.89,1-91.52,2-94.71,0-.75-.46-1.44-5.61-2-12.66-.06-.89-9-8.06-10.27-9.39L397,337.11l6.86,6.45s40,18.6,43.24,21.13S452.59,376.43,449.7,377.44Z" style="fill: rgb(255, 199, 39); transform-origin: 396.876px 357.852px;" id="elhfej2kaipiv" class="animable"></path><path d="M448.47,374.13c-13.92-.18-75.69.41-89.47,1.29-.11,0-.11.09,0,.09,13.8.48,75.56-.57,89.48-1.15C448.77,374.35,448.77,374.14,448.47,374.13Z" style="fill: rgb(38, 50, 56); transform-origin: 403.807px 374.865px;" id="el8i0y5nbg159" class="animable"></path><path d="M408.33,344.15c-5.49-1-12.18,0-16.32,3.91-.16.15.06.38.24.32a76.5,76.5,0,0,1,16.07-3.54A.35.35,0,0,0,408.33,344.15Z" style="fill: rgb(38, 50, 56); transform-origin: 400.285px 346.089px;" id="el6emileo5yfp" class="animable"></path><path d="M412.31,346.48c-5.49-1-12.18,0-16.32,3.92-.16.15.06.37.24.32a76.64,76.64,0,0,1,16.07-3.54A.35.35,0,0,0,412.31,346.48Z" style="fill: rgb(38, 50, 56); transform-origin: 404.294px 348.423px;" id="elist789yxb0i" class="animable"></path><path d="M416.29,348.82c-5.49-1-12.18,0-16.32,3.91-.16.16.06.38.24.32a77.27,77.27,0,0,1,16.07-3.54A.35.35,0,0,0,416.29,348.82Z" style="fill: rgb(38, 50, 56); transform-origin: 408.245px 350.759px;" id="el8q58880yq9t" class="animable"></path><path d="M420.27,351.16c-5.49-1-12.18,0-16.32,3.91-.16.15.06.38.24.32a76.78,76.78,0,0,1,16.07-3.54A.35.35,0,0,0,420.27,351.16Z" style="fill: rgb(38, 50, 56); transform-origin: 412.225px 353.099px;" id="els7g2b3c7h6o" class="animable"></path><path d="M418.3,331.36c-2.19-2.94-6.18-1.56-8.45.39a29.25,29.25,0,0,0-8.29,12.65.15.15,0,0,0,.14.19c0,.42.4.86.86.68,4.51-1.73,9.54-3,13.37-6.08C418.18,337.41,420.37,334.14,418.3,331.36Zm-9.44,9.89c-2.2.9-4.42,1.69-6.59,2.68,1.63-2.46,3.14-5,5-7.28a29.75,29.75,0,0,1,2.87-3.17c1.61-1.5,8-4.74,7.13,1.29C416.78,338.09,411.47,340.17,408.86,341.25Z" style="fill: rgb(38, 50, 56); transform-origin: 410.342px 337.488px;" id="elhs3q5x4w6jp" class="animable"></path><path d="M387.62,343.13c4.54,1.87,9.73,1.71,14.54,2.12a.67.67,0,0,0,.64-.89.14.14,0,0,0,.08-.22,29.19,29.19,0,0,0-11.48-9.85c-2.72-1.24-6.94-1.46-8.22,2C382,339.51,385,342,387.62,343.13Zm-2.51-3.88c-2.54-5.53,4.52-4.21,6.49-3.22a32.26,32.26,0,0,1,3.63,2.25,85.53,85.53,0,0,1,6.83,5.61c-2.35-.35-4.7-.49-7.06-.75C392.19,342.83,386.5,342.3,385.11,339.25Z" style="fill: rgb(38, 50, 56); transform-origin: 392.912px 339.356px;" id="el6b4lx4a5pku" class="animable"></path><path d="M393.31,331.26,342,357.85s-53.46-48.4-58.36-48.75c-4.75-.35-76.81,48.44-113,48.59-37.5.16-39.4-39.13-39.4-39.13L185.93,306c39.43-19.44,80.5-54.34,107.37-51.09C322.48,258.45,393.31,331.26,393.31,331.26Z" style="fill: rgb(38, 50, 56); transform-origin: 262.275px 306.274px;" id="elevq0q730es" class="animable"></path><path d="M380.78,324.48c-8.66,4.29-6.23,2.94-14.85,7.31-4.22,2.14-25.44,12.85-29,15.5-.08.06,0,.2.09.17,4.24-1.42,25.22-12.58,29.4-14.8,8.53-4.53,6-3.32,14.52-7.94A.13.13,0,1,0,380.78,324.48Z" style="fill: rgb(55, 71, 79); transform-origin: 358.951px 335.96px;" id="eldtmr17cv1a7" class="animable"></path><path d="M332.91,345.59c-10-8.85-42.9-37.65-44.24-38.72a17.75,17.75,0,0,0-3.42-2.56,3.6,3.6,0,0,0-3.16.25c-1.52.71-3,1.49-4.52,2.23l-8.89,4.34c-11.5,5.61-22.93,11.37-34.51,16.79-11.14,5.22-19.1,10.13-30.73,14.15a175.27,175.27,0,0,1-35.7,8.51q-2.25.27-4.5.48a.09.09,0,0,0,0,.17,143.51,143.51,0,0,0,35.13-6.54c11.53-3.54,19.35-8.14,30.3-13.18,11.34-5.22,22.53-10.8,33.71-16.36,5.9-2.94,11.8-5.9,17.72-8.8,1.34-.66,3.25-2.08,4.79-1.38a9,9,0,0,1,1.77,1.31l2,1.64c2.54,2.11,42.83,36.81,44.15,37.81C332.87,345.81,333,345.67,332.91,345.59Z" style="fill: rgb(55, 71, 79); transform-origin: 248.06px 327.644px;" id="el26a10xhn68o" class="animable"></path><path d="M131.12,318.56S125,354,142.72,368s147.7,12.26,167.42,5.89,20.34-38.2-1.22-45.57c-20.5-7-107.73-10.42-109.88-11.28-.54-.22,7.73-5.18,7.7-5.48l-19.85-6.06Z" style="fill: rgb(38, 50, 56); transform-origin: 227.555px 342.082px;" id="el6gmevqmz5og" class="animable"></path><path d="M158,317.66c0-.15-.26-.1-.26,0a17.46,17.46,0,0,1-4.1,11.27c-3,3.49-7.47,5.44-11.5,7.48-.39.2-.1.81.3.69a35.68,35.68,0,0,0,7.13-3.07,17.35,17.35,0,0,0,5.36-4.46A15.33,15.33,0,0,0,158,317.66Z" style="fill: rgb(55, 71, 79); transform-origin: 150.076px 327.34px;" id="elwenpahwk29" class="animable"></path><path d="M197.61,313.27c-.9-1.15-1.88-2.25-2.82-3.37-2.22-2.64-4.46-5.29-6.78-7.84-.22-.25-.66.1-.45.36,1.56,2.05,3.22,4,4.86,6,.83,1,1.67,2.05,2.52,3.07a19.13,19.13,0,0,1,2.35,3c.61,1.14-.19,2.11-1.36,2.24a4.11,4.11,0,0,1-2.84-1.05,36.61,36.61,0,0,1-4.81-5.14c-.94-1.05-1.87-2.1-2.82-3.14s-2.09-2.16-3.1-3.26c-.06-.07-.19,0-.13.11.88,1.2,1.69,2.47,2.57,3.67s1.78,2.41,2.69,3.6,1.75,2.22,2.67,3.3a10.78,10.78,0,0,0,2.71,2.42c1.69,1,4.61,1.21,5.51-1A3,3,0,0,0,197.61,313.27Z" style="fill: rgb(55, 71, 79); transform-origin: 190.357px 309.968px;" id="elzmv01cj9gfg" class="animable"></path><path d="M307.45,374c-6.79.13-13.58.53-20.37.67s-13.47.18-20.21.12q-20.3-.19-40.55-1.58c-13.64-.94-28.35-2.3-41.9-4.18-6.48-.89-13-1.64-19.46-3a30.67,30.67,0,0,1-15.35-7.84c-8.78-8.51-12.19-21-13.59-33-.19-1.6-.34-3.21-.47-4.82,0-.11-.18-.11-.17,0,.79,12.26,2.7,25,10.41,34.9A30.72,30.72,0,0,0,158.35,365c6.07,2.43,12.8,3,19.21,3.87,13.6,1.84,28.37,3.27,42.05,4.33s27.57,1.73,41.38,1.94,27.62,0,41.42-.67c1.68-.08,3.36-.18,5-.33A.08.08,0,0,0,307.45,374Z" style="fill: rgb(55, 71, 79); transform-origin: 221.429px 347.753px;" id="elzq73neddtfb" class="animable"></path><path d="M264.64,321.82c-4.28-.62-8.54-1.24-12.84-1.68s-8.68-.84-13-1.21c-8.6-.73-17.22-1.38-25.84-1.79-4.9-.23-9.79-.25-14.69-.19a.12.12,0,0,0,0,.24c8.62.78,17.25,1.32,25.88,1.9s17.22,1.33,25.81,2.15c4.88.46,9.76.82,14.64,1.22C264.93,322.49,265,321.88,264.64,321.82Z" style="fill: rgb(55, 71, 79); transform-origin: 231.515px 319.691px;" id="elcifavcbq81" class="animable"></path><path d="M207.75,311.1a66.12,66.12,0,0,0-9.89,5.29,79.94,79.94,0,0,0-9.16,6.41c-.08.07,0,.17.11.13,3.35-1.55,6.58-3.49,9.78-5.36a90.39,90.39,0,0,0,9.37-6C208.17,311.4,208,311,207.75,311.1Z" style="fill: rgb(55, 71, 79); transform-origin: 198.361px 317.012px;" id="el2gq71elhbaq" class="animable"></path><path d="M183.12,247.91c7.89,23.12,33,48.48,40.25,51.17,4.31,1.58,12.12,3.53,18.68-1.05,14.33-10,30.69-29.26,35.67-37.28,2.4-3.86-21.62-20.51-25.22-17.24-8.43,7.67-23.13,26.91-24.45,26.66-4.86-.91-23.48-17.76-36.14-30C180.17,228.86,180,238.69,183.12,247.91Z" style="fill: rgb(173, 99, 89); transform-origin: 229.646px 267.985px;" id="el38fhnwncbzf" class="animable"></path><path d="M255.54,251c.52-3.57,4.25-23.19,5.86-27.64,3-8.17,7.86-16,11.47-15.49,2.89.37,2.55,5.56,2.55,5.56s3.68-4.53,7-2.95.46,7.11.46,7.11,4.11-4.38,7.32-2.57-.61,6.9-.61,6.9,3.57-4.18,5.58-1.58c2.43,3.13-5,10.08-7,15-.29.74-3,12.87-6.13,20.37a13.83,13.83,0,0,1-4.81,5.77Z" style="fill: rgb(173, 99, 89); transform-origin: 275.596px 234.663px;" id="elbwljrd7m918" class="animable"></path><path d="M290,221.92c-5.48,5.13-7,8.32-8.85,15.46,0,.14-.25.12-.23,0,1.19-7.16,2.51-11.43,8.84-15.7C290.09,221.44,290.28,221.68,290,221.92Z" style="fill: rgb(38, 50, 56); transform-origin: 285.527px 229.529px;" id="elt0y3qlezg2" class="animable"></path><path d="M283.26,217.41c-4.73,6.22-6.11,9.79-8,17.31,0,.11-.21.08-.19,0,1.24-7.54,2.3-11.87,7.85-17.47C283.16,217,283.48,217.12,283.26,217.41Z" style="fill: rgb(38, 50, 56); transform-origin: 279.201px 225.953px;" id="elor467autkll" class="animable"></path><path d="M275.36,213.69c-4,6.47-5.56,10.36-6.26,17.92a.14.14,0,0,1-.28,0c0-7.78,1.9-12.65,6.33-18C275.45,213.23,275.61,213.29,275.36,213.69Z" style="fill: rgb(38, 50, 56); transform-origin: 272.152px 222.553px;" id="el8xaiw5cs0ye" class="animable"></path><path d="M251.77,251s-2.9-8.94-3.31-13.15,3.83-20.45,7.39-19.73c4.6.92,4,10.78,3.07,15.58,0,0,10.64,2.13,11.74,9.3S251.77,251,251.77,251Z" style="fill: rgb(173, 99, 89); transform-origin: 259.568px 234.548px;" id="ele8gduptt3xj" class="animable"></path><path d="M259.41,230.18c0,1.18-.13,2.34-.22,3.51l-.2-.3a21,21,0,0,1,4.7,1.84,22.49,22.49,0,0,1,4.17,2.86,18.37,18.37,0,0,1,3.38,3.77,17.12,17.12,0,0,1,2.17,4.52,26.38,26.38,0,0,0-2.74-4.1,24.39,24.39,0,0,0-3.44-3.45,30.56,30.56,0,0,0-8.39-4.91l-.24-.09,0-.21C258.88,232.47,259.12,231.32,259.41,230.18Z" style="fill: rgb(38, 50, 56); transform-origin: 266.005px 238.28px;" id="el6xibzxwnbiw" class="animable"></path><path d="M242.6,251.33l35.12,26.17S250.32,303,242,304s-22.09-1.1-26.67-3.12-23.76-29.34-32.73-50.8,2.76-19.72,10.76-11.24,33.89,29.73,35.1,29.38S242.6,251.33,242.6,251.33Z" style="fill: rgb(255, 199, 39); transform-origin: 228.545px 268.599px;" id="elknusgwl7j4j" class="animable"></path><path d="M268.05,283c-12.34-11.73-27.06-22.16-29.5-24.16-.12-.1-.26.1-.13.19,2.49,1.84,18,15.61,29.49,24.19C268,283.35,268.17,283.15,268.05,283Z" style="fill: rgb(38, 50, 56); transform-origin: 253.23px 271.037px;" id="elcq38sqwmbo9" class="animable"></path><g id="eleq61aazc9n4"><path d="M210.19,296c-7.66-9.21-20.7-29.29-27.63-45.87-6.18-14.77-2.53-18.55,2.94-16.7l.19.48Z" style="opacity: 0.1; transform-origin: 194.761px 264.498px;" class="animable"></path></g><path d="M206.24,315.33l-76.7,4.45c.1-1.57,11.51-47.22,20.13-64,11.07-21.48,16.56-23.1,19.85-24.2,4.2-1.4,11.6-.49,13.34.38,2,1,8.09,12.23,10.18,20.42C197.25,268.88,207.28,314.35,206.24,315.33Z" style="fill: rgb(255, 199, 39); transform-origin: 167.928px 275.318px;" id="eluk0r464n7zj" class="animable"></path><path d="M169.62,278.2a10.84,10.84,0,0,0-2.9-.67,10.18,10.18,0,0,0,2.62,1.39,11.06,11.06,0,0,0,2.92.66A10.41,10.41,0,0,0,169.62,278.2Zm21.1-23.28a10.29,10.29,0,0,0-2.91-.68,10.08,10.08,0,0,0,2.63,1.39,10.6,10.6,0,0,0,2.93.67A10.48,10.48,0,0,0,190.72,254.92Zm-7.64,59.88a10.24,10.24,0,0,0-2.92-.65,10.45,10.45,0,0,0,2.64,1.39,10.9,10.9,0,0,0,2.91.66A10.77,10.77,0,0,0,183.08,314.8ZM147,261.7c-.07.16-.14.31-.2.48a8.41,8.41,0,0,0,1.24.17A8.17,8.17,0,0,0,147,261.7Zm54.67,28.2a13.94,13.94,0,0,0-1.37-.61,10.11,10.11,0,0,0-2.91-.66A10.26,10.26,0,0,0,200,290a13.51,13.51,0,0,0,1.78.53Zm-46.31,24.9a10.33,10.33,0,0,0-2.91-.65,10.39,10.39,0,0,0,2.63,1.39,10.82,10.82,0,0,0,2.91.66A10.42,10.42,0,0,0,155.35,314.8Zm50.11.57.59,0a6.7,6.7,0,0,0,.18-1.19A7.55,7.55,0,0,0,205.46,315.37Zm-36-12.34a10,10,0,0,0-.67,2.9,10.6,10.6,0,0,0,1.39-2.64,10.38,10.38,0,0,0,.66-2.9A10.41,10.41,0,0,0,169.49,303Zm13-33.74a10.44,10.44,0,0,0-.65,2.91,10.66,10.66,0,0,0,1.39-2.65,10.05,10.05,0,0,0,.66-2.89A11.1,11.1,0,0,0,182.49,269.29Zm2.41-28.51a10.16,10.16,0,0,0-.65,2.92,11,11,0,0,0,1.39-2.65,10.38,10.38,0,0,0,.65-2.89A10.84,10.84,0,0,0,184.9,240.78Zm7.56,62a11.12,11.12,0,0,0-2.54,1.59,10.37,10.37,0,0,0,2.86-.89,10.65,10.65,0,0,0,2.53-1.57A10.25,10.25,0,0,0,192.46,302.75Zm-36.65-6.88a10.65,10.65,0,0,0-2.53,1.59,10.69,10.69,0,0,0,2.84-.89,10.36,10.36,0,0,0,2.54-1.58A10,10,0,0,0,155.81,295.87ZM162,263.22a11.42,11.42,0,0,0-2.53,1.59,10.48,10.48,0,0,0,2.86-.89,10.85,10.85,0,0,0,2.53-1.57A10.31,10.31,0,0,0,162,263.22Zm36.09,10.6a10.9,10.9,0,0,0-2.4,1.52,10.34,10.34,0,0,0,2.57-.76Zm-59.46,32.44a10,10,0,0,0-1.57-2.53,9.88,9.88,0,0,0,.87,2.84,10.71,10.71,0,0,0,1.59,2.54A10.52,10.52,0,0,0,138.66,306.26Zm13-26.2a10.61,10.61,0,0,0-1.58-2.53,10.33,10.33,0,0,0,.88,2.84,10.07,10.07,0,0,0,1.58,2.54A10.06,10.06,0,0,0,151.68,280.06Zm31.61,9.73a11.22,11.22,0,0,0-1.59-2.52,11,11,0,0,0,.89,2.85,10.19,10.19,0,0,0,1.58,2.53A10.23,10.23,0,0,0,183.29,289.79ZM172,250.07a10,10,0,0,0-1.58-2.53,10.33,10.33,0,0,0,.88,2.84,10.67,10.67,0,0,0,1.58,2.54A9.75,9.75,0,0,0,172,250.07Z" style="fill: rgb(255, 255, 255); transform-origin: 171.65px 277.18px;" id="elybskul39sh" class="animable"></path><path d="M184.29,245.21c-4.36,1-11.88-5.6-14.86-11-.21-.37.35-4.28.8-9.07.26-2.9.48-6.14.47-9.11,0-.61,18.65,4.46,18.65,4.46a47.31,47.31,0,0,0-1.76,11.41,6.59,6.59,0,0,0,.14,1.22c0,.06,0,.12,0,.2C188.14,235.64,188.51,244.19,184.29,245.21Z" style="fill: rgb(173, 99, 89); transform-origin: 179.367px 230.645px;" id="elqm3x09lbign" class="animable"></path><path d="M171.84,216.1c.89,5,4.06,17.15,14,17.34a11.44,11.44,0,0,0,1.91-.12,1.06,1.06,0,0,0,0-.2,7.73,7.73,0,0,1-.13-1.21,47.45,47.45,0,0,1,1.76-11.43S175.89,216.83,171.84,216.1Z" style="fill: rgb(38, 50, 56); transform-origin: 180.61px 224.771px;" id="el52htudpe48s" class="animable"></path><path d="M169.82,192.48c-2.68,6.37-1.16,25.71,3.08,30.42,6.15,6.84,17.19,8.56,23.24.95,5.86-7.38,3.43-32.56-1.4-36.94C187.63,180.45,173.78,183.07,169.82,192.48Z" style="fill: rgb(173, 99, 89); transform-origin: 184.029px 206.096px;" id="elgzr4e61oam9" class="animable"></path><path d="M187.22,206s-.09.08-.09.13c.19,1.29.19,2.81-.94,3.37,0,0,0,.08,0,.07C187.62,209.19,187.61,207.18,187.22,206Z" style="fill: rgb(38, 50, 56); transform-origin: 186.817px 207.785px;" id="el9zib4iuvdg9" class="animable"></path><path d="M185.91,204.76c-2.11.07-1.8,4.28.15,4.21S187.67,204.69,185.91,204.76Z" style="fill: rgb(38, 50, 56); transform-origin: 185.92px 206.865px;" id="elqwylnpirzo" class="animable"></path><path d="M194.52,205.49c0-.05.11.06.11.11.05,1.31.33,2.79,1.54,3.14,0,0,0,.08,0,.07C194.72,208.72,194.36,206.74,194.52,205.49Z" style="fill: rgb(38, 50, 56); transform-origin: 195.327px 207.144px;" id="elfl2kg9bdu8" class="animable"></path><path d="M195.59,204.05c2.08-.32,2.55,3.88.62,4.17S193.84,204.31,195.59,204.05Z" style="fill: rgb(38, 50, 56); transform-origin: 195.961px 206.133px;" id="elryh0lw1rz1" class="animable"></path><path d="M184.2,202.22a15.06,15.06,0,0,0,1.6-.68,2.79,2.79,0,0,0,1.48-1,.89.89,0,0,0-.21-1.07,2.21,2.21,0,0,0-2.24-.08,3.31,3.31,0,0,0-1.78,1.53A1,1,0,0,0,184.2,202.22Z" style="fill: rgb(38, 50, 56); transform-origin: 185.186px 200.682px;" id="elrumxvanq18s" class="animable"></path><path d="M197.4,201.8a16.43,16.43,0,0,1-1.72-.18,2.8,2.8,0,0,1-1.72-.52.88.88,0,0,1-.11-1.08,2.18,2.18,0,0,1,2.11-.74,3.21,3.21,0,0,1,2.15.93A1,1,0,0,1,197.4,201.8Z" style="fill: rgb(38, 50, 56); transform-origin: 196.01px 200.518px;" id="elmiwh8sv7cvm" class="animable"></path><path d="M185.46,217.84c.22.38.4.87.85,1a3.17,3.17,0,0,0,1.44.07,0,0,0,0,1,0,.08,1.75,1.75,0,0,1-1.79.23,1.39,1.39,0,0,1-.67-1.39C185.32,217.78,185.43,217.78,185.46,217.84Z" style="fill: rgb(38, 50, 56); transform-origin: 186.513px 218.581px;" id="elfwbje89i6q" class="animable"></path><path d="M187,214.25a4.44,4.44,0,0,0,3.11,1.76,5.38,5.38,0,0,0,1.6,0,1.45,1.45,0,0,0,.3-.06l.28-.06a.32.32,0,0,0,.24-.31h0a.34.34,0,0,0,0-.14h0v-.11c0-1-.25-2.52-.25-2.52.38.15,2.31.86,2.24.34a66.18,66.18,0,0,0-2.7-13.31.12.12,0,0,0-.23.05c.38,4.17,1.5,8.25,2,12.44a7.85,7.85,0,0,0-2.14-.48c-.14.05.45,2.93.44,3.38a.18.18,0,0,1,0,.05,6.18,6.18,0,0,1-4.7-1.09C187,214.06,186.93,214.15,187,214.25Z" style="fill: rgb(38, 50, 56); transform-origin: 190.748px 207.919px;" id="el4pk91imvrot" class="animable"></path><path d="M190.64,216a4.83,4.83,0,0,1-2.07,1.38,2.22,2.22,0,0,1-1.35,0c-.95-.32-.91-1.21-.68-2a5.3,5.3,0,0,1,.52-1.14A6.34,6.34,0,0,0,190.64,216Z" style="fill: rgb(38, 50, 56); transform-origin: 188.521px 215.863px;" id="elpmx2mwpcngf" class="animable"></path><path d="M188.57,217.33a2.22,2.22,0,0,1-1.35,0c-.95-.32-.91-1.21-.68-2A2.29,2.29,0,0,1,188.57,217.33Z" style="fill: rgb(255, 155, 188); transform-origin: 187.486px 216.383px;" id="ell8yi5tgy9m" class="animable"></path><g id="elobauypcndcl"><path d="M168.55,206.68c1.17-.36,3.48-4.81,4.47-6.59s.51-10.52.35-12.49a13.13,13.13,0,0,0-4.32,5.85C168,196.21,168,201.4,168.55,206.68Z" style="fill: rgb(38, 50, 56); opacity: 0.2; transform-origin: 170.906px 197.14px;" class="animable"></path></g><path d="M189.22,192.67a6.27,6.27,0,0,1-5.45,2.71,6.39,6.39,0,0,1-5.28-3.26,0,0,0,1,0-.09,0,6.31,6.31,0,0,0,5.33,3.73,6.43,6.43,0,0,0,5.61-3.13C189.39,192.67,189.27,192.59,189.22,192.67Z" style="fill: rgb(38, 50, 56); transform-origin: 183.876px 193.985px;" id="elsg92d7czu7" class="animable"></path><path d="M181.16,178c-3.59.46-6.68,2.8-7.73,5.39a7,7,0,0,0-.2,4.61c0,.06.14,0,.13,0a7.71,7.71,0,0,1,2.88-7.29,9.88,9.88,0,0,1,8.6-2,6.26,6.26,0,0,1,3.64,2.33c.08.12.34,0,.27-.12C187.54,178.81,184.41,177.61,181.16,178Z" style="fill: rgb(38, 50, 56); transform-origin: 180.847px 182.977px;" id="el866xwhi9s5j" class="animable"></path><path d="M202.47,185a6.24,6.24,0,0,0-3.49-3.07c-2.26-1-4.63-.63-7-.17-.06,0,0,.11,0,.1a11,11,0,0,1,6,.06,7.44,7.44,0,0,1,3.85,3.14,5.67,5.67,0,0,1-1.85,8,7.65,7.65,0,0,1-5.77,1.13c-.08,0-.12.1,0,.12a7.58,7.58,0,0,0,8.79-4.49A6.16,6.16,0,0,0,202.47,185Z" style="fill: rgb(38, 50, 56); transform-origin: 197.61px 187.908px;" id="elcn46selc4pw" class="animable"></path><path d="M168.24,197.15s-4.08-6.09-1.6-10.1c1.41-2.28,6.81-2.55,6.81-2.55a9.75,9.75,0,0,1,5.77-4.73c4.39-1.49,13.42,1.8,13.42,1.8s3.69-.82,6.38.75c3.68,2.16,4.52,8.24-.82,11.54-3.74,2.32-9.45-.63-9.45-.63-.51.12-5.46,3.83-9.92-.47,0,0-3,3.21-6.06,1.49A4.71,4.71,0,0,1,168.24,197.15Z" style="fill: rgb(38, 50, 56); transform-origin: 183.916px 188.268px;" id="elp0gfdx7udc" class="animable"></path><path d="M172.29,208.37s-3.8-6.51-6.71-5.2-.42,10.49,2.76,12a3.34,3.34,0,0,0,4.61-1.43Z" style="fill: rgb(173, 99, 89); transform-origin: 168.62px 209.293px;" id="elddjofls0qtc" class="animable"></path><path d="M166.36,205.78c-.05,0-.07.07,0,.09,2.23,1.12,3.26,3.35,3.93,5.63a1.85,1.85,0,0,0-2.72-.73c-.06,0,0,.14.06.13a2,2,0,0,1,2.19.9,9.64,9.64,0,0,1,.93,1.91c.09.22.47.14.42-.11l0,0C171.42,210.62,169.48,206.34,166.36,205.78Z" style="fill: rgb(38, 50, 56); transform-origin: 168.753px 209.809px;" id="elbj29npseesn" class="animable"></path><path d="M182.55,178.52a28.88,28.88,0,0,0-8.37-.66c-3.13.27-9.55,1-13.45,6.27-3.24,4.32-1.57,10.83-1.35,12.17s2.53,9.21,5.84,10.52.68-12.35,4.29-17.84S182.55,178.52,182.55,178.52Z" style="fill: rgb(255, 199, 39); transform-origin: 170.652px 192.351px;" id="elhuv3s34uho8" class="animable"></path><g id="el8p8fvmhttmw"><path d="M182.56,178.52s-9.44,5-13.05,10.46-1,19.15-4.29,17.85c-1.46-.58-2.35-1.71-3.33-3.73-.25-4.1,0-10.61,2.43-15.59,2.25-4.67,7.15-7.84,12.73-9.71A32.74,32.74,0,0,1,182.56,178.52Z" style="opacity: 0.1; transform-origin: 172.187px 192.358px;" class="animable"></path></g><path d="M167.74,214.73c-.51-3.68,1.09-14.17,3.77-20.57s13.34-12.07,15-12.32c3.9-.6,5.46.28,6-.19s-4.06-2.53-5.28-2.94-4.48-1.33-6.15-.93-11.78,3.65-14.6,8.86-5.48,18.71-3.83,21.67c.4.71,1.52,1,2.07,2,.72,1.32,1.37,2.89,2,3.79C167.19,214.81,167.79,215.05,167.74,214.73Z" style="fill: rgb(255, 199, 39); transform-origin: 177.348px 196.275px;" id="ell1zw5iuymk" class="animable"></path><path d="M171.86,191.48a18.87,18.87,0,0,1-2.9-1.3,14.13,14.13,0,0,1-2.64-1.83c0-.06-.14,0-.09.08a10.47,10.47,0,0,0,2.5,2.15,8.73,8.73,0,0,0,3.09,1.1C171.94,191.7,172,191.52,171.86,191.48Z" style="fill: rgb(38, 50, 56); transform-origin: 169.08px 190.004px;" id="ely0cf4ofy1yg" class="animable"></path><path d="M166.93,211.11a6.75,6.75,0,0,0-.55-.65,4,4,0,0,1-.53-.83,8.51,8.51,0,0,0-.79-1.67,6.69,6.69,0,0,0-1.11-1,2.48,2.48,0,0,1-1-1.32c0-.08-.14-.06-.12,0,.23,1.1,1.14,1.73,1.82,2.54a12.91,12.91,0,0,1,.9,1.78,2.85,2.85,0,0,0,1.28,1.31C166.88,211.3,167,211.2,166.93,211.11Z" style="fill: rgb(38, 50, 56); transform-origin: 164.89px 208.431px;" id="elif4gvy9vn1h" class="animable"></path><path d="M167.34,206.93c-.43-.34-.88-.63-1.28-1a13.37,13.37,0,0,1-1.07-1.19c-.32-.41-.62-.85-.94-1.26s-.81-.95-1.16-1.46c0-.07-.14,0-.1.08.37.53.64,1.12,1,1.66a13.05,13.05,0,0,0,1,1.34,9.2,9.2,0,0,0,1.13,1.12,4.25,4.25,0,0,0,1.39.78A0,0,0,0,0,167.34,206.93Z" style="fill: rgb(38, 50, 56); transform-origin: 165.061px 204.496px;" id="els6g8ebuk8gr" class="animable"></path><path d="M167.9,203.1a10.53,10.53,0,0,1-2.45-1.8c-.7-.7-1.36-1.45-2-2.2-.05,0-.14,0-.1.07a12.32,12.32,0,0,0,1.83,2.48,5.42,5.42,0,0,0,2.67,1.57C167.91,203.24,168,203.14,167.9,203.1Z" style="fill: rgb(38, 50, 56); transform-origin: 165.642px 201.161px;" id="elqlbmqmpgzw" class="animable"></path><path d="M168.61,199.4a3.58,3.58,0,0,1-1.17-.76q-.6-.51-1.17-1c-.37-.34-.75-.68-1.11-1a3.62,3.62,0,0,1-.94-1.19c0-.06-.13,0-.11,0a3.67,3.67,0,0,0,.72,1.33A10.12,10.12,0,0,0,166,198a14.17,14.17,0,0,0,1.28,1,2.44,2.44,0,0,0,1.34.55A.09.09,0,0,0,168.61,199.4Z" style="fill: rgb(38, 50, 56); transform-origin: 166.382px 197.487px;" id="elsm811zw1q6" class="animable"></path><path d="M168.72,194.88c-.4-.26-.81-.52-1.19-.81s-.76-.59-1.12-.9-.78-.65-1.14-1c-.05,0-.14,0-.09.08a9.08,9.08,0,0,0,.95,1.18,10.59,10.59,0,0,0,1.13,1,11.38,11.38,0,0,0,1.22.83,3.82,3.82,0,0,0,1.35.57c.07,0,.13-.09.07-.14A6.94,6.94,0,0,0,168.72,194.88Z" style="fill: rgb(38, 50, 56); transform-origin: 167.545px 194px;" id="elrvzpi21n5oc" class="animable"></path><path d="M174.2,188.82c-.46-.37-.9-.73-1.38-1a17.15,17.15,0,0,0-1.54-.9,16.53,16.53,0,0,0-3.22-1.29c-.06,0-.12.07-.06.11,2,1.1,4.11,2.11,6.13,3.23A.06.06,0,0,0,174.2,188.82Z" style="fill: rgb(38, 50, 56); transform-origin: 171.111px 187.304px;" id="el0tf20a36p5n" class="animable"></path><path d="M175.72,185.25a7.23,7.23,0,0,0-1.48-.9,16.18,16.18,0,0,0-3.47-1.06c-.08,0-.12.08,0,.11,1.07.42,2.15.83,3.2,1.31a14.6,14.6,0,0,1,1.52.79c.49.29.9.69,1.38,1a0,0,0,0,0,.07-.06A4.45,4.45,0,0,0,175.72,185.25Z" style="fill: rgb(38, 50, 56); transform-origin: 173.817px 184.895px;" id="elnu2jckxxtsr" class="animable"></path><path d="M178.44,183.18a8.58,8.58,0,0,0-1.39-.92,9.25,9.25,0,0,0-3-1c-.07,0-.09.09,0,.11a17.76,17.76,0,0,1,2.89,1.28c.46.25.91.53,1.36.8s.87.65,1.34.87c0,0,.07,0,.05-.06A8.64,8.64,0,0,0,178.44,183.18Z" style="fill: rgb(38, 50, 56); transform-origin: 176.842px 182.79px;" id="eldik8s5bf3m4" class="animable"></path><path d="M180.23,180.91c-.45-.23-.91-.43-1.37-.63a4.63,4.63,0,0,0-1.41-.44c-.07,0-.08.09,0,.12.87.43,1.73.88,2.59,1.33a12.85,12.85,0,0,1,2.12,1.63s.08,0,.06,0A4.71,4.71,0,0,0,180.23,180.91Z" style="fill: rgb(38, 50, 56); transform-origin: 179.808px 181.38px;" id="elv8secqsn70q" class="animable"></path><path d="M182.82,179.74a7.65,7.65,0,0,0-2.74-1c-.07,0-.09.11,0,.12a9.27,9.27,0,0,1,2.55,1.19,12.93,12.93,0,0,1,2.2,1.77s.1,0,.07,0A6.4,6.4,0,0,0,182.82,179.74Z" style="fill: rgb(38, 50, 56); transform-origin: 182.463px 180.28px;" id="elsmijmiaohtn" class="animable"></path><path d="M186.73,180.6a3.8,3.8,0,0,0-.42-.48,6.66,6.66,0,0,0-1-.82,13.51,13.51,0,0,0-2.4-1.14c-.07,0-.11.09,0,.12a10.31,10.31,0,0,1,2.27,1.21,8.45,8.45,0,0,1,1,.8c.15.14.29.29.43.44a2.52,2.52,0,0,0,.41.45s.11,0,.09-.06A1.47,1.47,0,0,0,186.73,180.6Z" style="fill: rgb(38, 50, 56); transform-origin: 184.977px 179.67px;" id="elyxy3yokspgf" class="animable"></path><path d="M189,180.33a8.81,8.81,0,0,0-.84-.67,8.64,8.64,0,0,0-.91-.57c-.32-.17-.66-.33-1-.51a.06.06,0,1,0-.06.1,6.42,6.42,0,0,1,.93.6l.85.61.84.62a10.34,10.34,0,0,0,.84.64.05.05,0,0,0,.07-.07A4.84,4.84,0,0,0,189,180.33Z" style="fill: rgb(38, 50, 56); transform-origin: 187.939px 179.861px;" id="el8cc9mfw56j5" class="animable"></path><path d="M161.86,237.26c-25.94,27-63.77,95.4-68.45,105.21-3.17,6.66,31.63,24.21,33.11,19.37,1.89-6.2,32.21-82.74,40.26-111.63C171.22,234.29,167.22,231.68,161.86,237.26Z" style="fill: rgb(173, 99, 89); transform-origin: 130.947px 298.629px;" id="elr3rj3t5qxbf" class="animable"></path><path d="M128.16,357.26c-1.22,3.32-5.35,17.4-8.24,19.16s-18.06,1.38-25.7,1.38-9.15-2.13-9-4.77,16.17-3.13,16.17-3.13S79.93,376,74.55,377s-17.81,4.14-19.61-.33c-.81-2,2.59-4,2.59-4s-5.21,1.52-6-1.07c-.94-2.95,3.2-4.57,3.2-4.57s-3.25.65-3.33-1.75c-.17-5.37,20.21-8,20.21-8s-15.6,7.6-16.1,3.22c-.7-6.07,31.28-12.72,34.61-15.36a22.7,22.7,0,0,0,5.33-6.58Z" style="fill: rgb(173, 99, 89); transform-origin: 89.7756px 358.783px;" id="elcupsow1m12c" class="animable"></path><path d="M85.31,374.37a2.34,2.34,0,0,1,.72-2.05,6.76,6.76,0,0,1,1.87-1.21,25.2,25.2,0,0,1,4.38-1.42c3-.76,6.1-1.3,9.17-2.1A37.67,37.67,0,0,0,92,368.65a17.38,17.38,0,0,0-4.5,1.73A5.91,5.91,0,0,0,85.63,372,2.45,2.45,0,0,0,85.31,374.37Z" style="fill: rgb(38, 50, 56); transform-origin: 93.2946px 370.978px;" id="elitm4pmyfrok" class="animable"></path><path d="M57.53,372.66c2.21-.54,4.38-1.16,6.55-1.79s4.33-1.29,6.48-1.94l6.46-2c2.15-.68,4.3-1.35,6.47-2a50.69,50.69,0,0,0-6.69,1.2c-2.21.5-4.39,1.14-6.55,1.79s-4.31,1.39-6.43,2.19S59.59,371.7,57.53,372.66Z" style="fill: rgb(38, 50, 56); transform-origin: 70.51px 368.795px;" id="elsw026m1svc" class="animable"></path><path d="M78.32,359.56a42.94,42.94,0,0,0-6.18.86,57.07,57.07,0,0,0-6,1.55,55.61,55.61,0,0,0-5.85,2.19A44.76,44.76,0,0,0,54.69,367c2-.68,3.89-1.44,5.85-2.09s3.9-1.33,5.87-1.93,3.94-1.2,5.92-1.79S76.31,360.11,78.32,359.56Z" style="fill: rgb(38, 50, 56); transform-origin: 66.505px 363.28px;" id="el3hinp6qpv6p" class="animable"></path><path d="M75.17,354.45a38.43,38.43,0,0,0-9.84,2.07,37.88,37.88,0,0,0-9,4.39c3.17-1.13,6.25-2.32,9.4-3.37S72,355.48,75.17,354.45Z" style="fill: rgb(38, 50, 56); transform-origin: 65.75px 357.68px;" id="elikvez2bs7s" class="animable"></path><path d="M166.46,257.69c-6.16,26.48-35.58,98.89-35.58,98.89l-26.44-12.74L91.11,337.4s45.4-70.93,64-94.13c1.44-1.79,2.74-3.32,3.94-4.59C170.51,226.38,171.21,237.28,166.46,257.69Z" style="fill: rgb(255, 199, 39); transform-origin: 130.168px 295.039px;" id="elampvzziuj3h" class="animable"></path><path d="M133.08,348.68c-15.56-9-33.27-16.15-36.27-17.61-.14-.07-.24.16-.09.23,3,1.28,22.38,11.62,36.26,17.64C133.14,349,133.23,348.77,133.08,348.68Z" style="fill: rgb(38, 50, 56); transform-origin: 114.901px 340.003px;" id="eljrun6oi02dj" class="animable"></path><path d="M146.07,317.82l5.19-14.52c1.73-4.83,3.48-9.66,5.16-14.51s3.4-9.7,5-14.56,3.23-9.75,4.56-14.72c-1,5-2.49,10-4,14.89s-3.19,9.78-4.88,14.64-3.49,9.67-5.33,14.46S148.07,313.08,146.07,317.82Z" style="fill: rgb(38, 50, 56); transform-origin: 156.025px 288.665px;" id="el5xpiki2b1uo" class="animable"></path><path d="M166.69,262.64a13.78,13.78,0,0,1-1.2,2.88,15.47,15.47,0,0,1-.83,1.33,7.65,7.65,0,0,1-1,1.2c.44-1,.91-1.86,1.4-2.77A25.12,25.12,0,0,1,166.69,262.64Z" style="fill: rgb(38, 50, 56); transform-origin: 165.175px 265.345px;" id="eli74wv1zdfrj" class="animable"></path></g><g id="freepik--character-2--inject-78" class="animable" style="transform-origin: 257.907px 334.957px;"><path d="M158.82,411s-39.65,28.44-39.67,28.47c-6.63,7-12.57,13-15.93,15.8l0,.05A6.71,6.71,0,0,1,100.6,457a.11.11,0,0,1-.08,0c-3.41-.57-60.75-51.91-62.14-54.38s5.51-6.64,9.33-6.42,34.56,10.07,34.56,10.07l40-28.1Z" style="fill: rgb(247, 169, 160); transform-origin: 98.5089px 417.589px;" id="elhpmyf5d3un9" class="animable"></path><path d="M38.37,402.59c1.4,2.46,58.74,53.82,62.15,54.38h.09a6.87,6.87,0,0,0,2.56-1.67l.06-.05c3.35-2.81,9.28-8.82,15.92-15.79l6.89-5L89.76,401l-7.48,5.26S51.54,396.4,47.7,396.17,37,400.13,38.37,402.59Z" style="fill: rgb(219, 219, 219); transform-origin: 82.1159px 426.565px;" id="el4rc3f3ozypo" class="animable"></path><g id="elc3ckyxocwbl"><path d="M92.54,445.72a11.56,11.56,0,0,1,2.28-1.66,12,12,0,0,1,5.37-1.56,11.25,11.25,0,0,1,5.5,1.22,13.57,13.57,0,0,1,4.28,3.66c.07.08-.07.18-.13.1a11.61,11.61,0,0,0-9.74-3.9,11.35,11.35,0,0,0-4.87,1.56,11.87,11.87,0,0,0-2,1.52,10.72,10.72,0,0,0-.87.91c-.27.32-.44.62-.89.68a.42.42,0,0,1-.44-.36C90.87,447.12,92,446.19,92.54,445.72Z" style="opacity: 0.1; transform-origin: 100.502px 445.372px;" class="animable"></path></g><g id="el5mmr9jmcaco"><path d="M50.5,397.45A8.68,8.68,0,0,1,54.35,401a22.28,22.28,0,0,1,2.38,5,21.83,21.83,0,0,1,1.1,5.36,24,24,0,0,1,0,2.68,9,9,0,0,1-.35,2.69.16.16,0,0,1-.31,0c-.11-.78,0-1.62,0-2.4s-.11-1.79-.23-2.67a28.23,28.23,0,0,0-1.16-5.07,16.75,16.75,0,0,0-5.63-8.46A.37.37,0,0,1,50.5,397.45Z" style="opacity: 0.1; transform-origin: 53.9061px 407.13px;" class="animable"></path></g><g id="eli4fdvaq5gxs"><path d="M85.09,408.4c8.34,7.72,16.64,15.5,25.07,23.13,2.39,2.17,4.75,4.36,7.18,6.48.08.07,0,.18-.12.12a319,319,0,0,1-25.75-22.42c-2.3-2.27-4.52-4.62-6.72-7A.24.24,0,0,1,85.09,408.4Z" style="opacity: 0.1; transform-origin: 101.049px 423.256px;" class="animable"></path></g><g id="elqube3xyypv"><path d="M117.36,436a.46.46,0,0,1,.15-.16,1.67,1.67,0,0,1,.23-.12l.42-.22c.31-.15.61-.29.92-.42.61-.26,1.23-.48,1.85-.7.09,0,.15.12.06.15-.59.28-1.17.57-1.75.88l-.85.43-.45.24a1,1,0,0,1-.45.16A.15.15,0,0,1,117.36,436Z" style="opacity: 0.1; transform-origin: 119.182px 435.31px;" class="animable"></path></g><g id="elamv1byqbz7"><path d="M113.47,432.31a.61.61,0,0,1,.16-.16,2.39,2.39,0,0,1,.22-.12l.43-.22c.3-.15.6-.29.91-.42.61-.25,1.23-.48,1.85-.69.09,0,.15.11.07.15-.6.27-1.18.56-1.76.87l-.85.44-.44.23a1.13,1.13,0,0,1-.45.17A.17.17,0,0,1,113.47,432.31Z" style="opacity: 0.1; transform-origin: 115.299px 431.63px;" class="animable"></path></g><g id="ele6riwv3uvjw"><path d="M109.58,428.65a.52.52,0,0,1,.16-.17l.22-.12.43-.21c.3-.16.61-.3.92-.43.61-.25,1.22-.48,1.85-.69.08,0,.14.11.06.15-.59.27-1.18.57-1.75.87l-.85.44-.45.23a1.08,1.08,0,0,1-.45.17C109.61,428.89,109.51,428.74,109.58,428.65Z" style="opacity: 0.1; transform-origin: 111.407px 427.96px;" class="animable"></path></g><g id="elfewiyxq0bi9"><path d="M105.69,425a.52.52,0,0,1,.16-.17l.23-.12.42-.21c.3-.15.61-.3.92-.43.61-.25,1.23-.48,1.85-.69a.08.08,0,0,1,.06.15c-.59.27-1.17.57-1.75.87l-.85.44-.45.23a1,1,0,0,1-.45.17A.16.16,0,0,1,105.69,425Z" style="opacity: 0.1; transform-origin: 107.525px 424.307px;" class="animable"></path></g><g id="eliaku67boit"><path d="M101.81,421.31a.85.85,0,0,1,.16-.17l.22-.11.43-.22c.3-.15.6-.3.91-.43.61-.25,1.23-.48,1.85-.69a.08.08,0,0,1,.06.15c-.59.27-1.17.57-1.75.87-.28.15-.56.3-.85.44l-.44.24a1.11,1.11,0,0,1-.45.16A.16.16,0,0,1,101.81,421.31Z" style="opacity: 0.1; transform-origin: 103.64px 420.617px;" class="animable"></path></g><g id="el9o24wh1i2o7"><path d="M97.92,417.64a.61.61,0,0,1,.16-.16,2.39,2.39,0,0,1,.22-.12l.43-.22c.3-.15.61-.29.92-.42.61-.26,1.22-.48,1.85-.7.08,0,.14.11.06.15-.59.28-1.18.57-1.75.88l-.85.43-.45.24a1.06,1.06,0,0,1-.45.16A.16.16,0,0,1,97.92,417.64Z" style="opacity: 0.1; transform-origin: 99.7482px 416.95px;" class="animable"></path></g><g id="ellixk7r1pdlb"><path d="M94,414a.61.61,0,0,1,.16-.16,1.67,1.67,0,0,1,.23-.12l.42-.22c.3-.15.61-.29.92-.42.61-.26,1.23-.48,1.85-.69a.08.08,0,0,1,.06.15c-.59.27-1.17.56-1.75.87l-.85.43-.45.24a1,1,0,0,1-.45.16A.16.16,0,0,1,94,414Z" style="opacity: 0.1; transform-origin: 95.8345px 413.312px;" class="animable"></path></g><g id="elzb98v1uhz09"><path d="M90.15,410.31a.52.52,0,0,1,.16-.17l.22-.12.42-.22c.31-.15.61-.29.92-.42.61-.25,1.23-.48,1.85-.69a.08.08,0,0,1,.06.15c-.59.27-1.17.57-1.75.87l-.85.44-.44.23a1.13,1.13,0,0,1-.45.17C90.17,410.55,90.08,410.4,90.15,410.31Z" style="opacity: 0.1; transform-origin: 91.9778px 409.617px;" class="animable"></path></g><g id="el60sf56xkl6l"><path d="M86.26,406.64a.52.52,0,0,1,.16-.17l.22-.12.43-.21c.3-.15.6-.3.92-.43.61-.25,1.22-.48,1.85-.69.08,0,.14.11.06.15-.6.27-1.18.57-1.76.87l-.84.44-.45.23a1.08,1.08,0,0,1-.45.17C86.28,406.88,86.19,406.73,86.26,406.64Z" style="opacity: 0.1; transform-origin: 88.0866px 405.95px;" class="animable"></path></g><path d="M345.45,319.69c-.83.45-13.36,19-18.86,21.75-1.64.81-97.84-18.14-120.4-13.57-32.7,6.63-102.51,59.78-102.51,59.78l33.65,43.14s60.92-46.51,82.92-51.43c11-2.47,83.19,10,117.52,8.06,42.47-2.41,55.06-42.19,55.06-42.19S351.05,324.2,345.45,319.69Z" style="fill: rgb(69, 90, 100); transform-origin: 248.255px 375.24px;" id="eljc8jku6qq3b" class="animable"></path><path d="M114.81,382.33c5.16,6.48,3.77,4.55,8.85,11.08,2.49,3.2,18.83,24.23,20.62,27.62,0,.07-.07.16-.13.1C141.36,418.5,125.39,397.19,123,394c-5-6.63-3.46-4.78-8.34-11.47A.12.12,0,0,1,114.81,382.33Z" style="fill: rgb(38, 50, 56); transform-origin: 129.445px 401.727px;" id="eli14phasv6yq" class="animable"></path><path d="M146.44,413.25c17.91-12.43,36-24.65,55.13-35.24,2.4-1.31,4.84-2.55,7.33-3.7.62-.28,1.24-.57,1.88-.82s1.27-.53,1.93-.75a16.42,16.42,0,0,1,4-1,72.94,72.94,0,0,1,8.22-.24c2.73,0,5.46.14,8.19.27,10.9.55,21.78,1.38,32.65,2.35L298.41,377c10.86.93,21.73,1.85,32.61,2.36,2.72.12,5.45.21,8.17.2a39.63,39.63,0,0,0,8.08-.61,51.05,51.05,0,0,0,14.92-6.31,114.08,114.08,0,0,0,13.36-9.37,155.31,155.31,0,0,0,12.19-10.89,155.83,155.83,0,0,1-12.05,11.07,115.78,115.78,0,0,1-13.26,9.59,50.51,50.51,0,0,1-15.05,6.46,40.31,40.31,0,0,1-8.19.67c-2.74,0-5.47-.06-8.19-.17-10.91-.45-21.79-1.32-32.66-2.2l-32.6-2.73c-10.87-.87-21.74-1.86-32.62-2.43-2.72-.14-5.44-.26-8.15-.31a73.32,73.32,0,0,0-8.13.2,15.55,15.55,0,0,0-3.88.92c-.63.21-1.26.46-1.89.72s-1.25.52-1.86.8c-2.48,1.12-4.91,2.34-7.3,3.63-9.59,5.17-18.87,10.92-28.07,16.75S155.48,407.15,146.44,413.25Z" style="fill: rgb(38, 50, 56); transform-origin: 267.09px 382.815px;" id="elft8odcqepwd" class="animable"></path><path d="M37.18,401.52c1.43,2.52,60,55.17,63.5,55.77,1.33.23,9.49-7.85,19.08-17.9L82.1,405.34S50.66,395.21,46.75,395,35.75,399,37.18,401.52Z" style="fill: rgb(255, 199, 39); transform-origin: 78.3762px 426.144px;" id="elpw7pi0k2vrb" class="animable"></path><g id="elq756wr50aug"><path d="M119.76,439.39c-9.59,10.05-17.75,18.13-19.08,17.9-.64-.11-3.11-2-6.74-4.91L62.43,399.19c9.49,2.87,19.67,6.15,19.67,6.15Z" style="opacity: 0.1; transform-origin: 91.095px 428.242px;" class="animable"></path></g><path d="M40.13,399.93c10,8.59,49.69,44.16,59,53.41.08.07,0,.13,0,.06C88.9,445.11,49.53,409.21,40,400.09,39.78,399.9,39.92,399.75,40.13,399.93Z" style="fill: rgb(38, 50, 56); transform-origin: 69.5272px 426.64px;" id="el3dclzxgff88" class="animable"></path><path d="M52.41,396.25a10.58,10.58,0,0,1,3.72,7.68,10.26,10.26,0,0,1-2.52,7.21c0,.06-.16,0-.12-.11a12.23,12.23,0,0,0-1.19-14.66C52.23,396.3,52.33,396.18,52.41,396.25Z" style="fill: rgb(38, 50, 56); transform-origin: 54.2084px 403.696px;" id="elpqve97w0pes" class="animable"></path><path d="M77.42,402.89c4,3.48,7.28,9,6.84,14.37,0,.21-.32.18-.38,0a72.8,72.8,0,0,0-7-14A.34.34,0,0,1,77.42,402.89Z" style="fill: rgb(38, 50, 56); transform-origin: 80.5808px 410.109px;" id="el85aamgoco73" class="animable"></path><path d="M73.32,401.35c4,3.48,7.29,9,6.84,14.37,0,.21-.31.18-.38,0a72.75,72.75,0,0,0-7-14A.33.33,0,0,1,73.32,401.35Z" style="fill: rgb(38, 50, 56); transform-origin: 76.4726px 408.553px;" id="el8wa43oym1hy" class="animable"></path><path d="M69.22,399.8c4,3.48,7.29,9,6.84,14.37,0,.21-.31.18-.37,0a73.38,73.38,0,0,0-7-14A.33.33,0,0,1,69.22,399.8Z" style="fill: rgb(38, 50, 56); transform-origin: 72.3822px 407.013px;" id="el9gsutaxbpee" class="animable"></path><path d="M65.13,398.26c4,3.48,7.28,9,6.84,14.37,0,.21-.32.18-.38,0a73.17,73.17,0,0,0-7-14A.33.33,0,0,1,65.13,398.26Z" style="fill: rgb(38, 50, 56); transform-origin: 68.2817px 405.463px;" id="el1bxey6ungmc" class="animable"></path><path d="M105,441.76c4.4,4-1.77,10.82-6.18,6.84S100.57,437.78,105,441.76Z" style="fill: rgb(255, 255, 255); transform-origin: 101.907px 445.181px;" id="elqk2vq037kyq" class="animable"></path><path d="M77.73,394.63c-.34,4.64,1.35,9.27,2.4,13.72a.66.66,0,0,0,1,.32.14.14,0,0,0,.22,0,27.83,27.83,0,0,0,5.46-13.26c.31-2.82-.74-6.68-4.21-6.82C79.31,388.46,77.93,391.92,77.73,394.63Zm2.75-3.42c4.23-3.92,5.13,2.83,4.82,4.9a30.12,30.12,0,0,1-1,3.94,81.24,81.24,0,0,1-3,7.81c-.38-2.22-1-4.38-1.42-6.58C79.35,398.65,78.14,393.38,80.48,391.21Z" style="fill: rgb(38, 50, 56); transform-origin: 82.2736px 398.688px;" id="el10zrm42flos" class="animable"></path><path d="M97.56,418.7c2-2.84-.43-6-2.86-7.49a27.77,27.77,0,0,0-13.85-3.71c-.11,0-.15.09-.14.18a.64.64,0,0,0-.35,1c2.89,3.54,5.55,7.69,9.44,10.24C92.08,420.39,95.67,421.39,97.56,418.7Zm-11.71-5.57c-1.47-1.7-2.84-3.47-4.37-5.13a83.11,83.11,0,0,1,8,2.35A29.88,29.88,0,0,1,93.23,412c1.83,1,6.64,5.82,1,6.81C91.05,419.34,87.59,415.17,85.85,413.13Z" style="fill: rgb(38, 50, 56); transform-origin: 89.2667px 413.942px;" id="elklp9echsn7" class="animable"></path><path d="M172.41,440.62l-47.35,12c-8.72,4.06-16.44,7.47-20.6,8.86a.09.09,0,0,1-.07,0c-1.57.52-2.62.76-3,.61,0,0-.06,0-.08,0-3-1.77-37.51-70.55-37.91-73.36s7.56-4.15,11-2.55,28.47,22,28.47,22l47.49-11.51Z" style="fill: rgb(247, 169, 160); transform-origin: 117.898px 423.814px;" id="elssyyu8p3e6m" class="animable"></path><path d="M63.41,388.7c.4,2.8,34.94,71.59,37.9,73.36,0,0,0,0,.09,0a6.77,6.77,0,0,0,3-.61.09.09,0,0,0,.07,0c4.16-1.38,11.88-4.8,20.6-8.86l8.23-2.09L111.82,406l-8.89,2.16s-25-20.42-28.49-22S63,385.89,63.41,388.7Z" style="fill: rgb(219, 219, 219); transform-origin: 98.3474px 423.772px;" id="elymopnc7hz0j" class="animable"></path><g id="el2d5d3inu1tt"><path d="M96.21,448.17a11.68,11.68,0,0,1,2.72-.75,12,12,0,0,1,5.57.45,11.2,11.2,0,0,1,4.72,3.09,13.44,13.44,0,0,1,2.7,4.93c0,.1-.13.14-.16,0a11.58,11.58,0,0,0-7.72-7.08,11.32,11.32,0,0,0-5.11-.27,12.65,12.65,0,0,0-2.42.7,12,12,0,0,0-1.14.55c-.37.2-.63.43-1.07.32a.4.4,0,0,1-.29-.49C94.15,448.89,95.57,448.43,96.21,448.17Z" style="opacity: 0.1; transform-origin: 102.958px 451.629px;" class="animable"></path></g><g id="el8yvebk9s4lg"><path d="M76.57,388.52a8.68,8.68,0,0,1,2.36,4.65,23,23,0,0,1-.42,10.95,24.38,24.38,0,0,1-.91,2.52A9.16,9.16,0,0,1,76.32,409a.16.16,0,0,1-.28-.13,23.61,23.61,0,0,1,.81-2.27,25.12,25.12,0,0,0,.73-2.57,28,28,0,0,0,.71-5.16A16.77,16.77,0,0,0,76,389,.37.37,0,0,1,76.57,388.52Z" style="opacity: 0.1; transform-origin: 77.6564px 398.723px;" class="animable"></path></g><g id="elou398ppqk4e"><path d="M105.05,411c5.08,10.17,10.08,20.38,15.26,30.51,1.47,2.87,2.91,5.75,4.42,8.6,0,.09-.1.15-.15.06a317,317,0,0,1-16.15-30.07c-1.34-2.94-2.59-5.92-3.81-8.91A.24.24,0,0,1,105.05,411Z" style="opacity: 0.1; transform-origin: 114.672px 430.557px;" class="animable"></path></g><g id="elpjckhg3vokj"><path d="M125.47,448.22a.45.45,0,0,1,.21-.1,1.9,1.9,0,0,1,.25,0l.47-.06c.34,0,.67-.06,1-.07.66,0,1.32,0,2,0a.08.08,0,0,1,0,.16c-.65.05-1.3.12-1.95.2l-1,.1-.5.06a1,1,0,0,1-.48,0A.16.16,0,0,1,125.47,448.22Z" style="opacity: 0.1; transform-origin: 127.429px 448.265px;" class="animable"></path></g><g id="elmlp04od3f4"><path d="M123.13,443.41a.81.81,0,0,1,.21-.1l.25,0,.47,0c.34,0,.68-.06,1-.07.66,0,1.32,0,2,0,.09,0,.1.16,0,.16-.65.05-1.3.12-2,.2l-.94.11-.51.06a.93.93,0,0,1-.47,0A.16.16,0,0,1,123.13,443.41Z" style="opacity: 0.1; transform-origin: 125.043px 443.52px;" class="animable"></path></g><g id="elwcviirtv3pf"><path d="M120.79,438.6a.81.81,0,0,1,.21-.1l.25,0,.48-.05c.33,0,.67-.06,1-.07.66,0,1.31,0,2,0,.09,0,.1.15,0,.16-.66,0-1.3.11-2,.19l-1,.11-.5.06a1.11,1.11,0,0,1-.48,0A.17.17,0,0,1,120.79,438.6Z" style="opacity: 0.1; transform-origin: 122.739px 438.653px;" class="animable"></path></g><g id="elpt5e5idojoc"><path d="M118.46,433.8a.38.38,0,0,1,.2-.1l.25,0,.48-.06c.34,0,.67-.06,1-.07.66,0,1.32,0,2,0,.09,0,.1.16,0,.16-.65.05-1.3.12-1.95.2l-1,.1-.5.07a1.11,1.11,0,0,1-.48,0A.16.16,0,0,1,118.46,433.8Z" style="opacity: 0.1; transform-origin: 120.408px 433.848px;" class="animable"></path></g><g id="el902xj6gjjc"><path d="M116.12,429a.81.81,0,0,1,.21-.1l.25,0,.47-.05c.34,0,.67-.06,1-.07.66,0,1.32,0,2,0a.09.09,0,0,1,0,.17c-.65,0-1.3.11-2,.19l-1,.11-.5.06a1.11,1.11,0,0,1-.48,0A.17.17,0,0,1,116.12,429Z" style="opacity: 0.1; transform-origin: 118.05px 429.058px;" class="animable"></path></g><g id="ell8l3hqbjgwl"><path d="M113.78,424.19a.45.45,0,0,1,.21-.1l.25,0,.48-.05c.33,0,.67-.06,1-.07.65,0,1.31,0,2,0a.08.08,0,0,1,0,.16c-.65,0-1.3.11-1.94.19l-1,.11-.5.06a1,1,0,0,1-.48,0C113.72,424.42,113.68,424.25,113.78,424.19Z" style="opacity: 0.1; transform-origin: 115.76px 424.245px;" class="animable"></path></g><g id="elko62fdcdtek"><path d="M111.45,419.38a.47.47,0,0,1,.2-.1,2.13,2.13,0,0,1,.25,0l.48-.05c.33,0,.67-.07,1-.08.66,0,1.31,0,2,0,.09,0,.1.16,0,.16-.65,0-1.3.12-2,.2l-1,.11-.5.06a1,1,0,0,1-.48,0A.15.15,0,0,1,111.45,419.38Z" style="opacity: 0.1; transform-origin: 113.363px 419.43px;" class="animable"></path></g><g id="el61vapagpgpq"><path d="M109.11,414.57a.75.75,0,0,1,.2-.1l.26,0,.47-.05c.34,0,.67-.06,1-.07.66,0,1.32,0,2,0a.09.09,0,0,1,0,.17c-.65,0-1.3.11-2,.19l-1,.11-.5.06a1.11,1.11,0,0,1-.48,0A.17.17,0,0,1,109.11,414.57Z" style="opacity: 0.1; transform-origin: 111.04px 414.628px;" class="animable"></path></g><g id="ely8rc7u1led"><path d="M106.77,409.77a.45.45,0,0,1,.21-.1,2.13,2.13,0,0,1,.25,0l.47-.06c.34,0,.68-.06,1-.07.66,0,1.32,0,2,0a.08.08,0,0,1,0,.16c-.65.05-1.3.12-2,.2l-.94.1-.51.06a.94.94,0,0,1-.47,0A.16.16,0,0,1,106.77,409.77Z" style="opacity: 0.1; transform-origin: 108.731px 409.815px;" class="animable"></path></g><path d="M62.7,388.12c.41,2.87,35.69,73.28,38.73,75.11,1.15.71,11.7-3.83,24.3-9.68l-22.61-45.46S77.56,387.17,74,385.52,62.29,385.24,62.7,388.12Z" style="fill: rgb(255, 199, 39); transform-origin: 94.2075px 424.056px;" id="eldhox20fdeyn" class="animable"></path><path d="M66,387.72C72.23,399.37,96.15,447,101.39,459c0,.1,0,.13-.07,0-6.4-11.42-29.94-59.22-35.49-71.2C65.71,387.56,65.89,387.47,66,387.72Z" style="fill: rgb(38, 50, 56); transform-origin: 83.5901px 423.329px;" id="elmde4pe0yn1i" class="animable"></path><path d="M78.8,388.78a10.59,10.59,0,0,1,.66,8.5,10.31,10.31,0,0,1-5,5.8c-.07,0-.14-.1-.07-.15a12.26,12.26,0,0,0,4.25-14.08A.08.08,0,1,1,78.8,388.78Z" style="fill: rgb(38, 50, 56); transform-origin: 77.208px 395.904px;" id="elr5nwa3htvlf" class="animable"></path><path d="M99.65,404.1c2.43,4.69,3.51,11,1.12,15.87-.09.19-.36.06-.36-.12A73.12,73.12,0,0,0,99,404.31.33.33,0,0,1,99.65,404.1Z" style="fill: rgb(38, 50, 56); transform-origin: 100.546px 411.964px;" id="el8e9zxdxb66i" class="animable"></path><path d="M96.4,401.16c2.44,4.7,3.51,11,1.12,15.88-.09.19-.36,0-.36-.12a73.16,73.16,0,0,0-1.38-15.55A.33.33,0,0,1,96.4,401.16Z" style="fill: rgb(38, 50, 56); transform-origin: 97.3175px 409.048px;" id="eludkrc7hxlhr" class="animable"></path><path d="M93.15,398.23c2.44,4.69,3.51,11,1.12,15.87-.09.19-.36.06-.36-.12a73.12,73.12,0,0,0-1.38-15.54A.33.33,0,0,1,93.15,398.23Z" style="fill: rgb(38, 50, 56); transform-origin: 94.0675px 406.119px;" id="el2wxss9jogke" class="animable"></path><path d="M89.9,395.29c2.44,4.7,3.51,11,1.12,15.88-.09.19-.36.05-.36-.12a72.51,72.51,0,0,0-1.38-15.55A.33.33,0,0,1,89.9,395.29Z" style="fill: rgb(38, 50, 56); transform-origin: 90.8175px 403.183px;" id="elcry9ubt8g2h" class="animable"></path><path d="M111.1,450.35c2.64,5.31-5.61,9.42-8.25,4.1S108.45,445,111.1,450.35Z" style="fill: rgb(255, 255, 255); transform-origin: 106.975px 452.392px;" id="elx73p1iy2qvi" class="animable"></path><path d="M103,396.52c-2,4.2-2.13,9.12-2.77,13.65a.64.64,0,0,0,.8.66c0,.08.12.14.21.08a27.71,27.71,0,0,0,9.93-10.35c1.32-2.5,1.75-6.49-1.43-7.88C106.69,391.36,104.14,394.07,103,396.52Zm3.81-2.18c5.37-2.1,3.75,4.51,2.7,6.32a29.44,29.44,0,0,1-2.32,3.32,80.78,80.78,0,0,1-5.67,6.17c.46-2.2.71-4.43,1.08-6.65C103,400.86,103.8,395.5,106.77,394.34Z" style="fill: rgb(38, 50, 56); transform-origin: 106.196px 401.634px;" id="ell64zv5634k" class="animable"></path><path d="M112.62,426.18c2.9-1.92,1.8-5.77.08-8a27.71,27.71,0,0,0-11.54-8.52c-.1,0-.17,0-.19.12a.63.63,0,0,0-.68.78c1.39,4.36,2.35,9.19,5,13C106.9,425.74,109.88,428,112.62,426.18Zm-8.86-9.47c-.74-2.12-1.37-4.27-2.19-6.37,2.24,1.67,4.55,3.23,6.63,5.12a31,31,0,0,1,2.85,2.88c1.33,1.61,4,7.86-1.6,6.69C106.33,424.39,104.64,419.25,103.76,416.71Z" style="fill: rgb(38, 50, 56); transform-origin: 107.342px 418.253px;" id="el3iw65tpbv3r" class="animable"></path><path d="M350.74,323.28c-.82.45-18.8,27.52-19.19,29.09-.43,1.78,3.53,1.14,3.26,3.92,0,0-105.84,15.12-117.72,18.22-19.67,5.15-19.54,7.9-96.51,27.44l22.92,47.44s72.79-20.68,103.55-27.75c26.37-6.07,107.56-17.17,107.56-17.17,49.06-8.25,48.45-56,48.45-56S350.77,323.26,350.74,323.28Z" style="fill: rgb(69, 90, 100); transform-origin: 261.82px 386.335px;" id="elmv56g4igo9e" class="animable"></path><path d="M132.41,400c3.64,7.44,2.7,5.25,6.26,12.73,1.74,3.66,13.15,27.71,14.18,31.41,0,.08-.11.14-.15.07-2.17-3.17-13.16-27.42-14.83-31.11-3.41-7.55-2.35-5.42-5.68-13A.12.12,0,0,1,132.41,400Z" style="fill: rgb(38, 50, 56); transform-origin: 142.515px 422.085px;" id="elex2ct2lptid" class="animable"></path><path d="M330.4,349.67a91.6,91.6,0,0,1,9.35,12.8.16.16,0,0,1-.26.19c-3.24-4.15-6.59-8.28-9.59-12.61A.31.31,0,0,1,330.4,349.67Z" style="fill: rgb(38, 50, 56); transform-origin: 334.809px 356.137px;" id="el8ptc3qnhgak" class="animable"></path><path d="M350.47,323.13c.11-.13.37,0,.27.15a160.6,160.6,0,0,0-8.33,13.87c-1.21,2.2-7.22,14.75-3.07,16.32.7.27,1.4-.12,2.1-1a17,17,0,0,0,1.88-3.83c1.21-2.66,2.5-5.28,3.92-7.83a78.57,78.57,0,0,1,9.22-13.43.14.14,0,0,1,.22.17A149.35,149.35,0,0,0,345.24,347c-1.54,3.28-3.05,8.76-6.47,7.13s-.5-10.53.49-12.84A82.78,82.78,0,0,1,350.47,323.13Z" style="fill: rgb(38, 50, 56); transform-origin: 346.927px 338.751px;" id="elw0ilt2e23na" class="animable"></path><path d="M339,353.72a24.49,24.49,0,0,1-.78,2.91,6.47,6.47,0,0,1-1,2.17c-.09.12-.27,0-.28-.11a8.33,8.33,0,0,1,.44-2.46c.22-.91.42-1.84.66-2.74A.48.48,0,0,1,339,353.72Z" style="fill: rgb(38, 50, 56); transform-origin: 337.976px 355.982px;" id="elysfpcqi47kj" class="animable"></path><path d="M220.17,373.68c8.16-2.07,115.64-17.59,117.07-17.73.15,0,.16.34,0,.37C332.41,357.38,227.73,373,220.52,375c-5.15,1.45-94.68,25.69-99.85,27-.14,0-.21-.18-.07-.24C129.58,398.47,219.09,374,220.17,373.68Z" style="fill: rgb(38, 50, 56); transform-origin: 228.94px 378.975px;" id="el71lel7bm4wa" class="animable"></path><path d="M184.51,429.1c16.28-4.64,32.72-8.72,49.24-12.42s33.29-7,50.07-9.83,33.63-5.14,50.54-7c8-.89,19.74-2.61,27.56-5.42,20.21-7.27,30.1-21.51,39.76-38.91.07-.13.25,0,.18.13-11.78,22.37-20.17,38.67-59,44.25-8.32,1.19-16.69,2-25,3.11q-12.83,1.74-25.59,3.82c-16.87,2.74-33.68,5.84-50.39,9.42s-33.32,7.61-49.82,12-36.31,10.65-38.43,11.35c-.12,0-.2-.14-.08-.18C161.29,436.74,168.25,433.73,184.51,429.1Z" style="fill: rgb(38, 50, 56); transform-origin: 277.683px 397.533px;" id="el0f5xk0pva39" class="animable"></path><path d="M350.36,284.51a.62.62,0,0,0,.42.71c.69.12,1.52.24,2.45.37,2.81-6,5.67-10.65,4.86-8.8a34,34,0,0,0-2.45,9.16l4.84.64c3-10.66,6.23-18.49,5.83-16-1.6,9.93-1.36,13.19-1.05,16.67,11.69,1.53,27,3.35,38.17,4.41,1.87-5.87,3.64-12.26,3.79-11.79,1.19,3.51,1.12,8.44.78,12.22,3.54.31,6.39.49,8.13.51,0,0,1.32-5,1.6-6.61a36.85,36.85,0,0,0,0-12.7c-.77-4.29-2.44-8.15-4-12.1l0-.09v0a36.24,36.24,0,0,1-2.2-8,.13.13,0,0,1,0-.06,35,35,0,0,1-.33-6.07c.21-7.43-3.06-14.13-9.36-16.61-11-13.33-23.86-9.13-28.5,0-.45.89-.9,1.92-1.35,3.05v0c-1.68,4.16-3.35,9.61-4.81,13.81v0a.06.06,0,0,1,0,0h0a44.27,44.27,0,0,1-1.95,4.83C361.27,259.58,353.76,263.39,350.36,284.51Z" style="fill: rgb(38, 50, 56); transform-origin: 384.315px 257.243px;" id="el70gtn0ww0q2" class="animable"></path><path d="M404.41,232.55a13.68,13.68,0,0,1,6.43,11.84c.08,3.18,0,6.26.81,9.32a32.12,32.12,0,0,0,4.11,8.47c2.62,4.23,4.33,8.37,4.28,13.7s-.92,11.73-3.12,16.61c0,0-.05,0,0,0a46.53,46.53,0,0,0,2.28-17.4c-.36-5.93-3.09-9.86-5.83-14.56a25,25,0,0,1-3.48-12.31c-.05-2.69.26-5.46-.5-8.06-.9-3.09-3.1-5.19-5.3-7.07C403.76,232.81,404.1,232.34,404.41,232.55Z" style="fill: rgb(38, 50, 56); transform-origin: 411.998px 262.494px;" id="eljooffu9tu58" class="animable"></path><path d="M357.17,259.81c3.42-3.94,6.91-7.26,9.18-12.31,2.07-4.6,3.48-9.53,5.58-14.13a.06.06,0,1,1,.11,0c-3.35,8.19-4.67,16.62-10.44,23.27-3.13,3.61-6.24,6.95-8.51,11.4a44.18,44.18,0,0,0-4.36,15c0,.19-.24.16-.24,0A36.31,36.31,0,0,1,357.17,259.81Z" style="fill: rgb(38, 50, 56); transform-origin: 360.267px 258.229px;" id="elfpec84ejcn" class="animable"></path><path d="M401.08,230c.51,1.88,10.51,4.55,16-1.68s.72-15.29-7.93-12.48C403.64,217.58,400,226,401.08,230Z" style="fill: rgb(38, 50, 56); transform-origin: 410.157px 223.763px;" id="elvvmkivgijqp" class="animable"></path><path d="M418.51,219a11.38,11.38,0,0,0-6.09-4.44,6.87,6.87,0,0,0-6.73,1.41,14,14,0,0,0-3.85,6.34,20.85,20.85,0,0,0-.83,3.76,10.83,10.83,0,0,0,.07,3.89,9.37,9.37,0,0,1-.78-3.92,17.11,17.11,0,0,1,.44-4,13.38,13.38,0,0,1,4-7.13,7.69,7.69,0,0,1,8-1.4A10.14,10.14,0,0,1,418.51,219Z" style="fill: rgb(38, 50, 56); transform-origin: 409.404px 221.456px;" id="elsafpj3p92qf" class="animable"></path><path d="M376.18,283.45c-27.1,7.58-48.9,12.19-54.77,9.27-6.56-3.27-33.6-26-36.63-29.05S305.35,245,308.71,241.8c.77-.73,19.22,21.05,24.73,25.77,2.32,2,13.81,2.41,35.74,3.49C385.64,271.87,386.07,280.69,376.18,283.45Z" style="fill: rgb(247, 169, 160); transform-origin: 333.636px 267.694px;" id="el28otkon9q6x" class="animable"></path><path d="M286.25,264.8a105.75,105.75,0,0,1-10.64-9.12c-2.52-2.69-12.9-13.47-10.21-16.54,1.82-2.09,6.52,2.08,9.91,5,1.78,1.51,5,2.86,6,1.66,1.66-2.1-2.06-5.32-5.62-7.62-6.88-4.43-15.42-7.23-14.19-12.72.47-2.07,3.53-1.5,7-.13-4.56-2.73-8.81-5.95-8.38-8.27.24-1.33,1.22-1.89,2.63-1.94a3.14,3.14,0,0,1-1.1-3.34c.7-2,3-2.39,5.83-2a1.75,1.75,0,0,1,.18-1.58c2.8-4.91,21.94,2.74,25.51,6.94C303.6,227.44,310,243,310,243,308.42,250.8,286.26,264.81,286.25,264.8Z" style="fill: rgb(247, 169, 160); transform-origin: 285.045px 235.705px;" id="el5rmuaj8o63i" class="animable"></path><path d="M284.62,235.49c-4.39-4.8-9.07-7.79-16.79-10.42-.15,0-.11-.28.05-.24,7.79,1.88,11.55,3.89,17.06,10.42C285.21,235.56,284.88,235.78,284.62,235.49Z" style="fill: rgb(38, 50, 56); transform-origin: 276.389px 230.226px;" id="elbrkmn1ya5ps" class="animable"></path><path d="M288.24,227.85c-8.32-8.14-17.4-9.58-25.52-12.7-.11-.05-.06-.19.06-.15,8.11,2.41,16.29,2.82,25.73,12.5C288.78,227.78,288.52,228.12,288.24,227.85Z" style="fill: rgb(38, 50, 56); transform-origin: 275.641px 221.471px;" id="elwgl29y1a0j" class="animable"></path><path d="M290.58,220.17c-6.66-6.43-14.6-7.93-22.67-10.2a.15.15,0,0,1,.07-.3c8.45,1.51,16.69,3.23,22.75,10.29C291.08,220.36,291,220.54,290.58,220.17Z" style="fill: rgb(38, 50, 56); transform-origin: 279.371px 215.019px;" id="elexjsiy11ic" class="animable"></path><path d="M347.71,293.86l.94-27.63s19.29,1.07,30.25,5,7.3,9.91-3.23,14.14S347.71,293.86,347.71,293.86Z" style="fill: rgb(199, 199, 199); transform-origin: 366.628px 280.045px;" id="el5ng6x0ilz" class="animable"></path><path d="M354.84,268.16c.22,4.28.47,15.91-.4,23.49,0,0-.19.05-.19,0-.27-6.41.15-19.2.32-23.49C354.57,268.08,354.84,268.08,354.84,268.16Z" style="fill: rgb(38, 50, 56); transform-origin: 354.606px 279.886px;" id="el5l8kmv31io5" class="animable"></path><g id="el1fx0oyie4tk"><path d="M375.68,285.36c-10.53,4.23-28,8.5-28,8.5l.48-14.11,37.33-3.22C386,279.55,382.09,282.77,375.68,285.36Z" style="opacity: 0.1; transform-origin: 366.607px 285.195px;" class="animable"></path></g><path d="M332.34,334.79c.28,3.28,66.66,30,69.34,29.83,0,0,4.31-35.42,3.17-65-1.22-31.67-18.68-29.47-25.5-26.9-8.09,3.06-27.39,18.47-29.65,22-3.75,5.8-1,14.89-1,14.89Z" style="fill: rgb(199, 199, 199); transform-origin: 368.691px 317.999px;" id="elbnl5f7ka62" class="animable"></path><path d="M404.94,318c-.07,4.16-.23,8.26-.44,12.23-.45-.05-.89-.09-1.34-.12-3.06-.22-6.2-.17-9.47-.2s-6.64-.09-10.17-.21c-1.75-.06-3.54-.14-5.35-.27l-1.36-.14c-.45-.05-.92-.09-1.38-.17a22.27,22.27,0,0,1-2.76-.51l-.7-.17a6.89,6.89,0,0,1-.7-.21,13,13,0,0,1-1.36-.49c-.46-.15-.88-.4-1.34-.59s-.84-.47-1.24-.71a32.14,32.14,0,0,1-4.4-3.33c-2.7-2.4-5.19-4.95-7.68-7.43s-4.68-4.73-6.76-6.9c-.57-2.33-1.88-9.32,1.21-14.08a1.91,1.91,0,0,1,.14-.21c.42.28.81.57,1.2.88a21.74,21.74,0,0,1,2.3,2.17,25.67,25.67,0,0,1,3.42,4.69,75.93,75.93,0,0,1,4.3,9.55,30.77,30.77,0,0,0,4.75,8.45,14.08,14.08,0,0,0,3.46,2.93c.34.18.66.35,1,.5l.48.19.25.09.25.08a10,10,0,0,0,1.05.25c.18,0,.35.07.54.09l.54.05a15.22,15.22,0,0,0,2.24,0c.77-.08,1.54-.19,2.31-.34a40.34,40.34,0,0,0,4.69-1.26c3.16-1,6.39-2.2,9.82-3a59.45,59.45,0,0,1,10.65-1.66C403.7,318.07,404.32,318,404.94,318Z" style="fill: rgb(235, 235, 235); transform-origin: 376.331px 312.36px;" id="elvxmxlqgtq2q" class="animable"></path><path d="M403.73,342.58c-.08,1.24-.17,2.48-.26,3.67l-.75-.91a17.23,17.23,0,0,0-7.18-5.26,22.71,22.71,0,0,0-9-.75c-1.55.09-3.14.24-4.75.36s-3.23.24-4.88.26-3.32,0-5-.13-3.35-.32-5-.56a63.17,63.17,0,0,1-9.92-2.32c-.8-.28-1.61-.54-2.41-.86s-1.57-.63-2.33-1-1.55-.68-2.32-1-1.49-.76-2.23-1.16a71.92,71.92,0,0,1-9.92-6.52l4.35-6.7,1.64.94,2,1.12,1,.55,1,.53c.67.34,1.35.69,2,1.06.34.18.68.33,1,.49l1,.5c.69.32,1.34.69,2,1s1.36.6,2,.93,1.36.65,2.05.92l1,.45,1,.43a68.74,68.74,0,0,0,8.46,2.81c2.91.73,5.88,1.23,8.93,1.73l4.66.75c1.58.25,3.17.5,4.8.8s3.25.63,4.9,1a29.12,29.12,0,0,1,4.85,1.7l.58.29.57.31c.38.19.75.42,1.12.65s.69.5,1,.73l1,.74c.63.54,1.29,1.06,1.92,1.61C403.16,342.05,403.44,342.31,403.73,342.58Z" style="fill: rgb(235, 235, 235); transform-origin: 370.755px 332.975px;" id="elejauhpql74b" class="animable"></path><path d="M404.69,296.81c.05.71.09,1.44.13,2.2l-1.3-.12-1.95-.23c-.65-.09-1.3-.2-1.95-.32a27.62,27.62,0,0,1-7.76-2.4,25.91,25.91,0,0,1-6.43-5c-1.84-1.89-3.49-3.9-5.18-5.84a44.39,44.39,0,0,0-5.41-5.47,19.74,19.74,0,0,0-3.64-2.43l1-.64a33.71,33.71,0,0,1,3.33,2.21c2.1,1.59,4.1,3.28,6.05,5s3.88,3.45,5.79,5.09a36.28,36.28,0,0,0,5.9,4.38c.26.13.5.28.78.41l.83.36c.54.26,1.14.43,1.72.64s1.18.38,1.77.58,1.2.33,1.81.51C401.67,296.17,403.16,296.51,404.69,296.81Z" style="fill: rgb(235, 235, 235); transform-origin: 388.01px 287.785px;" id="elfakccwciczs" class="animable"></path><path d="M404.16,291.9c.11.79.22,1.61.3,2.48-1.62-.31-3.25-.62-4.89-1A27.36,27.36,0,0,1,392,290.9a21.13,21.13,0,0,1-5.92-5.28c-1.66-2-3.19-4.16-4.69-6.28-1.36-1.92-2.68-3.86-4-5.74.69-.35,1.36-.64,1.94-.87l.59-.2c1.11,1.93,2.07,3.91,3.07,5.84A46.43,46.43,0,0,0,387,285a15.91,15.91,0,0,0,5.59,4.94,17.2,17.2,0,0,0,1.72.7c.6.19,1.21.34,1.82.47a36.18,36.18,0,0,0,3.76.53C401.26,291.72,402.71,291.81,404.16,291.9Z" style="fill: rgb(235, 235, 235); transform-origin: 390.925px 283.455px;" id="eljb2cp5vi2h" class="animable"></path><path d="M360.56,310.29a63.25,63.25,0,0,1,8.06,4.84c1.26.92,2.47,1.89,3.67,2.89.6.5,1.21,1,1.82,1.45a10.23,10.23,0,0,0,2.06,1.3.06.06,0,0,1-.05.1A16.38,16.38,0,0,1,374,320a16.19,16.19,0,0,1-1.89-1.19c-1.29-.92-2.53-1.9-3.81-2.83-2.58-1.88-5.16-3.76-7.87-5.45C360.3,310.43,360.43,310.22,360.56,310.29Z" style="fill: rgb(38, 50, 56); transform-origin: 368.281px 315.573px;" id="elnzktdmp0lz" class="animable"></path><path d="M352.36,310a68.27,68.27,0,0,1,7.34,2.51c1.2.5,2.36,1.06,3.51,1.65.55.28,1.1.57,1.64.87s1.15.74,1.75,1.06c.06,0,0,.14-.05.1-.57-.28-1.2-.47-1.79-.72l-1.78-.76c-1.18-.51-2.38-1-3.56-1.52-2.37-1-4.74-2-7.15-3C352.14,310.15,352.23,310,352.36,310Z" style="fill: rgb(38, 50, 56); transform-origin: 359.416px 313.099px;" id="elnp853di8jgd" class="animable"></path><path d="M402.27,284.11c18.29,30.41,32.37,76.58,35.53,86.33,2.15,6.62-30.26,20.54-31.42,15.91-1.54-6.18-9.87-68.46-13.84-96.46C390.35,274.45,398.51,277.86,402.27,284.11Z" style="fill: rgb(247, 169, 160); transform-origin: 415.038px 333.058px;" id="elj9usjbl7s6f" class="animable"></path><path d="M406.38,386.35c1.14,3.12,5,16.41,7.77,18.06s17,1.3,24.24,1.3,8.63-2,8.51-4.49-15.25-3-15.25-3,20.21,5.8,25.29,6.74,16.79,3.9,18.49-.31c.76-1.9-2.45-3.83-2.45-3.83s4.92,1.44,5.7-1c.89-2.78-3-4.32-3-4.32s3.07.62,3.14-1.64c.16-5.07-19.06-7.55-19.06-7.55s14.72,7.16,15.19,3c.66-5.72-29.5-12-32.64-14.49a21.32,21.32,0,0,1-5-6.21Z" style="fill: rgb(247, 169, 160); transform-origin: 442.601px 387.73px;" id="elxs4leu5giag" class="animable"></path><path d="M446.79,402.48a2.2,2.2,0,0,0-.68-1.93,6.34,6.34,0,0,0-1.76-1.14,23.73,23.73,0,0,0-4.13-1.34c-2.84-.73-5.76-1.23-8.66-2a34.81,34.81,0,0,1,8.91,1,16.41,16.41,0,0,1,4.25,1.62,5.86,5.86,0,0,1,1.77,1.53A2.31,2.31,0,0,1,446.79,402.48Z" style="fill: rgb(38, 50, 56); transform-origin: 439.259px 399.272px;" id="el0iax90mh5l8" class="animable"></path><path d="M473,400.86c-2.08-.5-4.12-1.09-6.17-1.68s-4.08-1.22-6.12-1.83l-6.08-1.91c-2-.64-4.06-1.27-6.11-1.88a48.21,48.21,0,0,1,6.31,1.13c2.09.47,4.14,1.07,6.18,1.69s4.07,1.3,6.06,2.06S471,400,473,400.86Z" style="fill: rgb(38, 50, 56); transform-origin: 460.76px 397.21px;" id="elzd1j8zaq7km" class="animable"></path><path d="M453.38,388.51a40.88,40.88,0,0,1,5.83.81,52.94,52.94,0,0,1,5.7,1.47,49.48,49.48,0,0,1,5.52,2.06,40.32,40.32,0,0,1,5.23,2.69c-1.86-.64-3.67-1.35-5.51-2s-3.68-1.25-5.54-1.82-3.72-1.13-5.58-1.68S455.27,389,453.38,388.51Z" style="fill: rgb(38, 50, 56); transform-origin: 464.52px 392.025px;" id="elzolvy9yyjz" class="animable"></path><path d="M456.35,383.69a39.24,39.24,0,0,1,17.82,6.09c-3-1.06-5.9-2.18-8.86-3.17S459.37,384.66,456.35,383.69Z" style="fill: rgb(38, 50, 56); transform-origin: 465.26px 386.735px;" id="eld33q3hqgnlj" class="animable"></path><path d="M420,307l-27,6.15s-3.89-18.92-2.9-30.52,7.72-9.59,14.49-.49S420,307,420,307Z" style="fill: rgb(199, 199, 199); transform-origin: 404.969px 293.881px;" id="ela2mcu0t21z" class="animable"></path><path d="M393.35,308c4.12-1.21,15.38-4.13,22.95-5,.05,0,.09.17.05.18-6.18,1.74-18.73,4.28-22.93,5.1C393.34,308.3,393.28,308,393.35,308Z" style="fill: rgb(38, 50, 56); transform-origin: 404.843px 305.64px;" id="el6uqaa9t84dq" class="animable"></path><path d="M388.34,292.9c.63,1.18,1.92,3.13,2,3.35-.11-.59-.28-2.74-.42-4.83,0-.1.13-.11.16,0,.73,2.07,2.59,19.66,3,21.77a24.68,24.68,0,0,1,2.5-.6c.25,0,.07.19.05.21-.55.24-3,1.24-3.07,1-.29-.86-1.85-14.63-2-15.52-.1-.21-1.83-4-2.28-5.29C388.26,292.89,388.32,292.86,388.34,292.9Z" style="fill: rgb(38, 50, 56); transform-origin: 391.994px 302.589px;" id="elu6wuhw6x3yd" class="animable"></path><path d="M391.32,280.12c-.6,1.2-8.67,8-14.44,6.36-1.88-.55.65-10.93.65-10.93v-.8l.17-11.32,14.56-5.08,2.08-.64s-.25,3.09-.6,6.94c0,.18,0,.36-.05.55s0,.43-.05.63c0,.58-.09,1.16-.15,1.75s-.09.88-.15,1.34-.11.92-.16,1.39A73.15,73.15,0,0,1,391.32,280.12Z" style="fill: rgb(247, 169, 160); transform-origin: 385.263px 272.222px;" id="elr7c4yeoylsb" class="animable"></path><path d="M393.75,264.65a22.74,22.74,0,0,1-16.21,10.1l.17-11.32,14.56-5.08,2.08-.64S394.1,260.8,393.75,264.65Z" style="fill: rgb(38, 50, 56); transform-origin: 385.945px 266.23px;" id="el532l1i5pbmb" class="animable"></path><path d="M365.9,241.16c-5.67,19,5.09,24.59,9.2,25.81,3.73,1.11,16.57,4.4,24.18-14s.54-27-7.85-30S371.57,222.12,365.9,241.16Z" style="fill: rgb(247, 169, 160); transform-origin: 383.406px 244.892px;" id="eliyfm7l1c11k" class="animable"></path><path d="M369.86,239.32a12.54,12.54,0,0,0,1.37,0,2.21,2.21,0,0,0,1.41-.25.7.7,0,0,0,.18-.84,1.76,1.76,0,0,0-1.6-.78,2.63,2.63,0,0,0-1.77.54A.76.76,0,0,0,369.86,239.32Z" style="fill: rgb(38, 50, 56); transform-origin: 371.038px 238.396px;" id="elnqb4dipjoor" class="animable"></path><path d="M383,242.55c-.44-.16-.82-.37-1.25-.57a2.26,2.26,0,0,1-1.16-.82.72.72,0,0,1,.19-.85,1.75,1.75,0,0,1,1.77,0,2.55,2.55,0,0,1,1.38,1.24A.75.75,0,0,1,383,242.55Z" style="fill: rgb(38, 50, 56); transform-origin: 382.256px 241.329px;" id="el7u3wdw13saf" class="animable"></path><path d="M377.93,256.52c-.31.34-.6.8-1.09.87a3.53,3.53,0,0,1-1.47-.25,0,0,0,0,0-.06.07,1.83,1.83,0,0,0,1.76.63,1.43,1.43,0,0,0,1-1.26C378.08,256.5,378,256.48,377.93,256.52Z" style="fill: rgb(38, 50, 56); transform-origin: 376.69px 257.187px;" id="eljqdxt3bfmc9" class="animable"></path><path d="M372.81,251.12s-.63,1.94-.8,2.88c0,.09.2.17.52.24,0,0,0,0,0,0a4.5,4.5,0,0,0,4.62-.89c.09-.08,0-.2-.11-.15a6.86,6.86,0,0,1-4.28.43c0-.27,1.19-3.28,1-3.32a8.11,8.11,0,0,0-2.22.1c1.2-4.08,3-7.93,4.17-12,0-.15-.17-.23-.23-.1-2.22,3.9-3.7,8.56-5,12.74C370.35,251.57,372.4,251.21,372.81,251.12Z" style="fill: rgb(38, 50, 56); transform-origin: 373.83px 246.386px;" id="elos2ekgyi47q" class="animable"></path><path d="M379.17,246.88s.08.08.06.13c-.43,1.2-.72,2.64.24,3.39,0,0,0,.08,0,.07C378.17,249.85,378.57,247.94,379.17,246.88Z" style="fill: rgb(38, 50, 56); transform-origin: 379.039px 248.675px;" id="elyokyn9zqhon" class="animable"></path><path d="M380.65,246c2,.48.89,4.43-1,4S379,245.56,380.65,246Z" style="fill: rgb(38, 50, 56); transform-origin: 380.205px 247.999px;" id="elhq3w6ntw1fk" class="animable"></path><path d="M381.37,246.39c.28.32.51.81.91,1s1-.12,1.37-.43c.05,0,.07,0,.06.06-.2.76-.71,1.45-1.55,1.34s-1.11-.92-1.09-1.74C381.08,246.43,381.26,246.26,381.37,246.39Z" style="fill: rgb(38, 50, 56); transform-origin: 382.391px 247.358px;" id="ellt1yjv3sk9" class="animable"></path><path d="M371.48,244.83c0-.05-.11,0-.13.09-.29,1.23-.83,2.6-2,2.71a0,0,0,0,0,0,.07C370.7,247.87,371.4,246.05,371.48,244.83Z" style="fill: rgb(38, 50, 56); transform-origin: 370.415px 246.261px;" id="elhojmrx9qi9k" class="animable"></path><path d="M370.73,243.26c-1.93-.68-3.15,3.23-1.36,3.86S372.34,243.83,370.73,243.26Z" style="fill: rgb(38, 50, 56); transform-origin: 369.994px 245.185px;" id="el2i5qky1d8ey" class="animable"></path><path d="M369.83,243.27c-.37.11-.8.39-1.17.3s-.62-.63-.77-1.12c0,0-.06,0-.07,0-.26.75-.25,1.6.42,2s1.3-.16,1.71-.85C370,243.46,370,243.22,369.83,243.27Z" style="fill: rgb(38, 50, 56); transform-origin: 368.82px 243.517px;" id="elvh2gktre2wb" class="animable"></path><path d="M373.53,254.18a4.46,4.46,0,0,0,1.54,1.67,2,2,0,0,0,1.2.28c.91-.08,1.06-.88,1-1.59a4.81,4.81,0,0,0-.21-1.12A5.81,5.81,0,0,1,373.53,254.18Z" style="fill: rgb(38, 50, 56); transform-origin: 375.406px 254.779px;" id="el221ql7g3aza" class="animable"></path><path d="M375.07,255.85a2,2,0,0,0,1.2.28c.91-.08,1.06-.88,1-1.59A2.09,2.09,0,0,0,375.07,255.85Z" style="fill: rgb(255, 155, 188); transform-origin: 376.176px 255.331px;" id="elvld7cyxb3uj" class="animable"></path><path d="M398.41,253.41c-3.25-.37-2.69-7.22-2.69-7.22s-6.5-1.24-6.83-11a14.61,14.61,0,0,0,1.38,8.29s-11.23-3.44-14.19-14c0,0,1,5.26,2.44,7.35,0,0-4.54-2.28-6.13-6.63,0,0-3.08,5.15-4.92,6.38,0,0,4.35-20,22.51-14.24,0,0,11.48,3,13.88,13S398.41,253.41,398.41,253.41Z" style="fill: rgb(38, 50, 56); transform-origin: 385.893px 237.354px;" id="elgyh7vcz8aag" class="animable"></path><path d="M395.82,253.58s5.49-5.2,7.94-3.12-2.56,10.23-6.05,10.77a3.36,3.36,0,0,1-4-2.68Z" style="fill: rgb(247, 169, 160); transform-origin: 399.06px 255.636px;" id="elpteo6fikxw" class="animable"></path><path d="M402.26,252.76c.06,0,.05.08,0,.09-2.45.45-4.08,2.31-5.37,4.32a1.86,1.86,0,0,1,2.82.06.07.07,0,0,1-.08.11,2.07,2.07,0,0,0-2.38.25,9.77,9.77,0,0,0-1.43,1.58c-.15.18-.5,0-.37-.22l0-.05C396,256,399.1,252.41,402.26,252.76Z" style="fill: rgb(38, 50, 56); transform-origin: 398.861px 255.99px;" id="el5sy9lzk32l3" class="animable"></path></g><g id="freepik--Lines--inject-78" class="animable" style="transform-origin: 276.615px 216.735px;"><path d="M281.61,202.43a98.88,98.88,0,0,1,2-10.29,95.79,95.79,0,0,1,3-10.06,96.34,96.34,0,0,1-2,10.29A99,99,0,0,1,281.61,202.43Z" style="fill: rgb(38, 50, 56); transform-origin: 284.11px 192.255px;" id="elsbr6o8zwmvm" class="animable"></path><path d="M262.31,205.43a98.74,98.74,0,0,1-5.87-8.69,97.43,97.43,0,0,1-5-9.21,110.39,110.39,0,0,1,10.89,17.9Z" style="fill: rgb(38, 50, 56); transform-origin: 256.885px 196.48px;" id="elc66gfwp0ok" class="animable"></path><path d="M250.78,221.19a110.09,110.09,0,0,1-20.36-4.95,96.52,96.52,0,0,1,10.3,2A98.93,98.93,0,0,1,250.78,221.19Z" style="fill: rgb(38, 50, 56); transform-origin: 240.6px 218.715px;" id="elis0ndiip55" class="animable"></path><path d="M248.45,243.74a54.86,54.86,0,0,1-12.57,7.65,47.81,47.81,0,0,1,6-4.25A48.93,48.93,0,0,1,248.45,243.74Z" style="fill: rgb(38, 50, 56); transform-origin: 242.165px 247.565px;" id="elyzq5t91ch3q" class="animable"></path><path d="M307,234.87a44.31,44.31,0,0,1,7,1.19,43.19,43.19,0,0,1,6.76,2.16,44.51,44.51,0,0,1-7-1.19A45.78,45.78,0,0,1,307,234.87Z" style="fill: rgb(38, 50, 56); transform-origin: 313.88px 236.545px;" id="elvxal2uyi5v" class="animable"></path><path d="M297.38,214a110.39,110.39,0,0,1,17.9-10.89,96.59,96.59,0,0,1-8.69,5.87A95.22,95.22,0,0,1,297.38,214Z" style="fill: rgb(38, 50, 56); transform-origin: 306.33px 208.555px;" id="elp9hkyfs0mcc" class="animable"></path><path d="M241.38,214.31a18.35,18.35,0,0,1,4.29,1.22,17.36,17.36,0,0,1,3.91,2.14,20,20,0,0,1-8.2-3.36Z" style="fill: rgb(38, 50, 56); transform-origin: 245.48px 215.99px;" id="eltrlihj6twf" class="animable"></path><path d="M293.86,183.31c-.75,2.07-1.61,4.1-2.48,6.12s-1.79,4-2.72,6-1.91,4-2.93,5.91l-1.54,2.92c-.55,1-1.06,1.93-1.64,2.87.37-1,.8-2,1.2-3.08l1.28-3c.86-2,1.79-4,2.73-6s1.9-4,2.93-5.91S292.73,185.2,293.86,183.31Z" style="fill: rgb(38, 50, 56); transform-origin: 288.205px 195.22px;" id="eltv9bh6o05a" class="animable"></path><path d="M303.83,218.27a115.89,115.89,0,0,1,21.32-2.39,100.73,100.73,0,0,1-10.6,1.69A103.53,103.53,0,0,1,303.83,218.27Z" style="fill: rgb(38, 50, 56); transform-origin: 314.49px 217.075px;" id="elelf9avbybzv" class="animable"></path><path d="M245.32,241.19A83.49,83.49,0,0,1,228.08,247a73.18,73.18,0,0,1,8.47-3.37A74.74,74.74,0,0,1,245.32,241.19Z" style="fill: rgb(38, 50, 56); transform-origin: 236.7px 244.095px;" id="el2vcglf6ylmy" class="animable"></path></g><g id="freepik--speech-bubble--inject-78" class="animable" style="transform-origin: 127.437px 151.594px;"><path d="M99.05,154.3a25.81,25.81,0,0,0,43.13,16.33l12.91,1.89-6.46-11.16a25.54,25.54,0,0,0,1.77-12.43,25.82,25.82,0,0,0-51.35,5.37Z" style="fill: rgb(255, 255, 255); transform-origin: 127.024px 151.866px;" id="elu7eomgzrrts" class="animable"></path><path d="M106.78,133a25.78,25.78,0,0,1,21.62-7.18,26,26,0,0,1,11,4.14,26.38,26.38,0,0,1,8.08,8.6,26.08,26.08,0,0,1,1.59,23l0-.44,6.43,11.19.47.82L155,173l-12.9-2,.31-.1a26.12,26.12,0,0,1-12.77,6.31,23.88,23.88,0,0,1-3.57.37,26.86,26.86,0,0,1-3.59-.07,26.27,26.27,0,0,1-13.18-5.12,23.68,23.68,0,0,1-5.06-5A26,26,0,0,1,106.78,133Zm-2.44,34.35a23.15,23.15,0,0,0,5.07,4.94,23.88,23.88,0,0,0,6.23,3.35,25.08,25.08,0,0,0,6.89,1.52,24.47,24.47,0,0,0,3.53,0,21.6,21.6,0,0,0,3.5-.43,25.51,25.51,0,0,0,12.37-6.36l.12-.12.18,0,12.93,1.81-.47.68-6.49-11.14-.13-.21.1-.23A25.88,25.88,0,0,0,150,149.92,25.49,25.49,0,0,0,146.71,139a26.6,26.6,0,0,0-7.73-8.42,25.23,25.23,0,0,0-10.66-4.21,25.68,25.68,0,0,0-11.48.86,25.51,25.51,0,0,0-12.5,40.1Z" style="fill: rgb(38, 50, 56); transform-origin: 127.437px 151.594px;" id="elmjrxo8n3z1l" class="animable"></path><path d="M113.78,156.48a33.76,33.76,0,0,0,10.84,9.41,33.76,33.76,0,0,0,10.84-9.41c3.82-5,3.63-13-1.83-14.67-6-1.89-9,7.2-9,7.2s-3-9.15-9-7.2C110.17,143.58,110,151.43,113.78,156.48Z" style="fill: rgb(255, 199, 39); transform-origin: 124.632px 153.714px;" id="elftzxdxh6fkv" class="animable"></path></g><defs>     <filter id="active" height="200%">         <feMorphology in="SourceAlpha" result="DILATED" operator="dilate" radius="2"></feMorphology>                <feFlood flood-color="#32DFEC" flood-opacity="1" result="PINK"></feFlood>        <feComposite in="PINK" in2="DILATED" operator="in" result="OUTLINE"></feComposite>        <feMerge>            <feMergeNode in="OUTLINE"></feMergeNode>            <feMergeNode in="SourceGraphic"></feMergeNode>        </feMerge>    </filter>    <filter id="hover" height="200%">        <feMorphology in="SourceAlpha" result="DILATED" operator="dilate" radius="2"></feMorphology>                <feFlood flood-color="#ff0000" flood-opacity="0.5" result="PINK"></feFlood>        <feComposite in="PINK" in2="DILATED" operator="in" result="OUTLINE"></feComposite>        <feMerge>            <feMergeNode in="OUTLINE"></feMergeNode>            <feMergeNode in="SourceGraphic"></feMergeNode>        </feMerge>            <feColorMatrix type="matrix" values="0   0   0   0   0                0   1   0   0   0                0   0   0   0   0                0   0   0   1   0 "></feColorMatrix>    </filter></defs></svg>