<svg class="animated" id="freepik_stories-messaging-fun" xmlns="http://www.w3.org/2000/svg" viewBox="0 0 500 500" version="1.1" xmlns:xlink="http://www.w3.org/1999/xlink" xmlns:svgjs="http://svgjs.com/svgjs"><style>svg#freepik_stories-messaging-fun:not(.animated) .animable {opacity: 0;}svg#freepik_stories-messaging-fun.animated #freepik--smiley-faces--inject-83 {animation: 3s Infinite  linear shake;animation-delay: 0s;}svg#freepik_stories-messaging-fun.animated #freepik--speech-bubbles--inject-83 {animation: 1.5s Infinite  linear wind;animation-delay: 0s;}svg#freepik_stories-messaging-fun.animated #freepik--paper-plane--inject-83 {animation: 1.5s Infinite  linear floating;animation-delay: 0s;}svg#freepik_stories-messaging-fun.animated #freepik--Plant--inject-83 {animation: 1.5s Infinite  linear wind;animation-delay: 0s;}            @keyframes shake {                10%, 90% {                    transform: translate3d(-1px, 0, 0);                  }                  20%, 80% {                    transform: translate3d(2px, 0, 0);                  }                  30%, 50%, 70% {                    transform: translate3d(-4px, 0, 0);                  }                  40%, 60% {                    transform: translate3d(4px, 0, 0);                  }            }                    @keyframes wind {                0% {                    transform: rotate( 0deg );                }                25% {                    transform: rotate( 1deg );                }                75% {                    transform: rotate( -1deg );                }            }                    @keyframes floating {                0% {                    opacity: 1;                    transform: translateY(0px);                }                50% {                    transform: translateY(-10px);                }                100% {                    opacity: 1;                    transform: translateY(0px);                }            }        </style><g id="freepik--background-complete--inject-83" class="animable animator-active" style="transform-origin: 252.195px 145.5px;"><path d="M87.59,228.56l-13.12.27-6.66.12c-2.23,0-4.47,0-6.7.05h-.44v-.44l-.06-11.19v-.51h.5l13.24.06c4.42,0,8.83.11,13.24.16h.28v.27c0,1.89-.09,3.78-.13,5.65Zm0,0-.14-5.66c0-1.86-.11-3.7-.13-5.53l.27.27c-4.41.05-8.82.16-13.24.16l-13.24.07.5-.5,0,11.19-.45-.45c2.18,0,4.36,0,6.55,0l6.58.12Z" style="fill: rgb(235, 235, 235); transform-origin: 74.24px 222.93px;" id="elmh3e43mzgh" class="animable"></path><path d="M72.82,242.67l-13.12.27-6.66.12c-2.23,0-4.47,0-6.7.05H45.9v-.44l-.06-11.19V231h.5l13.24.06c4.41,0,8.83.11,13.24.16h.28v.27c0,1.89-.08,3.78-.13,5.65Zm0,0L72.68,237c-.05-1.86-.11-3.7-.13-5.53l.27.27c-4.41.05-8.83.16-13.24.16L46.34,232l.5-.49-.05,11.19-.45-.45c2.18,0,4.36,0,6.55.05l6.58.12Z" style="fill: rgb(235, 235, 235); transform-origin: 59.47px 237.055px;" id="el90rn1ddlwl4" class="animable"></path><path d="M453.66,242.67l-13.13.27-6.66.12c-2.22,0-4.46,0-6.69.05h-.45v-.44l-.05-11.19V231h.5l13.24.06c4.41,0,8.83.11,13.24.16h.27v.27c0,1.89-.08,3.78-.13,5.65Zm0,0-.14-5.66c0-1.86-.12-3.7-.13-5.53l.27.27c-4.41.05-8.83.16-13.24.16l-13.24.06.5-.49-.06,11.19-.44-.45c2.18,0,4.36,0,6.54.05l6.58.12Z" style="fill: rgb(235, 235, 235); transform-origin: 440.305px 237.055px;" id="eld78nko179ak" class="animable"></path><path d="M438.89,44.2l-13.13.28-6.66.11c-2.22,0-4.46,0-6.69.06H412V44.2l0-11.19v-.5h.51l13.24.06c4.41,0,8.82.12,13.24.17h.27V33c0,1.9-.09,3.79-.13,5.65Zm0,0-.14-5.65c-.05-1.87-.12-3.71-.14-5.54l.28.27c-4.42,0-8.83.16-13.24.17l-13.24.06.5-.5-.06,11.19-.44-.45c2.18,0,4.35,0,6.54.06l6.58.11Z" style="fill: rgb(235, 235, 235); transform-origin: 425.63px 38.58px;" id="el8x8isd0w8ye" class="animable"></path><path d="M453.66,58.31l-13.13.28-6.66.11c-2.22,0-4.46,0-6.69.06h-.45v-.45l-.05-11.19v-.5h.5l13.24.06c4.41,0,8.83.12,13.24.17h.27v.27c0,1.9-.08,3.79-.13,5.65Zm0,0-.14-5.65c0-1.87-.12-3.71-.13-5.54l.27.27c-4.41,0-8.83.16-13.24.17l-13.24.06.5-.5-.06,11.19-.44-.45c2.18,0,4.36,0,6.54.06l6.58.11Z" style="fill: rgb(235, 235, 235); transform-origin: 440.305px 52.69px;" id="eltl6djcxhdg" class="animable"></path><path d="M87.59,44.2l-13.12.28-6.66.11c-2.23,0-4.47,0-6.7.06h-.44V44.2L60.61,33v-.5h.5l13.24.06c4.42,0,8.83.12,13.24.17h.28V33c0,1.9-.09,3.79-.13,5.65Zm0,0-.14-5.65c0-1.87-.11-3.71-.13-5.54l.27.27c-4.41,0-8.82.16-13.24.17l-13.24.06.5-.5,0,11.19-.45-.45c2.18,0,4.36,0,6.55.06l6.58.11Z" style="fill: rgb(235, 235, 235); transform-origin: 74.24px 38.575px;" id="elpvemc0losnb" class="animable"></path><rect x="416.64" width="1" height="94.49" style="fill: rgb(199, 199, 199); transform-origin: 417.14px 47.245px;" id="el51l533n1yv6" class="animable"></rect><polygon points="375.75 134.4 379.07 141.72 455.23 141.72 458.55 134.4 426.13 111.96 408.17 111.96 375.75 134.4" style="fill: rgb(235, 235, 235); transform-origin: 417.15px 126.84px;" id="eleb6n8yn43qr" class="animable"></polygon><polygon points="405.92 90.34 408.17 111.96 426.13 111.96 428.38 90.34 405.92 90.34" style="fill: rgb(219, 219, 219); transform-origin: 417.15px 101.15px;" id="elj2n3fni2r5e" class="animable"></polygon><polygon points="375.75 134.4 379.08 141.72 455.23 141.72 458.55 134.4 375.75 134.4" style="fill: rgb(219, 219, 219); transform-origin: 417.15px 138.06px;" id="el6qs0mwwme2j" class="animable"></polygon><rect x="327.75" width="1" height="70.88" style="fill: rgb(199, 199, 199); transform-origin: 328.25px 35.44px;" id="elq3mphyl58v" class="animable"></rect><polygon points="286.85 110.78 290.18 118.1 366.33 118.1 369.65 110.78 337.23 88.34 319.27 88.34 286.85 110.78" style="fill: rgb(235, 235, 235); transform-origin: 328.25px 103.22px;" id="el408mqwfbe7d" class="animable"></polygon><polygon points="317.02 66.72 319.27 88.34 337.23 88.34 339.48 66.72 317.02 66.72" style="fill: rgb(219, 219, 219); transform-origin: 328.25px 77.53px;" id="elmghb0w5ngci" class="animable"></polygon><polygon points="286.86 110.79 290.19 118.11 366.33 118.11 369.65 110.79 286.86 110.79" style="fill: rgb(219, 219, 219); transform-origin: 328.255px 114.45px;" id="el2g68ee33biv" class="animable"></polygon><path d="M78.38,117.32a28.45,28.45,0,0,0,8.85,2,29,29,0,1,0-8.85-2Z" style="fill: rgb(235, 235, 235); transform-origin: 89.1188px 90.3816px;" id="el2ob83s4zpkq" class="animable"></path><path d="M79.72,88.65A8.82,8.82,0,1,0,86.83,78.4,8.83,8.83,0,0,0,79.72,88.65Z" style="fill: rgb(255, 255, 255); transform-origin: 88.3998px 87.0793px;" id="elsy4p2nulten" class="animable"></path><path d="M77.73,113.74l.65,3.58a28.45,28.45,0,0,0,8.85,2,28.83,28.83,0,0,0,21.15-7.39l-.65-3.57a15.24,15.24,0,1,0-30,5.43Z" style="fill: rgb(255, 255, 255); transform-origin: 92.9325px 107.6px;" id="elbax1bbrx7d7" class="animable"></path><path d="M348.8,284.91a19,19,0,1,0-2.65-22.17A19.06,19.06,0,0,0,348.8,284.91Z" style="fill: rgb(235, 235, 235); transform-origin: 362.747px 272px;" id="elfdkaqxnfcis" class="animable"></path><path d="M357.74,268.37a5.78,5.78,0,1,0,7.11-4A5.79,5.79,0,0,0,357.74,268.37Z" style="fill: rgb(255, 255, 255); transform-origin: 363.303px 269.94px;" id="el4sqkiqilcp4" class="animable"></path><path d="M349.44,282.61l-.64,2.3a19,19,0,0,0,19.25,5.31l.64-2.29a10,10,0,0,0-19.25-5.32Z" style="fill: rgb(255, 255, 255); transform-origin: 358.862px 283.383px;" id="el3pn0lzswm7j" class="animable"></path><path d="M135.88,137.61a17,17,0,1,1,20.54,12.48A17,17,0,0,1,135.88,137.61Z" style="fill: rgb(235, 235, 235); transform-origin: 152.394px 133.574px;" id="el377n8ufupxq" class="animable"></path><path d="M161.06,135.71c-2.57,5.17-8.67,8.25-8.67,8.25s-6.11-3.08-8.67-8.25c-2.14-4.32-.78-9,2.59-10,4.84-1.46,6.08,7,6.08,7s1.24-8.42,6.08-7C161.84,126.72,163.2,131.39,161.06,135.71Z" style="fill: rgb(255, 255, 255); transform-origin: 152.39px 134.75px;" id="elmsogchcfy2r" class="animable"></path><path d="M406.24,203.91a17,17,0,1,1,14.09,19.47A17,17,0,0,1,406.24,203.91Z" style="fill: rgb(235, 235, 235); transform-origin: 423.027px 206.595px;" id="el2c84fytgvg8" class="animable"></path><path d="M430.18,211.92c-4.37,3.78-11.19,4.24-11.19,4.24s-4.44-5.2-4.79-11c-.29-4.81,2.76-8.58,6.27-8.21,5,.53,2.9,8.77,2.9,8.77s4.41-7.28,8.31-4.05C434.39,204,433.83,208.77,430.18,211.92Z" style="fill: rgb(255, 255, 255); transform-origin: 423.779px 206.542px;" id="elyw2f359ru4" class="animable"></path><g id="freepik--xsrjP0--inject-83" class="animable" style="transform-origin: 215.409px 188.493px;"><path d="M211.43,203.5c-.78-.48-1.45-1.19-2.5-1.09-.4,0-.31-.29-.31-.5,0-3.92,0-7.84-.05-11.75,0-.29,0-.52.33-.68,3-1.52,4.27-4.49,6.09-7a11.7,11.7,0,0,0,2.14-8.9c-.12-.88.29-1.27,1.08-1.46a2,2,0,0,1,2.24.7,15.7,15.7,0,0,1,1.72,5.13c.18,1.48-.35,2.93-.53,4.4-.13,1.07-.38,2.14-.58,3.23.26.19.57.09.85.09l9.93,0c1.39,0,2.07.39,2.27,1.32a2.64,2.64,0,0,1-1.43,2.87c-.25.13-.69,0-.72.4s.43.36.66.52c1.2.81,1,2.51-.4,3.49-.33.24-1,.13-1,.62s.6.38.88.66c1,.95.49,2.74-.95,3.46a4.12,4.12,0,0,0-.58.23c-.16.11-.32.23,0,.46,1.44,1,1.42,2.44,0,3.48l-.43.32a2.82,2.82,0,0,1-1.74.38l-15.57.06A1.83,1.83,0,0,1,211.43,203.5Z" style="fill: rgb(235, 235, 235); fill-rule: evenodd; transform-origin: 221.364px 187.983px;" id="elqutdou7h8h" class="animable"></path><path d="M196.66,196.65c0-2.49,0-5,0-7.47,0-.51,0-.75.67-.75q4.56,0,9.1,0c.6,0,.69.2.69.73q0,7.51,0,15c0,.64-.16.82-.8.81-3,0-5.89,0-8.83,0-.73,0-.84-.25-.83-.89C196.7,201.62,196.67,199.14,196.66,196.65Z" style="fill: rgb(235, 235, 235); fill-rule: evenodd; transform-origin: 201.89px 196.7px;" id="elr0w1t1f3d5c" class="animable"></path></g></g><g id="freepik--Floor--inject-83" class="animable" style="transform-origin: 250px 368.305px;"><polygon points="41.45 368.3 93.59 368.06 145.73 367.97 250 367.81 354.27 367.97 406.41 368.06 458.55 368.3 406.41 368.55 354.27 368.64 250 368.8 145.73 368.64 93.59 368.55 41.45 368.3" style="fill: rgb(38, 50, 56); transform-origin: 250px 368.305px;" id="elijrw3pouz3" class="animable"></polygon></g><g id="freepik--Shadow--inject-83" class="animable" style="transform-origin: 250px 431.88px;"><ellipse cx="250" cy="431.88" rx="195.67" ry="27.51" style="fill: rgb(235, 235, 235); transform-origin: 250px 431.88px;" id="eld6367mk92ws" class="animable"></ellipse></g><g id="freepik--smiley-faces--inject-83" class="animable" style="transform-origin: 155.873px 131.247px;"><g id="elzerzlvo2qw"><circle cx="213.71" cy="111.77" r="52.99" style="fill: rgb(255, 165, 0); transform-origin: 213.71px 111.77px; transform: rotate(-81.3844deg);" class="animable"></circle></g><g id="elg62a6nd0l2k"><path d="M205.27,164.09A53,53,0,1,1,250.5,73.63a46,46,0,1,0,13.71,22.06,53,53,0,0,1-58.94,68.4Z" style="opacity: 0.1; transform-origin: 213.699px 111.765px;" class="animable"></path></g><path d="M183,96.21a8.11,8.11,0,0,1,2.52-5.75,7.52,7.52,0,0,1,2.87-1.78,7.3,7.3,0,0,1,3.44-.29A7.4,7.4,0,0,1,195,89.74a7.68,7.68,0,0,1,2.17,2.59,8.11,8.11,0,0,1,.57,6.25,10.72,10.72,0,0,0-1.88-5.46,6.65,6.65,0,0,0-4.35-2.8,6.56,6.56,0,0,0-5,1.3A10.65,10.65,0,0,0,183,96.21Z" style="fill: rgb(38, 50, 56); transform-origin: 190.559px 93.4415px;" id="el7egnfzdl8bd" class="animable"></path><path d="M233,104.27a8.11,8.11,0,0,1,2.51-5.75,7.6,7.6,0,0,1,2.87-1.78A7.16,7.16,0,0,1,245,97.8a7.68,7.68,0,0,1,2.17,2.59,8.07,8.07,0,0,1,.57,6.25,10.76,10.76,0,0,0-1.88-5.46,6.43,6.43,0,0,0-9.35-1.5A10.56,10.56,0,0,0,233,104.27Z" style="fill: rgb(38, 50, 56); transform-origin: 240.56px 101.499px;" id="elpr47ky2cmg" class="animable"></path><path d="M226.75,100.83a11.15,11.15,0,1,1-22-3.46Z" style="fill: rgb(38, 50, 56); transform-origin: 215.63px 104.094px;" id="el0khl9637x7o8" class="animable"></path><path d="M223.23,107.35a11.16,11.16,0,0,1-17.18-2.69,13.36,13.36,0,0,1,17.18,2.69Z" style="fill: rgb(201, 95, 80); transform-origin: 214.64px 106.46px;" id="el7jvc6aayvsh" class="animable"></path><path d="M182.14,95.83s-8-2.74-13.21.28-3.61,9,1.69,9.44S182.14,95.83,182.14,95.83Z" style="fill: rgb(255, 255, 255); transform-origin: 173.939px 100.128px;" id="elxns7oh429n" class="animable"></path><path d="M249,106.64s8.43.61,12,5.42-.17,9.66-5.24,8S249,106.64,249,106.64Z" style="fill: rgb(255, 255, 255); transform-origin: 255.706px 113.516px;" id="elok7iypsy9ym" class="animable"></path><g id="elc3g94p5vng5"><circle cx="82.32" cy="166.44" r="40.86" style="fill: rgb(255, 165, 0); transform-origin: 82.32px 166.44px; transform: rotate(-84.46deg);" class="animable"></circle></g><g id="elox3oz7bkiuo"><path d="M94.06,205.57a40.86,40.86,0,1,1,1-78A35.45,35.45,0,1,0,112,138.29a40.87,40.87,0,0,1-17.89,67.28Z" style="opacity: 0.1; transform-origin: 82.3753px 166.414px;" class="animable"></path></g><path d="M56.47,168.13a6.09,6.09,0,0,1-.28-4.87,5.94,5.94,0,0,1,1.4-2.25,5.8,5.8,0,0,1,2.34-1.38,5.7,5.7,0,0,1,2.72-.12,6,6,0,0,1,2.41,1.11,6.1,6.1,0,0,1,2.41,4.24,8.37,8.37,0,0,0-3.19-3.05,4.89,4.89,0,0,0-6.8,2A8.54,8.54,0,0,0,56.47,168.13Z" style="fill: rgb(38, 50, 56); transform-origin: 61.6405px 163.765px;" id="elfg7tchi1sua" class="animable"></path><path d="M104.2,151.44A5.75,5.75,0,1,1,97,147.58,5.76,5.76,0,0,1,104.2,151.44Z" style="fill: rgb(38, 50, 56); transform-origin: 98.6879px 153.078px;" id="eljjr3kb0oa6n" class="animable"></path><path d="M71.59,162.75s2.6,3.51,8.83,2.94c0,0-.88,11.73-8.26,9S71.59,162.75,71.59,162.75Z" style="fill: rgb(201, 95, 80); transform-origin: 74.5727px 168.926px;" id="el8dgbtdqc5su" class="animable"></path><path d="M69.32,159.29a12.72,12.72,0,0,0,5.36,5,9.89,9.89,0,0,0,6.89.26,9.65,9.65,0,0,0,5.66-3.91,14.07,14.07,0,0,0,2.09-7,11.11,11.11,0,0,1-.87,7.75,9.52,9.52,0,0,1-2.68,3.14,11.74,11.74,0,0,1-3.7,1.79,12.4,12.4,0,0,1-4.08.45,9.42,9.42,0,0,1-3.95-1.2A10.43,10.43,0,0,1,69.32,159.29Z" style="fill: rgb(38, 50, 56); transform-origin: 79.4883px 160.215px;" id="el47xzfqns14s" class="animable"></path><path d="M73.59,171.56a11.08,11.08,0,0,1,.69-3.27,10.83,10.83,0,0,1,1.53-3,10.76,10.76,0,0,1-.68,3.27A11.15,11.15,0,0,1,73.59,171.56Z" style="fill: rgb(38, 50, 56); transform-origin: 74.7px 168.425px;" id="elsaeht9jj95" class="animable"></path></g><g id="freepik--speech-bubbles--inject-83" class="animable" style="transform-origin: 341.975px 179.935px;"><rect x="285.32" y="131.07" width="92.42" height="50.98" style="fill: rgb(69, 90, 100); transform-origin: 331.53px 156.56px;" id="elbi6xcbj767" class="animable"></rect><polygon points="267.5 182.06 285.32 182.06 285.32 166.17 267.5 182.06" style="fill: rgb(69, 90, 100); transform-origin: 276.41px 174.115px;" id="elwuev96tz1ui" class="animable"></polygon><rect x="296.56" y="140.49" width="41.9" height="1.15" style="fill: rgb(255, 255, 255); transform-origin: 317.51px 141.065px;" id="ell56xhqkn92b" class="animable"></rect><rect x="296.56" y="146.69" width="70.38" height="1.15" style="fill: rgb(255, 255, 255); transform-origin: 331.75px 147.265px;" id="elfqgh0pmd41c" class="animable"></rect><rect x="296.56" y="152.89" width="70.38" height="1.15" style="fill: rgb(255, 255, 255); transform-origin: 331.75px 153.465px;" id="elzq5d7ft6fmn" class="animable"></rect><rect x="296.56" y="159.09" width="56.89" height="1.15" style="fill: rgb(255, 255, 255); transform-origin: 325.005px 159.665px;" id="elbcrfum4jwg4" class="animable"></rect><rect x="296.56" y="165.29" width="70.38" height="1.15" style="fill: rgb(255, 255, 255); transform-origin: 331.75px 165.865px;" id="elum328pmycfd" class="animable"></rect><rect x="296.56" y="171.49" width="25.89" height="1.15" style="fill: rgb(255, 255, 255); transform-origin: 309.505px 172.065px;" id="elbagipa2wxwi" class="animable"></rect><rect x="324.65" y="190.99" width="91.8" height="37.81" style="fill: rgb(255, 165, 0); transform-origin: 370.55px 209.895px;" id="eli5bbkpn3ts" class="animable"></rect><polygon points="324.68 213.64 324.68 228.8 306.25 228.8 324.68 213.64" style="fill: rgb(255, 165, 0); transform-origin: 315.465px 221.22px;" id="elfriq33x5fq" class="animable"></polygon><rect x="335.82" y="200.4" width="69.6" height="1.15" style="fill: rgb(255, 255, 255); transform-origin: 370.62px 200.975px;" id="elnf85mx1cci8" class="animable"></rect><rect x="335.82" y="206.6" width="39.71" height="1.15" style="fill: rgb(255, 255, 255); transform-origin: 355.675px 207.175px;" id="el3u0v448ncqj" class="animable"></rect><rect x="335.82" y="212.8" width="53.68" height="1.15" style="fill: rgb(255, 255, 255); transform-origin: 362.66px 213.375px;" id="ela0hbiruws5" class="animable"></rect><rect x="335.82" y="219" width="18.7" height="1.15" style="fill: rgb(255, 255, 255); transform-origin: 345.17px 219.575px;" id="el8t7b53y6zgp" class="animable"></rect></g><g id="freepik--paper-plane--inject-83" class="animable" style="transform-origin: 354.575px 213.91px;"><path d="M267.06,214.89l-.56-.49c.43-.5.89-1,1.35-1.49l.55.51C267.94,213.91,267.49,214.4,267.06,214.89Z" style="fill: rgb(38, 50, 56); transform-origin: 267.45px 213.9px;" id="elahgis5xd5hk" class="animable"></path><path d="M289.24,276.58v-.75c1.28,0,2.59-.11,3.9-.26l.09.75C291.88,276.46,290.54,276.55,289.24,276.58Zm-5-.23a36.79,36.79,0,0,1-3.94-.66l.17-.73a35.12,35.12,0,0,0,3.85.64Zm13.85-.86-.16-.73c1.25-.28,2.52-.62,3.79-1l.22.72C300.69,274.86,299.39,275.21,298.12,275.49Zm-22.56-1.23a33.13,33.13,0,0,1-3.64-1.64l.35-.67a34.41,34.41,0,0,0,3.55,1.61Zm31.09-1.47-.29-.7c1.2-.49,2.4-1,3.58-1.6l.33.67C309.08,271.75,307.86,272.29,306.65,272.79Zm-39-2.83a31.17,31.17,0,0,1-3.05-2.57l.52-.54a31.14,31.14,0,0,0,3,2.51Zm46.95-1.15-.39-.64c1.11-.67,2.21-1.39,3.28-2.15l.43.62C316.88,267.4,315.76,268.13,314.64,268.81Zm-53.33-5.13a31.94,31.94,0,0,1-2.23-3.31l.65-.38a30.87,30.87,0,0,0,2.17,3.23Zm60.57-.09-.49-.57c1-.83,1.95-1.72,2.9-2.63l.52.54C323.85,261.85,322.87,262.75,321.88,263.59Zm6.37-6.24-.56-.5c.86-.94,1.72-2,2.56-3l.58.47C330,255.39,329.11,256.4,328.25,257.35Zm-71.35-1.47a33.77,33.77,0,0,1-1.25-3.8l.73-.19a33.49,33.49,0,0,0,1.21,3.71Zm77-5.45-.61-.45c.78-1,1.54-2.12,2.29-3.2l.62.42C335.41,248.3,334.65,249.37,333.87,250.43Zm-79.12-3.25a35.71,35.71,0,0,1-.22-3.87v-.11h.75v.12a34.2,34.2,0,0,0,.21,3.78Zm84.17-4.09-.63-.41c.71-1.1,1.42-2.2,2.12-3.33l.63.4C340.34,240.88,339.63,242,338.92,243.09Zm-83.29-4.76-.74-.11a38,38,0,0,1,.76-3.91l.73.18A36.65,36.65,0,0,0,255.63,238.33Zm88-2.79-.64-.39c.68-1.12,1.36-2.24,2-3.38l.64.39Zm-85.8-5.72-.7-.26c.46-1.23,1-2.46,1.58-3.66l.67.33C258.82,227.41,258.29,228.62,257.84,229.82Zm90.39-1.89-.64-.39,2.05-3.38.64.39Zm-86.46-6-.64-.4c.7-1.11,1.45-2.22,2.24-3.29l.6.45C263.2,219.76,262.45,220.85,261.77,222Zm91.12-1.59-.64-.4c.7-1.11,1.42-2.22,2.14-3.32l.63.41C354.3,218.15,353.58,219.26,352.89,220.36Zm4.88-7.4-.62-.43c.75-1.08,1.52-2.15,2.3-3.22l.6.44Q358.9,211.34,357.77,213Zm5.26-7.13-.59-.47c.83-1.05,1.67-2.08,2.5-3.07l.58.49C364.69,203.76,363.85,204.78,363,205.83Zm5.74-6.74-.55-.51c.9-1,1.83-1.93,2.75-2.85l.53.53C370.58,197.18,369.67,198.13,368.77,199.09Zm6.3-6.2-.5-.56c1-.88,2-1.75,3-2.58l.47.58C377.05,191.15,376,192,375.07,192.89Zm6.87-5.56-.44-.6c1.06-.78,2.16-1.54,3.26-2.26l.41.63C384.08,185.81,383,186.57,381.94,187.33Zm7.4-4.81-.37-.65c1.13-.65,2.3-1.3,3.47-1.9l.35.66C391.62,181.23,390.46,181.87,389.34,182.52Zm7.86-4-.31-.68c1.2-.54,2.43-1.06,3.65-1.55l.28.7C399.6,177.44,398.39,178,397.2,178.49Zm8.22-3.23-.24-.71c1.24-.43,2.51-.83,3.78-1.21l.21.72C407.91,174.43,406.65,174.84,405.42,175.26Z" style="fill: rgb(38, 50, 56); transform-origin: 331.805px 224.965px;" id="el417wybyp77e" class="animable"></path><path d="M414.09,172.71l-.18-.73,1.95-.46.17.73Z" style="fill: rgb(38, 50, 56); transform-origin: 414.97px 172.115px;" id="el3vue2p5su39" class="animable"></path><polygon points="414.79 164.38 407.16 174.4 417.9 170.34 454.66 168.65 414.79 164.38" style="fill: rgb(255, 165, 0); transform-origin: 430.91px 169.39px;" id="elv1osxgqlhcq" class="animable"></polygon><g id="el6wnwve44wyj"><polygon points="414.79 164.38 407.16 174.4 417.9 170.34 454.66 168.65 414.79 164.38" style="opacity: 0.1; transform-origin: 430.91px 169.39px;" class="animable"></polygon></g><polygon points="418.19 173.32 407.16 174.4 417.9 170.34 418.19 173.32" style="fill: rgb(38, 50, 56); transform-origin: 412.675px 172.37px;" id="elipe1lflwu3" class="animable"></polygon><polygon points="417.9 170.34 454.66 168.65 419.33 186.65 417.9 170.34" style="fill: rgb(255, 165, 0); transform-origin: 436.28px 177.65px;" id="el87g5rz8hke8" class="animable"></polygon><polygon points="414.79 164.38 403.82 151.24 454.66 168.65 414.79 164.38" style="fill: rgb(255, 165, 0); transform-origin: 429.24px 159.945px;" id="eliuf844vn32k" class="animable"></polygon></g><g id="freepik--Puff--inject-83" class="animable" style="transform-origin: 209.378px 314.429px;"><path d="M121.25,431.08l185,.8c45-35.31,49.61-87.62,17.53-119.32-19.41-19.18-44.06-15.31-67.54-18.36h-.06c-8.18-1.07-16.2-3-23.81-7-24.17-12.75-37.8-42.83-58.13-68.13q-3.81-4.77-8-9.23c-16.72-17.86-50-18.44-67.41,6.66C54.61,280.28,74.87,375.22,121.25,431.08Z" style="fill: rgb(255, 165, 0); transform-origin: 209.378px 314.429px;" id="eltx9xyt540fb" class="animable"></path><g id="elpzfyjotbzd"><path d="M121.25,431.08l185,.8c45-35.31,49.61-87.62,17.53-119.32-19.41-19.18-44.06-15.31-67.54-18.36h-.06c-8.18-1.07-16.2-3-23.81-7-24.17-12.75-37.8-42.83-58.13-68.13q-3.81-4.77-8-9.23c-16.72-17.86-50-18.44-67.41,6.66C54.61,280.28,74.87,375.22,121.25,431.08Z" style="opacity: 0.2; transform-origin: 209.378px 314.429px;" class="animable"></path></g><g id="elvkgtpsdw6h"><path d="M117.14,285.15C122,361,209.63,389.37,264.38,366.64c47.59-19.77,32-64.89-8.16-72.44h-.06c-8.18-1.07-16.2-3-23.81-7-24.17-12.75-37.8-42.83-58.13-68.13C143.92,203.33,113.59,229.58,117.14,285.15Z" style="opacity: 0.1; transform-origin: 205.327px 294.41px;" class="animable"></path></g></g><g id="freepik--Character--inject-83" class="animable" style="transform-origin: 288.338px 304.987px;"><path d="M280.35,437.09c-2.67-1-62.94-49.15-64.08-52.44-.44-1.24,6.07-10.43,14.24-21.31,1.76-2.35,3.6-4.76,5.48-7.2,12.18-15.87,25.47-32.43,25.47-32.43l40.42,32.11-26.59,31.54-5.83,6.93s14.83,28.76,15.69,32.5S283,438.07,280.35,437.09Z" style="fill: rgb(201, 95, 80); transform-origin: 259.064px 380.444px;" id="elfvqcqy1q20n" class="animable"></path><path d="M280.35,437.09c-2.67-1-62.94-49.15-64.08-52.44-.53-1.52,9.18-14.76,19.72-28.51l39.3,31.22-5.83,6.93s14.83,28.76,15.69,32.5S283,438.07,280.35,437.09Z" style="fill: rgb(255, 255, 255); transform-origin: 250.775px 396.659px;" id="elfo5efmlemw" class="animable"></path><path d="M280.35,437.09c-2.67-1-62.94-49.15-64.08-52.44-.44-1.24,6.07-10.43,14.24-21.31l38.95,31s14.83,28.76,15.69,32.5S283,438.07,280.35,437.09Z" style="fill: rgb(255, 165, 0); transform-origin: 250.774px 400.259px;" id="elob7gut0nl89" class="animable"></path><path d="M281.41,434c-9.9-8.32-50.64-41-61.06-48.43-.09-.06-.13,0,0,.06,9.63,8.46,50.63,40.77,61,48.53C281.5,434.32,281.62,434.16,281.41,434Z" style="fill: rgb(38, 50, 56); transform-origin: 250.895px 409.886px;" id="elckljhw0bcp" class="animable"></path><path d="M283,421.53a10.37,10.37,0,0,0-8-2.37,10.06,10.06,0,0,0-6.57,3.59c-.05.06.06.15.12.1a12,12,0,0,1,14.36-1.2C283,421.71,283.08,421.59,283,421.53Z" style="fill: rgb(38, 50, 56); transform-origin: 275.725px 420.971px;" id="elzcyzr1csrl" class="animable"></path><path d="M272.57,398.42c-4-3.29-9.82-5.6-15-4.31-.2.05-.13.34,0,.37a71.45,71.45,0,0,1,14.62,4.5A.33.33,0,0,0,272.57,398.42Z" style="fill: rgb(38, 50, 56); transform-origin: 265.081px 396.392px;" id="el6kudb75eh5s" class="animable"></path><path d="M274.72,402.13c-4-3.28-9.83-5.6-15-4.3-.2.05-.13.33,0,.36a71.36,71.36,0,0,1,14.61,4.5A.33.33,0,0,0,274.72,402.13Z" style="fill: rgb(38, 50, 56); transform-origin: 267.23px 400.106px;" id="elag4lx6wc82r" class="animable"></path><path d="M276.87,405.85c-4-3.29-9.83-5.61-15-4.31-.2,0-.13.33,0,.37a71.34,71.34,0,0,1,14.61,4.49A.32.32,0,0,0,276.87,405.85Z" style="fill: rgb(38, 50, 56); transform-origin: 269.377px 403.817px;" id="eles3bdup34f" class="animable"></path><path d="M279,409.56c-4-3.29-9.83-5.61-15-4.31-.2.05-.13.33,0,.37a71.34,71.34,0,0,1,14.61,4.49A.32.32,0,0,0,279,409.56Z" style="fill: rgb(38, 50, 56); transform-origin: 271.507px 407.527px;" id="el38q7nys6d4e" class="animable"></path><path d="M230.59,378c-4.55-3.61-10.17,3.45-5.62,7.07S235.14,381.64,230.59,378Z" style="fill: rgb(255, 255, 255); transform-origin: 227.78px 381.538px;" id="el4zlqsznbyp" class="animable"></path><path d="M285.57,391.12c-.69-3.33-4.6-3.73-7.27-3a27.15,27.15,0,0,0-11.94,7.41.13.13,0,0,0,0,.21.63.63,0,0,0,.46.91c4.47.31,9.22,1.2,13.65.12C283.1,396.17,286.22,394.28,285.57,391.12Zm-11.83,4.63c-2.21-.09-4.39-.3-6.59-.32a80.71,80.71,0,0,1,7.06-4.17,30.19,30.19,0,0,1,3.66-1.55c1.95-.63,8.62-.84,5.5,3.88C281.66,396.2,276.36,395.87,273.74,395.75Z" style="fill: rgb(38, 50, 56); transform-origin: 275.974px 392.55px;" id="elxf13h29ci6b" class="animable"></path><path d="M255.12,389c3.09,3.35,7.52,5.25,11.41,7.48a.63.63,0,0,0,.89-.5c.09,0,.17-.05.15-.16a27.18,27.18,0,0,0-5.81-12.79c-1.8-2.11-5.27-3.95-7.7-1.56S253.31,387.06,255.12,389Zm-.6-4.26c0-5.65,5.46-1.77,6.73-.16a29.67,29.67,0,0,1,2.18,3.32,80.85,80.85,0,0,1,3.55,7.39c-1.84-1.21-3.77-2.25-5.66-3.39C259.08,390.55,254.5,387.88,254.52,384.76Z" style="fill: rgb(38, 50, 56); transform-origin: 260.21px 388.441px;" id="elzp9l5es5qjq" class="animable"></path><path d="M342.69,294.08c-2.77,21-54.51,81.6-60.49,88.56l-1.36,1.58L238,351.33l.49-.64,37.69-49.35-112.42-.66,42.69-33.19s3.46,2,10.66.95c24.81-3.63,80.75-11.67,93.94-11.14C328.1,258,345.23,274.82,342.69,294.08Z" style="fill: rgb(55, 71, 79); transform-origin: 253.351px 320.747px;" id="elnyf1rl50xuf" class="animable"></path><path d="M289.76,283a50.8,50.8,0,0,0-3.89,5c-1.33,1.75-2.68,3.48-4,5.23l0,.05c.23-.51.46-1,.71-1.54.84-1.73,1.51-3.53,2.5-5.19.06-.11-.09-.2-.15-.1-1,1.65-2.21,3.22-3.08,5-.41.82-.8,1.64-1.16,2.48-.2.46-.41.93-.58,1.39a5.54,5.54,0,0,0-.25.68c-.6.81-1.18,1.62-1.76,2.45-1.27,1.84-2.39,3.78-3.67,5.61-.07.09.09.18.16.09,1.3-1.71,2.76-3.31,4.08-5s2.62-3.52,3.88-5.31,2.43-3.52,3.66-5.27a53.53,53.53,0,0,0,3.71-5.42C289.9,283,289.82,282.94,289.76,283Z" style="fill: rgb(38, 50, 56); transform-origin: 282.166px 293.582px;" id="elfur6ip1ikom" class="animable"></path><path d="M183.43,237.12c9.31,23.87,39,51.7,49.1,52.6,11.76,1.06,42.14-12.43,53.9-28.78,2.78-3.87-22.12-22.32-26.33-19.43-8.64,5.92-24.92,14-26.32,14.06-2.78.21-21.26-14.26-36-24.6C179.42,218.12,179.72,227.61,183.43,237.12Z" style="fill: rgb(201, 95, 80); transform-origin: 234.031px 257.254px;" id="elfjwkkibrtrm" class="animable"></path><path d="M282.84,265.27s10.77-11.12,11.91-21.59c.79-7.25.05-26.47-17.38-39.49-4.14-3.09-12.22-4.55-7.3,2.94,3.5,5.33,7.32,7.65,8.79,11.11,0,0-10.5-.64-13.43,3.62a95.07,95.07,0,0,0-6.86,11.68,18.61,18.61,0,0,0,2.07,1.49s-2.37,4.24-.73,11.43Z" style="fill: rgb(201, 95, 80); transform-origin: 276.761px 233.471px;" id="elg7ujpops8ca" class="animable"></path><path d="M257.11,196.73l-12,38c-.47,1.11,0,2.06,1.15,2.12L266.19,238a3.19,3.19,0,0,0,2.87-1.89l11.95-38c.48-1.11,0-2.06-1.14-2.13L260,194.85A3.22,3.22,0,0,0,257.11,196.73Z" style="fill: rgb(166, 166, 166); transform-origin: 263.062px 216.425px;" id="elrrb8oxcg9sm" class="animable"></path><path d="M259.47,196.85l-12,38c-.47,1.1,0,2.06,1.15,2.12l19.88,1.16a3.23,3.23,0,0,0,2.88-1.89l11.94-38c.48-1.11,0-2.05-1.14-2.12L262.35,195A3.23,3.23,0,0,0,259.47,196.85Z" style="fill: rgb(199, 199, 199); transform-origin: 265.397px 216.565px;" id="eld250ll1jz75" class="animable"></path><path d="M264.82,198.93a1.69,1.69,0,1,1-1.55-1.82A1.69,1.69,0,0,1,264.82,198.93Z" style="fill: rgb(38, 50, 56); transform-origin: 263.135px 198.795px;" id="elunlw84gd6ol" class="animable"></path><path d="M293.7,233.37c-2.19-3.13-6.93-9.69-12.68-13.71-6.38-4.46-19.89-11.34-23.13-6.59-2.38,3.48,2.54,6.56,2.54,6.56s-6.18-1.67-7.64,2c-1.33,3.29,2.62,5.44,2.62,5.44s-3.92-.36-4.6,3.06c-.8,4.11,7.55,4.2,10.33,9.08C261.76,240.25,293.7,233.37,293.7,233.37Z" style="fill: rgb(201, 95, 80); transform-origin: 272.228px 225.391px;" id="elilogag6hqa" class="animable"></path><path d="M277.43,227.19a31,31,0,0,0-16.85-7.63c-.16,0-.26.1-.11.14a76.84,76.84,0,0,1,16.92,7.55S277.46,227.22,277.43,227.19Z" style="fill: rgb(38, 50, 56); transform-origin: 268.917px 223.405px;" id="elyayd3r5voi" class="animable"></path><path d="M272.74,233.51c-2.42-2-10.14-6.28-17.28-6.62-.16,0-.25.11-.1.15a82.19,82.19,0,0,1,17.34,6.53S272.77,233.53,272.74,233.51Z" style="fill: rgb(38, 50, 56); transform-origin: 264.015px 230.23px;" id="elge7jq8epcbp" class="animable"></path><path d="M259.79,237.47c0,2.31,0,4.55.26,6.78.1,1.12.28,2.22.48,3.32a32.05,32.05,0,0,0,.91,3.27,12.23,12.23,0,0,1-2.38-6.49,19.37,19.37,0,0,1,0-3.49A14,14,0,0,1,259.79,237.47Z" style="fill: rgb(38, 50, 56); transform-origin: 260.211px 244.155px;" id="el50tpuh3ydd5" class="animable"></path><path d="M196.05,261.82l18.36-20.51s-14.6-12.51-25.17-17.24-12.07,2.09-7.42,12.38S196.05,261.82,196.05,261.82Z" style="fill: rgb(199, 199, 199); transform-origin: 196.866px 242.18px;" id="el27nwx05g9xb" class="animable"></path><path d="M209.53,246.75l-13.48,15.07s-9.58-15.08-14.23-25.37c-3.49-7.74-3.53-13.52,1.18-13.89Z" style="fill: rgb(166, 166, 166); transform-origin: 194.425px 242.19px;" id="elmswf1luqk8j" class="animable"></path><path d="M209.16,238.2c-3.11,2.92-11.3,11.11-15.89,17.15,0,0,.11.17.14.13,4.61-4.41,13.12-13.9,15.94-17.09C209.41,238.33,209.22,238.15,209.16,238.2Z" style="fill: rgb(38, 50, 56); transform-origin: 201.316px 246.839px;" id="el7mzcgxqs6g7" class="animable"></path><path d="M140.07,313c.19.2,73.35-15.83,74-16.68,1-1.2-12.13-56.22-25.92-72.63-3.45-4.11-14.43-3.83-19.35.32C144.47,244.52,139.37,312.27,140.07,313Z" style="fill: rgb(235, 235, 235); transform-origin: 177.067px 266.875px;" id="elfq2gu290757" class="animable"></path><path d="M184.52,221.44l-17.15,3.88c.45-.45.91-.86,1.37-1.25l13.75-3.1A14,14,0,0,1,184.52,221.44Zm2.53,1.21-21.88,4.94c-.35.38-.68.76-1,1.16l23.75-5.36A5.75,5.75,0,0,0,187.05,222.65Zm2.09,2.24-26.65,6c-.28.36-.54.73-.8,1.11l28-6.33C189.54,225.42,189.35,225.15,189.14,224.89Zm1.65,2.34-30.49,6.88c-.23.36-.46.72-.68,1.09L191.31,228Zm1.46,2.38-33.83,7.64-.58,1.07,34.89-7.88ZM193.6,232l-36.82,8.31-.52,1L194,232.85Zm1.24,2.42-39.52,8.93c-.16.34-.31.69-.47,1l40.4-9.13C195.12,235,195,234.72,194.84,234.44Zm1.17,2.44-42,9.49-.42,1,42.83-9.67C196.28,237.44,196.15,237.16,196,236.88Zm1.12,2.46-44.34,10c-.14.34-.27.68-.4,1l45.12-10.19C197.38,239.9,197.26,239.62,197.13,239.34Zm1.07,2.47-46.52,10.51q-.19.51-.36,1l47.24-10.67Zm1,2.48-48.57,11c-.12.34-.23.67-.34,1l49.25-11.12C199.45,244.86,199.33,244.57,199.22,244.29Zm1,2.49-50.51,11.41c-.1.34-.21.67-.31,1l51.15-11.56Zm1,2.5L148.81,261.1l-.3,1,53-12Zm.91,2.5L148,264c-.1.33-.19.67-.28,1l54.67-12.36C202.27,252.35,202.17,252.06,202.06,251.78Zm.89,2.51L147.2,266.88c-.08.33-.17.66-.25,1l56.3-12.72Zm.86,2.51-57.33,12.95q-.14.5-.24,1l57.86-13.07C204,257.38,203.91,257.09,203.81,256.8Zm.85,2.53-58.87,13.29c-.08.33-.15.66-.23,1l59.38-13.41C204.85,259.91,204.75,259.62,204.66,259.33Zm.81,2.52-60.32,13.63-.21,1,60.81-13.73C205.66,262.44,205.57,262.14,205.47,261.85Zm.8,2.53-61.72,13.94c-.07.33-.14.66-.2,1l62.19-14Zm.78,2.54L144,281.16c-.06.33-.13.66-.18,1l63.5-14.35C207.22,267.5,207.13,267.21,207.05,266.92Zm.75,2.53L143.45,284c-.06.32-.12.65-.17,1l64.77-14.63C208,270,207.88,269.75,207.8,269.45Zm.73,2.55L143,286.81c-.06.33-.12.65-.17,1l66-14.9C208.7,272.59,208.62,272.3,208.53,272Zm.72,2.55-66.76,15.07-.15,1,67.16-15.16C209.41,275.14,209.33,274.85,209.25,274.55Zm.69,2.55-67.88,15.33-.15,1L210.18,278C210.11,277.69,210,277.4,209.94,277.1Zm.69,2.56-69,15.58c0,.33-.09.64-.13,1l69.34-15.66C210.78,280.25,210.71,280,210.63,279.66Zm.65,2.56-70,15.81-.12,1,70.35-15.89C211.44,282.82,211.36,282.52,211.28,282.22Zm.64,2.56-71,16c0,.33-.07.65-.11,1l71.3-16.11Zm.61,2.57-71.9,16.24q0,.5-.09,1l72.19-16.31C212.67,288,212.6,287.65,212.53,287.35Zm.58,2.58-72.74,16.43c0,.33-.06.65-.08,1l73-16.49C213.24,290.54,213.18,290.24,213.11,289.93Zm.53,2.6-73.49,16.6c0,.33,0,.65-.06.94l73.72-16.65C213.76,293.14,213.7,292.85,213.64,292.53Zm.44,2.61L140,311.87a9.19,9.19,0,0,0,0,.93l74.13-16.74A8.12,8.12,0,0,0,214.08,295.14Z" style="fill: rgb(219, 219, 219); fill-rule: evenodd; transform-origin: 177.059px 266.885px;" id="elqk11fm4w07" class="animable"></path><path d="M184.9,236.38c-3.33.38-10.7-5.37-13.78-10.44-.2-.35.17-4.13.42-8.75.13-2.8.22-5.92.09-8.77l18.1,3.55a45.14,45.14,0,0,0-1.24,11,6,6,0,0,0,.17,1.16c0,.06,0,.12,0,.19C189.16,226.57,190.11,235.78,184.9,236.38Z" style="fill: rgb(201, 95, 80); transform-origin: 180.396px 222.409px;" id="el6ds1vg5tdsf" class="animable"></path><path d="M188.66,224.17c0,.06,0,.11,0,.2a11.52,11.52,0,0,1-1.84.17c-10.19.23-13.23-12.06-13.92-15.86L189.73,212a46,46,0,0,0-1.25,11A8.28,8.28,0,0,0,188.66,224.17Z" style="fill: rgb(38, 50, 56); transform-origin: 181.315px 216.612px;" id="el70rg04xosn6" class="animable"></path><path d="M166.13,186.43c-1.07,6.56,4.7,24.3,9.72,27.75,7.28,5,18,4.14,21.93-4.33,3.83-8.22-4.1-31.21-9.6-34.22C180.08,171.19,167.72,176.75,166.13,186.43Z" style="fill: rgb(201, 95, 80); transform-origin: 182.394px 195.668px;" id="el7ufm77kh61m" class="animable"></path><path d="M180.41,191.84c.49-.29.89-.64,1.35-1s1-.63,1.19-1.25a.85.85,0,0,0-.42-1,2.12,2.12,0,0,0-2.12.38,3.15,3.15,0,0,0-1.35,1.81A.92.92,0,0,0,180.41,191.84Z" style="fill: rgb(38, 50, 56); transform-origin: 181.003px 190.213px;" id="elf1alidf468t" class="animable"></path><path d="M192.29,188.36a15.42,15.42,0,0,1-1.66,0,2.71,2.71,0,0,1-1.71-.27.87.87,0,0,1-.25-1,2.16,2.16,0,0,1,1.93-1,3.15,3.15,0,0,1,2.16.61A.92.92,0,0,1,192.29,188.36Z" style="fill: rgb(38, 50, 56); transform-origin: 190.871px 187.238px;" id="elnvs3cucaqxp" class="animable"></path><path d="M185.34,205.61c.37.2.77.51,1.22.42a3.38,3.38,0,0,0,1.21-.68s.09,0,.07,0a1.67,1.67,0,0,1-1.34,1.1,1.34,1.34,0,0,1-1.26-.79C185.2,205.64,185.29,205.59,185.34,205.61Z" style="fill: rgb(38, 50, 56); transform-origin: 186.536px 205.9px;" id="elck49zuapibw" class="animable"></path><path d="M185.56,201.63a4.25,4.25,0,0,0,3.27,1,5.22,5.22,0,0,0,1.5-.36,1.69,1.69,0,0,0,.27-.11l.26-.12a.32.32,0,0,0,.16-.34h0l-.05-.12h0l0-.1c-.24-.94-.74-2.33-.74-2.33.39.07,2.34.35,2.18-.13a64.75,64.75,0,0,0-5.21-12,.12.12,0,0,0-.22.1c1.21,3.84,3.08,7.45,4.35,11.3a7.49,7.49,0,0,0-2.11,0c-.12.07,1,2.66,1.09,3.09a.12.12,0,0,1,0,.05,6,6,0,0,1-4.64-.09C185.53,201.45,185.46,201.56,185.56,201.63Z" style="fill: rgb(38, 50, 56); transform-origin: 188.966px 194.804px;" id="elm38gi410suj" class="animable"></path><path d="M189.65,202a5.16,5.16,0,0,1-1.52,2.08,2.26,2.26,0,0,1-1.3.47c-1,0-1.32-.85-1.37-1.66a5.79,5.79,0,0,1,.1-1.28A6.56,6.56,0,0,0,189.65,202Z" style="fill: rgb(38, 50, 56); transform-origin: 187.553px 203.08px;" id="elmuvtpof3lgb" class="animable"></path><path d="M188.13,204.07a2.26,2.26,0,0,1-1.3.47c-1,0-1.32-.85-1.37-1.66A2.36,2.36,0,0,1,188.13,204.07Z" style="fill: rgb(255, 155, 188); transform-origin: 186.795px 203.674px;" id="el4btlsno4nh2" class="animable"></path><path d="M181.43,194.8a1.93,1.93,0,0,1,.21-1,1.32,1.32,0,0,1,.87-.65,1.23,1.23,0,0,1,1.06.28,2.16,2.16,0,0,1,.55.82,3.08,3.08,0,0,1,.17.57,2.69,2.69,0,0,1,0,1.23,4,4,0,0,0-.24-.86,4.91,4.91,0,0,0-.34-.73c-.28-.48-.68-.84-1.08-.72s-.67.5-.73,1.05a9.07,9.07,0,0,0,0,1.72A3.92,3.92,0,0,1,181.43,194.8Z" style="fill: rgb(38, 50, 56); transform-origin: 182.894px 194.817px;" id="elp4hqj8g5bd" class="animable"></path><path d="M193.14,191.07a2,2,0,0,0-.69-.72,1.38,1.38,0,0,0-1.09-.09,1.24,1.24,0,0,0-.74.81,2,2,0,0,0,0,1,5.5,5.5,0,0,0,.16.58,2.72,2.72,0,0,0,.66,1,4,4,0,0,1-.26-.85,7.94,7.94,0,0,1-.1-.8c0-.55.13-1.07.53-1.19a1.06,1.06,0,0,1,1.18.51,8.9,8.9,0,0,1,.88,1.48A3.9,3.9,0,0,0,193.14,191.07Z" style="fill: rgb(38, 50, 56); transform-origin: 192.113px 191.919px;" id="elfeukl953wyi" class="animable"></path><path d="M192.87,180.84c-5.44,5.86-15.75,1.19-15.75,1.19a7.19,7.19,0,0,1-6.1,6s1.19,11.16-1.68,11.79c-4.38,1-9.09-13.57-8.37-16.79s4.27-4.82,4.27-4.82a7.29,7.29,0,0,1,2-5c2.47-3,13.48-2.22,13.48-2.22a9.73,9.73,0,0,1,1.84-4.16,2.77,2.77,0,0,1,4-.52,6.59,6.59,0,0,0-.44,2.92c.2,3.3,2.81,2.71,2.13-.17a4.61,4.61,0,0,0-1.69-2.75c.86-2.18,2.82-3.27,4.32-2.54C193.58,165.12,197.4,176,192.87,180.84Z" style="fill: rgb(38, 50, 56); transform-origin: 177.932px 181.707px;" id="el05gdqwjxqqml" class="animable"></path><path d="M183.75,200.81a5.18,5.18,0,1,1,3.67-7.32h0A5.19,5.19,0,0,1,185,200.4,4.68,4.68,0,0,1,183.75,200.81Zm-1.88-9.49a4.7,4.7,0,0,0-1.06.35,4.5,4.5,0,1,0,1.06-.35Z" style="fill: rgb(255, 165, 0); transform-origin: 182.748px 195.728px;" id="elmvomkabfz6" class="animable"></path><path d="M194.81,197.15c-2,.29-4-1.46-4.75-4.07a6.21,6.21,0,0,1,.11-3.78,3.23,3.23,0,0,1,5.34-1.45,6.16,6.16,0,0,1,2,3.22c.75,2.75-.31,5.45-2.37,6Zm-1.94-9.46-.26.05a2.77,2.77,0,0,0-1.79,1.8,5.47,5.47,0,0,0-.09,3.36c.65,2.39,2.54,4,4.23,3.51s2.53-2.77,1.88-5.16a5.43,5.43,0,0,0-1.77-2.86A2.82,2.82,0,0,0,192.87,187.69Z" style="fill: rgb(255, 165, 0); transform-origin: 193.784px 192.067px;" id="elvrt5zp58mim" class="animable"></path><path d="M187.44,194.12l-.58-.37c.54-.87,2-2.27,3.62-1.37l-.34.6C188.69,192.17,187.49,194,187.44,194.12Z" style="fill: rgb(255, 165, 0); transform-origin: 188.67px 193.105px;" id="el8z0t9o3b1j2" class="animable"></path><path d="M165.88,202.5l-.69-.12c.06-.32.56-3.13,2-3.85s10.41-2.69,10.79-2.78l.15.68c-2.61.58-9.62,2.2-10.63,2.72S166,201.72,165.88,202.5Z" style="fill: rgb(255, 165, 0); transform-origin: 171.66px 199.125px;" id="elg4r18ghzp1w" class="animable"></path><path d="M172,200.73s-5-5.23-7.44-3.35,2,9.9,5.27,10.57a3.21,3.21,0,0,0,4-2.36Z" style="fill: rgb(201, 95, 80); transform-origin: 168.844px 202.522px;" id="elbw2dqitcnlg" class="animable"></path><path d="M165.89,199.65c-.06,0,0,.07,0,.08,2.33.55,3.8,2.4,4.93,4.38a1.78,1.78,0,0,0-2.7-.07c-.05.05,0,.13.08.11a2,2,0,0,1,2.26.35,9.43,9.43,0,0,1,1.3,1.58c.13.18.47,0,.36-.2l0,0C171.7,203,168.93,199.46,165.89,199.65Z" style="fill: rgb(38, 50, 56); transform-origin: 169.002px 202.898px;" id="elhsqwo1p1a4d" class="animable"></path><path d="M162.76,244.31c5.08,31.1,17.75,51.3,23.68,52.28,15.95,2.63,42.93-23.46,51-29.58,3.25-2.48-23.28-24.68-26.41-21.64-7.4,7.16-17.34,18.4-17.86,18.52-1,.25-4.8-6.82-17.54-26.82C165.29,220.88,160.69,231.6,162.76,244.31Z" style="fill: rgb(201, 95, 80); transform-origin: 199.995px 262.83px;" id="ela5iq61nh424" class="animable"></path><path d="M252.18,215.39c2.21,3.36-6.54,8.09-6.54,8.09a7.38,7.38,0,0,1,4.73,1.75c2.24,2.07,0,6.5,0,6.5a9.16,9.16,0,0,1,4.7,2.63c1.94,2.2.28,7,.28,7a8.36,8.36,0,0,1,2.67,4.92c1,8.5-17.54,20.65-23.56,23l-24.33-22s9-20.18,16.38-25.39C230.56,219,248.81,210.25,252.18,215.39Z" style="fill: rgb(201, 95, 80); transform-origin: 234.094px 241.542px;" id="elt7xpu98djl" class="animable"></path><path d="M245.51,223.43c-5.23,1.58-10.08,4.41-14.73,7.19-.1.06,0,.22.1.16,4.59-2.82,10.05-4.48,14.74-7.11C245.75,223.6,245.65,223.39,245.51,223.43Z" style="fill: rgb(38, 50, 56); transform-origin: 238.209px 227.109px;" id="elm15nlnoppy" class="animable"></path><path d="M250,231.46a14.11,14.11,0,0,0-3.24,1.86c-1.1.73-2.18,1.48-3.25,2.25-2.15,1.54-4.27,3.13-6.33,4.79-.1.07,0,.23.09.16,2.15-1.54,4.32-3,6.52-4.48,1.11-.72,2.22-1.43,3.34-2.13a17.51,17.51,0,0,0,3.06-2.14C250.31,231.64,250.17,231.4,250,231.46Z" style="fill: rgb(38, 50, 56); transform-origin: 243.687px 235.994px;" id="eltl99m8q3chb" class="animable"></path><path d="M255.23,241.42a9.87,9.87,0,0,0-2.82,1.82l-2.91,2.15c-1.94,1.42-3.89,2.85-5.88,4.2a.09.09,0,1,0,.1.16c2-1.36,4.08-2.7,6.1-4.09,1-.68,2-1.36,3-2a9.32,9.32,0,0,0,2.52-2.1A.06.06,0,0,0,255.23,241.42Z" style="fill: rgb(38, 50, 56); transform-origin: 249.475px 245.583px;" id="elmf5g772hjbg" class="animable"></path><path d="M257,243.5a6.67,6.67,0,0,1,1.15,4.49,9.38,9.38,0,0,1-1.77,4.38,40.33,40.33,0,0,1-6.22,7,59.51,59.51,0,0,1-7.4,5.74,51.87,51.87,0,0,1-8.25,4.41l.07,0q-2.75,2.26-5.54,4.45,2.55-2.48,5.16-4.88l0,0,0,0a62.91,62.91,0,0,0,8-4.67,72.44,72.44,0,0,0,7.27-5.68,49.18,49.18,0,0,0,6.31-6.68,9.52,9.52,0,0,0,1.91-4A6.74,6.74,0,0,0,257,243.5Z" style="fill: rgb(38, 50, 56); transform-origin: 243.613px 258.735px;" id="elohc1g5wc5vt" class="animable"></path><path d="M165.89,269.59,190.36,257S181.22,240.11,173,231.9s-12-2.36-11.36,8.91S165.89,269.59,165.89,269.59Z" style="fill: rgb(199, 199, 199); transform-origin: 175.965px 248.822px;" id="elndfxh89gf2k" class="animable"></path><path d="M186,252.26c-3.95,1.62-14.52,6.33-21,10.33,0,0,0,.19.08.17,5.88-2.47,17.22-8.28,21-10.25C186.18,252.47,186.07,252.23,186,252.26Z" style="fill: rgb(38, 50, 56); transform-origin: 175.56px 257.509px;" id="elucuy8lwk8yp" class="animable"></path><path d="M436.6,382.5c-1,2.66-49.35,62.78-52.65,63.91-1.24.43-10.41-6.1-21.26-14.31-2.34-1.77-4.75-3.62-7.19-5.51C339.67,414.36,323.16,401,323.16,401l32.23-40.31,31.46,26.69,6.91,5.85s28.81-14.73,32.55-15.58S437.58,379.83,436.6,382.5Z" style="fill: rgb(201, 95, 80); transform-origin: 379.924px 403.56px;" id="elspvfl8o7s8g" class="animable"></path><path d="M436.6,382.5c-1,2.66-49.35,62.78-52.65,63.91-1.52.52-14.73-9.23-28.45-19.82l31.35-39.19,6.91,5.85s28.81-14.73,32.55-15.58S437.58,379.83,436.6,382.5Z" style="fill: rgb(255, 255, 255); transform-origin: 396.094px 411.977px;" id="elkq0gkp2g0cf" class="animable"></path><path d="M436.6,382.5c-1,2.66-49.35,62.78-52.65,63.91-1.24.43-10.41-6.1-21.26-14.31l31.07-38.85s28.81-14.73,32.55-15.58S437.58,379.83,436.6,382.5Z" style="fill: rgb(255, 165, 0); transform-origin: 399.689px 411.977px;" id="elea3vxk6yh1p" class="animable"></path><path d="M433.5,381.42c-8.36,9.88-41.12,50.51-48.63,60.91-.06.09,0,.13.07.05,8.49-9.61,40.92-50.5,48.72-60.82C433.83,381.34,433.68,381.22,433.5,381.42Z" style="fill: rgb(38, 50, 56); transform-origin: 409.29px 411.871px;" id="elcu00nkp8ysr" class="animable"></path><path d="M421,379.79a10.42,10.42,0,0,0-2.39,8,10.06,10.06,0,0,0,3.57,6.58c.06.05.15-.06.1-.12a12,12,0,0,1-1.15-14.37A.08.08,0,0,0,421,379.79Z" style="fill: rgb(38, 50, 56); transform-origin: 420.414px 387.074px;" id="eltgp4u840dt" class="animable"></path><path d="M397.91,390.15c-3.31,4-5.64,9.81-4.36,15,.05.2.33.12.37-.05a71.3,71.3,0,0,1,4.54-14.59A.32.32,0,0,0,397.91,390.15Z" style="fill: rgb(38, 50, 56); transform-origin: 395.854px 397.635px;" id="el7jnmfqj61qh" class="animable"></path><path d="M401.62,388c-3.3,4-5.63,9.81-4.35,15,.05.2.33.13.37,0a71.39,71.39,0,0,1,4.54-14.6A.33.33,0,0,0,401.62,388Z" style="fill: rgb(38, 50, 56); transform-origin: 399.578px 395.491px;" id="el4bzr7rojxxd" class="animable"></path><path d="M405.34,385.87c-3.3,4-5.64,9.81-4.35,15,.05.2.33.13.36,0a72,72,0,0,1,4.55-14.6A.33.33,0,0,0,405.34,385.87Z" style="fill: rgb(38, 50, 56); transform-origin: 403.297px 393.361px;" id="elqkklkf08jma" class="animable"></path><path d="M409.06,383.74c-3.3,4-5.64,9.81-4.35,15,0,.2.33.12.36,0a71.73,71.73,0,0,1,4.54-14.59A.32.32,0,0,0,409.06,383.74Z" style="fill: rgb(38, 50, 56); transform-origin: 407.013px 391.233px;" id="elx3lu9ga18zq" class="animable"></path><path d="M377.37,432.07c-3.63,4.53,3.41,10.18,7.05,5.63S381,427.52,377.37,432.07Z" style="fill: rgb(255, 255, 255); transform-origin: 380.896px 434.883px;" id="elsmjbab2xgs" class="animable"></path><path d="M390.65,377.13c-3.34.68-3.75,4.58-3,7.26a27.19,27.19,0,0,0,7.37,12,.14.14,0,0,0,.22,0,.64.64,0,0,0,.91-.47c.32-4.47,1.22-9.21.16-13.64C395.69,379.62,393.8,376.49,390.65,377.13ZM395.24,389c-.11,2.21-.32,4.39-.34,6.6a80.85,80.85,0,0,1-4.15-7.08,30.27,30.27,0,0,1-1.54-3.67c-.62-1.95-.81-8.62,3.9-5.49C395.71,381.06,395.37,386.35,395.24,389Z" style="fill: rgb(38, 50, 56); transform-origin: 392.071px 386.75px;" id="elvdcst72jdpf" class="animable"></path><path d="M388.44,407.57c3.37-3.08,5.28-7.5,7.52-11.38a.63.63,0,0,0-.49-.9.14.14,0,0,0-.16-.15,27.23,27.23,0,0,0-12.81,5.77c-2.12,1.79-4,5.26-1.59,7.69S386.48,409.37,388.44,407.57Zm-4.25.59c-5.66-.05-1.76-5.47-.15-6.73a29.25,29.25,0,0,1,3.33-2.17,81,81,0,0,1,7.41-3.53c-1.22,1.84-2.27,3.76-3.42,5.65C390,403.62,387.31,408.19,384.19,408.16Z" style="fill: rgb(38, 50, 56); transform-origin: 387.902px 402.479px;" id="elku5j0rkxszf" class="animable"></path><path d="M385.17,381.31l-33.55,45.26L238.42,348l-10.91-7.58s-3.09,2.08-7.75,4.65c-6.46,3.57-15.93,8.1-24.31,9.33-14,2.08-37.51,1.86-49.36-14-10-13.34-4.56-30.74-4.56-30.74L157,303.09s36.52-30.43,60.17-31.34c10.05-.4,24.68,7.21,38.22,15.17S385.17,381.31,385.17,381.31Z" style="fill: rgb(55, 71, 79); transform-origin: 262.611px 349.152px;" id="elub9cnbk2i8n" class="animable"></path><path d="M227.51,340.45s-3.09,2.08-7.75,4.65c-8.22-9.84-25.63-27.73-26.16-28.36Z" style="fill: rgb(38, 50, 56); transform-origin: 210.555px 330.92px;" id="elow8vnpr483l" class="animable"></path><path d="M170.34,292.9c-2.18,1.52-4.29,3.13-6.44,4.68s-4.31,3-6.32,4.64-4,3.52-5.92,5.35c-.93.88-1.85,1.77-2.75,2.69a24.47,24.47,0,0,0-2.63,2.85c-.07.1.07.21.16.15a30.16,30.16,0,0,0,2.93-2.38l3-2.59c2-1.67,4-3.29,5.93-5s3.74-3.48,5.67-5.16,4.24-3.48,6.38-5.19A0,0,0,0,0,170.34,292.9Z" style="fill: rgb(38, 50, 56); transform-origin: 158.306px 303.089px;" id="el2ev0gly1ili" class="animable"></path><path d="M377.29,379.69c-2.18,2.35-4.19,4.88-6.22,7.36s-4.07,5-6.08,7.5c-4,5-8.08,10-12,15.11-2.17,2.79-4.32,5.6-6.34,8.51-.09.13.12.27.22.16,4.33-4.76,8.29-9.84,12.3-14.86s8-10.07,12-15.16c2.16-2.79,4.38-5.56,6.37-8.47C377.57,379.72,377.38,379.59,377.29,379.69Z" style="fill: rgb(38, 50, 56); transform-origin: 362.086px 399.012px;" id="el6bacxy2ego5" class="animable"></path><path d="M284.39,380.15c-5.63-4.44-11.47-8.63-17.31-12.79s-11.62-8.29-17.51-12.31c-1.7-1.16-3.41-2.29-5.11-3.42s-3.48-2.18-5.14-3.35c-.1-.07-.19.09-.09.16,1.53,1.1,3,2.33,4.48,3.47s2.86,2.19,4.31,3.26c2.83,2.09,5.69,4.15,8.54,6.21q8.67,6.27,17.49,12.35c3.35,2.29,6.67,4.59,10.09,6.77C284.34,380.63,284.58,380.3,284.39,380.15Z" style="fill: rgb(38, 50, 56); transform-origin: 261.823px 364.396px;" id="el058o3w54xj55" class="animable"></path><path d="M320.59,333.45c-5.2-4.31-10.78-8.19-16.24-12.18s-11-8.1-16.54-12.11l-16.49-11.91c-5.33-3.86-10.63-7.77-16.26-11.18-3.08-1.86-6.23-3.59-9.48-5.15a63.2,63.2,0,0,0-9.8-4,.09.09,0,0,0-.07.17c2.78,1.55,5.69,2.86,8.49,4.35s5.51,3,8.2,4.66c5.59,3.39,10.86,7.24,16.16,11.05,11,7.91,22,15.86,33.07,23.66,6.2,4.37,12.27,9,18.71,13C320.54,333.92,320.78,333.61,320.59,333.45Z" style="fill: rgb(38, 50, 56); transform-origin: 278.156px 305.373px;" id="elv5soclas48p" class="animable"></path></g><g id="freepik--Plant--inject-83" class="animable" style="transform-origin: 414.817px 307.729px;"><path d="M445.08,278.89c-12.22,16.55-25,35.76-28.07,56.51,0,.32.47.42.54.11A123.58,123.58,0,0,1,423,318.89c8-2.21,15.92-4,20.14-12,4.3-8.2,3.75-18.89,2.94-27.82C446,278.59,445.33,278.57,445.08,278.89Z" style="fill: rgb(255, 165, 0); transform-origin: 431.825px 307.187px;" id="elrihdfvfs7r" class="animable"></path><path d="M423.08,318.73c5.49-12.32,12.54-24.69,21.5-34.82.06-.07.15,0,.09.1-5.86,7.21-10.32,15.07-14.67,23.07,4.05-4.11,8.48-7.79,12.31-12.15.08-.08.2,0,.13.13-3.81,4.56-8,9.53-12.93,12.91q-2,3.67-4,7.37l1-.52c.06,0,.11.06.05.09-.37.19-.75.39-1.14.56-.64,1.16-1.28,2.33-1.94,3.49C423.32,319.22,423,319,423.08,318.73Z" style="fill: rgb(38, 50, 56); transform-origin: 433.879px 301.479px;" id="elhb5c5howegg" class="animable"></path><path d="M427.16,314.43a70.22,70.22,0,0,0,9.38-6.26c.08-.06.2.05.12.12a50.07,50.07,0,0,1-9.36,6.38C427.14,314.74,427,314.52,427.16,314.43Z" style="fill: rgb(38, 50, 56); transform-origin: 431.888px 311.418px;" id="elli577pm8tv" class="animable"></path><path d="M415.6,332.32c0,.25.45.24.45,0,.06-6.84,0-13.71.1-20.57,1.76-3.54,5.51-5.49,8.13-8.32a36.85,36.85,0,0,0,4.87-6.79,48.58,48.58,0,0,0,5.66-18.86c.72-7.31-2.05-31.44-5.14-30.6-1.59.44-6.77,12.39-8.14,16.34a113,113,0,0,0-4.86,20C414.17,299.61,414.38,316.13,415.6,332.32Z" style="fill: rgb(255, 165, 0); transform-origin: 424.823px 289.831px;" id="eloqzu1w9jlcl" class="animable"></path><path d="M415.55,302.83l0,0c.38-8.65,2.32-17.38,4.15-25.77,2-9,4.26-17.54,8.91-25.6a.13.13,0,0,1,.23.13,95.46,95.46,0,0,0-7.16,19.65c.31-.48.69-.94,1-1.4.12-.19.42,0,.3.17a12.47,12.47,0,0,1-1.46,2s0,0-.06,0c-1.6,6.46-2.75,13.07-3.73,19.66a2.75,2.75,0,0,1,.22-.26c.05,0,.13,0,.1.08-.12.22-.26.44-.39.65-.5,3.35-1,6.69-1.42,10,6-5.09,11-11.09,13.91-18.49,0,0,.07,0,.06,0-2.81,7.67-7.24,14.48-14.06,19.14-.13.89-.25,1.78-.38,2.67,0,.18-.32.13-.32,0,0-.79,0-1.58.07-2.37A.19.19,0,0,1,415.55,302.83Z" style="fill: rgb(38, 50, 56); transform-origin: 422.83px 278.485px;" id="elel2v6q46fc9" class="animable"></path><path d="M418.36,290.3c4.55-6.79,8.8-13.39,12.13-20.9a.08.08,0,0,1,.15.06c-2.81,7.46-6.74,15-12.06,21C418.48,290.6,418.26,290.44,418.36,290.3Z" style="fill: rgb(38, 50, 56); transform-origin: 424.49px 279.932px;" id="ele4oea7054dg" class="animable"></path><path d="M424.41,267.72c1.88-3.34,3.87-6.58,5.64-10,.05-.1.18,0,.14.08a52,52,0,0,1-5.49,10.07C424.57,268.06,424.3,267.91,424.41,267.72Z" style="fill: rgb(38, 50, 56); transform-origin: 427.291px 262.818px;" id="eld7xir6vd4o" class="animable"></path><path d="M423.67,269.17a0,0,0,1,1,0,.06A0,0,0,1,1,423.67,269.17Z" style="fill: rgb(38, 50, 56); transform-origin: 423.67px 269.2px;" id="elsixrhpyl4j" class="animable"></path><path d="M411,312.55A69.22,69.22,0,0,1,409.38,326l.21,1.47a64.85,64.85,0,0,0,2.41-15,.47.47,0,0,0,0-.46v0a99.92,99.92,0,0,0-1.51-20.34c-2.12-12.56-6.74-24.62-15.51-34a.62.62,0,0,0-1,.2c-3.54,9-2.3,19.71.71,28.68a52.42,52.42,0,0,0,6.94,13.62C404.7,304.36,408.53,307.93,411,312.55Z" style="fill: rgb(255, 165, 0); transform-origin: 401.943px 292.483px;" id="el5le34amrjf7" class="animable"></path><path d="M396,261.83c8.3,13.48,14.08,29.46,14.79,45.38,0,.28-.46.35-.5.06-.2-1.43-.42-2.84-.65-4.26h0c-3.44-3.29-7-6.76-9.42-10.87-.05-.08.06-.16.11-.1a112.24,112.24,0,0,0,9.16,10c-.6-3.51-1.3-7-2.14-10.39l-.65-.77c-.15-.17.09-.42.24-.25l.2.22A119,119,0,0,0,402.83,277c-2.11-2.52-4.48-4.7-6-7.74,0-.07.07-.13.11-.06,1.24,1.73,2.44,3.48,3.84,5.09.56.65,1.18,1.25,1.76,1.87a106.14,106.14,0,0,0-6.8-14.17A.19.19,0,0,1,396,261.83Z" style="fill: rgb(38, 50, 56); transform-origin: 403.265px 284.636px;" id="elprpc4dkhbfk" class="animable"></path><path d="M397.72,278.46c2.68,3.61,5.74,7.06,8.24,10.79.07.11-.09.22-.18.13-3.2-3-5.92-7.11-8.24-10.82C397.47,278.45,397.64,278.35,397.72,278.46Z" style="fill: rgb(38, 50, 56); transform-origin: 401.75px 283.913px;" id="el8tds9hslpds" class="animable"></path><path d="M406.33,290.09l.12.11c.08.08-.05.2-.13.12l-.11-.11A.08.08,0,0,1,406.33,290.09Z" style="fill: rgb(38, 50, 56); transform-origin: 406.33px 290.206px;" id="elw494ewlnje" class="animable"></path><path d="M383,287.74a41.5,41.5,0,0,0,8.76,20.56,21.83,21.83,0,0,0,7.11,5.54c3.08,1.52,6.3,3.28,9.48,4.53a62.22,62.22,0,0,1,3.36,11.92c.1-.34.2-.71.31-1.05-2.05-17.56-13.41-32.56-27.93-42.19A.71.71,0,0,0,383,287.74Z" style="fill: rgb(255, 165, 0); transform-origin: 397.507px 308.613px;" id="el93tw4alt9y" class="animable"></path><path d="M388.05,292.93c-.1-.09,0-.28.15-.2a59.4,59.4,0,0,1,18.51,22.82c.11.24-.22.45-.36.21-.67-1.18-1.36-2.33-2.06-3.46h0c-3.32-.63-6.46-3-8.92-5.18-.07-.06,0-.15.1-.09a20.39,20.39,0,0,0,4.19,2.94c1.36.69,2.81,1.12,4.22,1.67-1.23-1.95-2.51-3.82-3.85-5.63a38.7,38.7,0,0,1-10-5.61.09.09,0,0,1,.1-.16,98.16,98.16,0,0,0,9.26,4.95,83.83,83.83,0,0,0-6.54-7.62c-1.13-.6-2.27-1.19-3.36-1.83a.09.09,0,0,1,.07-.17,12.11,12.11,0,0,1,2.58,1.27C390.85,295.51,389.5,294.2,388.05,292.93Z" style="fill: rgb(38, 50, 56); transform-origin: 397.371px 304.288px;" id="elvge2jl091xq" class="animable"></path><path d="M388.36,299a3.58,3.58,0,0,1,.56.4c.05,0,0,.11-.07.09a5.45,5.45,0,0,1-.58-.33C388.17,299.08,388.26,298.92,388.36,299Z" style="fill: rgb(38, 50, 56); transform-origin: 388.583px 299.235px;" id="eln19v7y867g9" class="animable"></path><polygon points="434.72 368.3 394.91 368.3 398.12 332.05 398.83 324.05 430.8 324.05 431.51 332.05 434.72 368.3" style="fill: rgb(69, 90, 100); transform-origin: 414.815px 346.175px;" id="el38pj2x0mny3" class="animable"></polygon><polygon points="431.51 332.05 398.12 332.05 398.83 324.05 430.8 324.05 431.51 332.05" style="fill: rgb(38, 50, 56); transform-origin: 414.815px 328.05px;" id="eld7w0lralvn5" class="animable"></polygon><rect x="396.92" y="318.46" width="35.78" height="7.91" style="fill: rgb(69, 90, 100); transform-origin: 414.81px 322.415px;" id="elzd7h0twyujn" class="animable"></rect></g><defs>     <filter id="active" height="200%">         <feMorphology in="SourceAlpha" result="DILATED" operator="dilate" radius="2"></feMorphology>                <feFlood flood-color="#32DFEC" flood-opacity="1" result="PINK"></feFlood>        <feComposite in="PINK" in2="DILATED" operator="in" result="OUTLINE"></feComposite>        <feMerge>            <feMergeNode in="OUTLINE"></feMergeNode>            <feMergeNode in="SourceGraphic"></feMergeNode>        </feMerge>    </filter>    <filter id="hover" height="200%">        <feMorphology in="SourceAlpha" result="DILATED" operator="dilate" radius="2"></feMorphology>                <feFlood flood-color="#ff0000" flood-opacity="0.5" result="PINK"></feFlood>        <feComposite in="PINK" in2="DILATED" operator="in" result="OUTLINE"></feComposite>        <feMerge>            <feMergeNode in="OUTLINE"></feMergeNode>            <feMergeNode in="SourceGraphic"></feMergeNode>        </feMerge>            <feColorMatrix type="matrix" values="0   0   0   0   0                0   1   0   0   0                0   0   0   0   0                0   0   0   1   0 "></feColorMatrix>    </filter></defs></svg>