<svg class="animated" id="freepik_stories-enthusiastic" xmlns="http://www.w3.org/2000/svg" viewBox="0 0 500 500" version="1.1" xmlns:xlink="http://www.w3.org/1999/xlink" xmlns:svgjs="http://svgjs.com/svgjs"><style>svg#freepik_stories-enthusiastic:not(.animated) .animable {opacity: 0;}svg#freepik_stories-enthusiastic.animated #freepik--Plant--inject-409 {animation: 1.5s Infinite  linear wind;animation-delay: 0s;}svg#freepik_stories-enthusiastic.animated #freepik--Lamp--inject-409 {animation: 6s Infinite  linear heartbeat;animation-delay: 0s;}svg#freepik_stories-enthusiastic.animated #freepik--Character--inject-409 {animation: 6s Infinite  linear shake;animation-delay: 0s;}            @keyframes wind {                0% {                    transform: rotate( 0deg );                }                25% {                    transform: rotate( 1deg );                }                75% {                    transform: rotate( -1deg );                }            }                    @keyframes heartbeat {                0% {                    transform: scale(1);                }                10% {                    transform: scale(1.1);                }                30% {                    transform: scale(1);                }                40% {                    transform: scale(1);                }                50% {                    transform: scale(1.1);                }                60% {                    transform: scale(1);                }                100% {                    transform: scale(1);                }            }                    @keyframes shake {                10%, 90% {                    transform: translate3d(-1px, 0, 0);                  }                  20%, 80% {                    transform: translate3d(2px, 0, 0);                  }                  30%, 50%, 70% {                    transform: translate3d(-4px, 0, 0);                  }                  40%, 60% {                    transform: translate3d(4px, 0, 0);                  }            }        </style><g id="freepik--background-complete--inject-409" class="animable" style="transform-origin: 250px 227.39px;"><rect y="382.4" width="500" height="0.25" style="fill: rgb(235, 235, 235); transform-origin: 250px 382.525px;" id="elkf96h5my2n" class="animable"></rect><rect x="52.46" y="391.92" width="33.12" height="0.25" style="fill: rgb(235, 235, 235); transform-origin: 69.02px 392.045px;" id="el2ek1594zjez" class="animable"></rect><rect x="171.14" y="389.21" width="42.53" height="0.25" style="fill: rgb(235, 235, 235); transform-origin: 192.405px 389.335px;" id="el000zc8ltih0u3" class="animable"></rect><rect x="93.47" y="395.43" width="19.19" height="0.25" style="fill: rgb(235, 235, 235); transform-origin: 103.065px 395.555px;" id="elweytdrlprz8" class="animable"></rect><rect x="434.67" y="399.53" width="15.23" height="0.25" style="fill: rgb(235, 235, 235); transform-origin: 442.285px 399.655px;" id="elyxp8uazrkxn" class="animable"></rect><rect x="391.47" y="399.53" width="34.29" height="0.25" style="fill: rgb(235, 235, 235); transform-origin: 408.615px 399.655px;" id="elxszrwf9y3g" class="animable"></rect><rect x="308" y="392.33" width="23.83" height="0.25" style="fill: rgb(235, 235, 235); transform-origin: 319.915px 392.455px;" id="elofh8hl5lsc" class="animable"></rect><path d="M237,337.8H43.91a5.71,5.71,0,0,1-5.7-5.71V60.66A5.71,5.71,0,0,1,43.91,55H237a5.71,5.71,0,0,1,5.71,5.71V332.09A5.71,5.71,0,0,1,237,337.8ZM43.91,55.2a5.46,5.46,0,0,0-5.45,5.46V332.09a5.46,5.46,0,0,0,5.45,5.46H237a5.47,5.47,0,0,0,5.46-5.46V60.66A5.47,5.47,0,0,0,237,55.2Z" style="fill: rgb(235, 235, 235); transform-origin: 140.46px 196.4px;" id="eloud43ppzi8i" class="animable"></path><path d="M453.31,337.8H260.21a5.72,5.72,0,0,1-5.71-5.71V60.66A5.72,5.72,0,0,1,260.21,55h193.1A5.71,5.71,0,0,1,459,60.66V332.09A5.71,5.71,0,0,1,453.31,337.8ZM260.21,55.2a5.47,5.47,0,0,0-5.46,5.46V332.09a5.47,5.47,0,0,0,5.46,5.46h193.1a5.47,5.47,0,0,0,5.46-5.46V60.66a5.47,5.47,0,0,0-5.46-5.46Z" style="fill: rgb(235, 235, 235); transform-origin: 356.75px 196.4px;" id="elyd349lxj1ar" class="animable"></path><g id="elf5jrhbsilth"><rect x="412.72" y="228.85" width="24.06" height="148.42" style="fill: rgb(240, 240, 240); transform-origin: 424.75px 303.06px; transform: rotate(180deg);" class="animable"></rect></g><g id="el6rxe3cme016"><rect x="287.92" y="377.26" width="146.4" height="5.12" style="fill: rgb(240, 240, 240); transform-origin: 361.12px 379.82px; transform: rotate(180deg);" class="animable"></rect></g><rect x="285.81" y="228.85" width="126.92" height="148.42" style="fill: rgb(245, 245, 245); transform-origin: 349.27px 303.06px;" id="elmj71y0ke0n" class="animable"></rect><rect x="290.14" y="306.13" width="118.26" height="26.5" style="fill: rgb(240, 240, 240); transform-origin: 349.27px 319.38px;" id="elh7xyz06thd4" class="animable"></rect><rect x="290.14" y="340.82" width="118.26" height="26.5" style="fill: rgb(240, 240, 240); transform-origin: 349.27px 354.07px;" id="elopduxj2w1h" class="animable"></rect><g id="el458dp04tdef"><rect x="300.67" y="304.5" width="97.18" height="3.63" rx="1.18" style="fill: rgb(245, 245, 245); transform-origin: 349.26px 306.315px; transform: rotate(180deg);" class="animable"></rect></g><g id="elozzwjy2nuvh"><rect x="300.67" y="339.19" width="97.18" height="3.63" rx="1.18" style="fill: rgb(245, 245, 245); transform-origin: 349.26px 341.005px; transform: rotate(-180deg);" class="animable"></rect></g><rect x="290.14" y="237.03" width="118.26" height="26.5" style="fill: rgb(240, 240, 240); transform-origin: 349.27px 250.28px;" id="elfa1fyj9729h" class="animable"></rect><rect x="290.14" y="271.44" width="118.26" height="26.5" style="fill: rgb(240, 240, 240); transform-origin: 349.27px 284.69px;" id="el4sev7xrqqdp" class="animable"></rect><g id="el814pbnwml4o"><rect x="300.67" y="235.41" width="97.18" height="3.63" rx="1.18" style="fill: rgb(245, 245, 245); transform-origin: 349.26px 237.225px; transform: rotate(180deg);" class="animable"></rect></g><g id="elo6rpz04lyeg"><rect x="300.67" y="269.82" width="97.18" height="3.63" rx="1.18" style="fill: rgb(245, 245, 245); transform-origin: 349.26px 271.635px; transform: rotate(180deg);" class="animable"></rect></g><rect x="212.09" y="271.53" width="14.4" height="110.87" style="fill: rgb(240, 240, 240); transform-origin: 219.29px 326.965px;" id="elqnw94zweg6a" class="animable"></rect><g id="eluu3bm11jky"><rect x="68.04" y="271.53" width="144.05" height="110.87" style="fill: rgb(245, 245, 245); transform-origin: 140.065px 326.965px; transform: rotate(180deg);" class="animable"></rect></g><g id="elokfk5mjawzp"><rect x="66.89" y="313.37" width="128.66" height="59.3" style="fill: rgb(250, 250, 250); transform-origin: 131.22px 343.02px; transform: rotate(180deg);" class="animable"></rect></g><g id="el6tnxqzk2mb"><rect x="66.89" y="287.55" width="128.66" height="19.52" style="fill: rgb(250, 250, 250); transform-origin: 131.22px 297.31px; transform: rotate(180deg);" class="animable"></rect></g><g id="eljpvsvckad8"><rect x="195.56" y="313.37" width="0.99" height="59.3" style="fill: rgb(230, 230, 230); opacity: 0.7; mix-blend-mode: multiply; transform-origin: 196.055px 343.02px;" class="animable"></rect></g><g id="elogvo7za10fb"><rect x="195.56" y="287.55" width="0.99" height="19.52" style="fill: rgb(230, 230, 230); opacity: 0.7; mix-blend-mode: multiply; transform-origin: 196.055px 297.31px;" class="animable"></rect></g><g id="elzycpys6df3"><rect x="67.72" y="276.21" width="158.77" height="2.51" style="fill: rgb(230, 230, 230); opacity: 0.7; mix-blend-mode: multiply; transform-origin: 147.105px 277.465px;" class="animable"></rect></g><rect x="212.09" y="270.01" width="16.09" height="7.25" style="fill: rgb(240, 240, 240); transform-origin: 220.135px 273.635px;" id="elkidbg2vvlak" class="animable"></rect><g id="elhan159ksoki"><rect x="66.36" y="270.01" width="145.73" height="7.25" style="fill: rgb(245, 245, 245); transform-origin: 139.225px 273.635px; transform: rotate(180deg);" class="animable"></rect></g><g id="elsv0ullpb6m"><rect x="82.91" y="80.06" width="227.05" height="118.26" style="fill: rgb(230, 230, 230); transform-origin: 196.435px 139.19px; transform: rotate(180deg);" class="animable"></rect></g><path d="M68.48,75.46h250.2A1.34,1.34,0,0,1,320,76.8h0a1.34,1.34,0,0,1-1.34,1.33H68.48a1.34,1.34,0,0,1-1.34-1.33h0A1.34,1.34,0,0,1,68.48,75.46Z" style="fill: rgb(230, 230, 230); transform-origin: 193.57px 76.795px;" id="elyw0bt1az6w" class="animable"></path><g id="elq6cg5yac3om"><rect x="77.2" y="80.06" width="230.09" height="118.26" style="fill: rgb(240, 240, 240); transform-origin: 192.245px 139.19px; transform: rotate(180deg);" class="animable"></rect></g><polygon points="82.91 198.32 309.96 198.32 309.96 202.11 78.97 202.11 82.91 198.32" style="fill: rgb(230, 230, 230); transform-origin: 194.465px 200.215px;" id="el7o5n5nwtxon" class="animable"></polygon><polygon points="67.67 198.32 297.77 198.32 293.83 202.11 63.74 202.11 67.67 198.32" style="fill: rgb(240, 240, 240); transform-origin: 180.755px 200.215px;" id="elpwr2gygnbml" class="animable"></polygon><g id="eloh6g2irpugo"><rect x="141.12" y="32.14" width="102.26" height="214.09" style="fill: rgb(250, 250, 250); transform-origin: 192.25px 139.185px; transform: rotate(90deg);" class="animable"></rect></g><polygon points="179.31 190.32 132.34 88.06 110.17 88.06 157.14 190.32 179.31 190.32" style="fill: rgb(255, 255, 255); transform-origin: 144.74px 139.19px;" id="elvfrtav3mx5k" class="animable"></polygon><polygon points="152.38 190.32 105.41 88.06 96.76 88.06 143.73 190.32 152.38 190.32" style="fill: rgb(255, 255, 255); transform-origin: 124.57px 139.19px;" id="el3ly2fe6a6i" class="animable"></polygon><g id="elgdcfloelqgl"><rect x="34.58" y="138.68" width="102.26" height="1.02" style="fill: rgb(230, 230, 230); transform-origin: 85.71px 139.19px; transform: rotate(90deg);" class="animable"></rect></g><g id="elx66vorgje1"><g style="opacity: 0.4; transform-origin: 292.31px 121.865px;" class="animable"><g id="elut01wukpcy"><rect x="299.2" y="73.07" width="13.77" height="97.59" style="fill: rgb(240, 240, 240); transform-origin: 306.085px 121.865px; transform: rotate(180deg);" class="animable"></rect></g><g id="elrdzjfnealw"><rect x="293.83" y="73.07" width="10.73" height="97.59" style="fill: rgb(230, 230, 230); transform-origin: 299.195px 121.865px; transform: rotate(180deg);" class="animable"></rect></g><g id="ely6b85y3v10e"><rect x="285.42" y="73.07" width="13.77" height="97.59" style="fill: rgb(240, 240, 240); transform-origin: 292.305px 121.865px; transform: rotate(180deg);" class="animable"></rect></g><g id="el1pqghkly7kh"><rect x="280.06" y="73.07" width="10.73" height="97.59" style="fill: rgb(230, 230, 230); transform-origin: 285.425px 121.865px; transform: rotate(180deg);" class="animable"></rect></g><g id="eloo1d4se1md"><rect x="271.65" y="73.07" width="13.77" height="97.59" style="fill: rgb(240, 240, 240); transform-origin: 278.535px 121.865px; transform: rotate(180deg);" class="animable"></rect></g></g></g><g id="elsveher6ixvj"><g style="opacity: 0.4; transform-origin: 86.36px 121.865px;" class="animable"><g id="elbtpj435cs0i"><rect x="90.33" y="73.07" width="7.94" height="97.59" style="fill: rgb(240, 240, 240); transform-origin: 94.3px 121.865px; transform: rotate(180deg);" class="animable"></rect></g><g id="ellt20c8wlp6r"><rect x="87.23" y="73.07" width="6.18" height="97.59" style="fill: rgb(230, 230, 230); transform-origin: 90.32px 121.865px; transform: rotate(180deg);" class="animable"></rect></g><g id="el6gzdqegt4m9"><rect x="82.39" y="73.07" width="7.94" height="97.59" style="fill: rgb(240, 240, 240); transform-origin: 86.36px 121.865px; transform: rotate(180deg);" class="animable"></rect></g><g id="ely0i3qsweys"><rect x="79.3" y="73.07" width="6.18" height="97.59" style="fill: rgb(230, 230, 230); transform-origin: 82.39px 121.865px; transform: rotate(180deg);" class="animable"></rect></g><g id="elhtny2dvjivm"><rect x="74.45" y="73.07" width="7.94" height="97.59" style="fill: rgb(240, 240, 240); transform-origin: 78.42px 121.865px; transform: rotate(180deg);" class="animable"></rect></g></g></g><g id="elagcegtppypp"><rect x="355.02" y="85.32" width="75.28" height="100.68" style="fill: rgb(230, 230, 230); transform-origin: 392.66px 135.66px; transform: rotate(180deg);" class="animable"></rect></g><g id="elkja9yqjyr2"><rect x="349.26" y="85.32" width="79.12" height="100.68" style="fill: rgb(245, 245, 245); transform-origin: 388.82px 135.66px; transform: rotate(180deg);" class="animable"></rect></g><rect x="355.89" y="91.94" width="65.86" height="87.43" style="fill: rgb(255, 255, 255); transform-origin: 388.82px 135.655px;" id="elvrbgv6jzub" class="animable"></rect><path d="M370.41,133.29s.47,13.62,18.41,13.62,18.42-13.62,18.42-13.62Z" style="fill: rgb(240, 240, 240); transform-origin: 388.825px 140.1px;" id="el1k9ojlcgo5b" class="animable"></path><path d="M405.31,122.22a4.79,4.79,0,0,1-.66,2.46,4.88,4.88,0,0,0-8.47,0,4.8,4.8,0,0,1-.67-2.46,4.9,4.9,0,1,1,9.8,0Z" style="fill: rgb(240, 240, 240); transform-origin: 400.41px 121px;" id="elsni53jnhz3" class="animable"></path><path d="M382.14,122.22a4.79,4.79,0,0,1-.66,2.46,4.88,4.88,0,0,0-8.48,0,4.9,4.9,0,1,1,9.14-2.46Z" style="fill: rgb(240, 240, 240); transform-origin: 377.24px 121.002px;" id="els1bn9hjqcpr" class="animable"></path><path d="M339.19,203.07a13,13,0,0,0-.19-4.64,19.37,19.37,0,0,0-1.41-4.24,17.41,17.41,0,0,0-1-2,20.57,20.57,0,0,0-1.15-1.91c-.43-.61-.81-1.26-1.26-1.86l-1.39-1.78a20.19,20.19,0,0,0-1.47-1.74c-.5-.58-1-1.17-1.51-1.73-1.09-1.09-2.1-2.26-3.22-3.36s-2.19-2.24-3.33-3.35-2.29-2.23-3.36-3.49a48.23,48.23,0,0,1,4.46,2,44.72,44.72,0,0,1,4.15,2.58,19.73,19.73,0,0,1,2,1.49c.64.52,1.26,1.06,1.88,1.59a38.94,38.94,0,0,1,3.39,3.64,23.58,23.58,0,0,1,4.65,8.95,15.42,15.42,0,0,1,.44,5.1A9.18,9.18,0,0,1,339.19,203.07Z" style="fill: rgb(230, 230, 230); transform-origin: 330.41px 188.02px;" id="elfl0oj872fd5" class="animable"></path><path d="M365.66,198.33a9.54,9.54,0,0,1-2.93-8.75,15.33,15.33,0,0,1,4.8-8.34c.58-.55,1.21-1,1.82-1.49a13.61,13.61,0,0,1,1.9-1.34c.66-.39,1.32-.78,2-1.15.34-.18.66-.38,1-.54l1.05-.44c.7-.29,1.4-.57,2.11-.83l1.06-.39c.35-.12.72-.21,1.09-.3a41.7,41.7,0,0,1,4.42-.9c-1.19,1-2.43,1.77-3.65,2.58-.63.37-1.22.8-1.81,1.22s-1.19.82-1.79,1.21c-1.23.74-2.28,1.68-3.44,2.47a14.6,14.6,0,0,0-1.61,1.31c-.52.45-1.08.85-1.56,1.33a17.58,17.58,0,0,0-4.52,6.3,5.16,5.16,0,0,0-.29.92c-.07.31-.17.62-.24.94a10.8,10.8,0,0,0-.15,2A12.76,12.76,0,0,0,365.66,198.33Z" style="fill: rgb(230, 230, 230); transform-origin: 373.276px 186.095px;" id="el7dpzxqet5fx" class="animable"></path><path d="M364.45,198.33a13.78,13.78,0,0,1-2.33-4.34,19.72,19.72,0,0,1-.59-2.44c-.07-.41-.13-.83-.19-1.25s0-.84,0-1.27a19.33,19.33,0,0,1,2.53-9.82l1.36-2.15c.52-.67,1.08-1.3,1.63-1.93l.83-.94.94-.82c.63-.55,1.27-1.08,1.9-1.6a44.26,44.26,0,0,1,4.18-2.57,45.63,45.63,0,0,1,4.53-1.77c-1.13,1.2-2.31,2.24-3.48,3.28s-2.2,2.2-3.26,3.28c-.49.58-1,1.15-1.49,1.7l-.76.83-.65.9c-.43.6-.9,1.17-1.32,1.77l-1.13,1.87a24.32,24.32,0,0,0-2.86,8.14A25.85,25.85,0,0,0,364.45,198.33Z" style="fill: rgb(230, 230, 230); transform-origin: 370.277px 182.88px;" id="elwo3i9w7at0g" class="animable"></path><path d="M340.63,200c.94-3.5,2-6.88,2.95-10.25s1.94-6.71,2.83-10.06,1.62-6.73,2.27-10.13,1-6.85,1.3-10.48a30.59,30.59,0,0,1,1.65,10.76,50.18,50.18,0,0,1-1.57,10.79,59.56,59.56,0,0,1-3.72,10.18A44.62,44.62,0,0,1,340.63,200Z" style="fill: rgb(230, 230, 230); transform-origin: 346.135px 179.54px;" id="el6ycp4sjg9ko" class="animable"></path><path d="M341.81,199.44c1.47-3.46,3.06-6.76,4.62-10.06s3.14-6.56,4.65-9.84,2.95-6.58,4.3-9.93,2.51-6.75,3.64-10.34a34.2,34.2,0,0,1-.81,11.22,58.2,58.2,0,0,1-3.71,10.63,69,69,0,0,1-5.51,9.73A51.22,51.22,0,0,1,341.81,199.44Z" style="fill: rgb(230, 230, 230); transform-origin: 350.489px 179.355px;" id="elbuygltgdto" class="animable"></path><path d="M337.2,203.75c2.21-3,4.49-5.9,6.75-8.77s4.53-5.69,6.73-8.55,4.35-5.76,6.41-8.72,4-6,5.86-9.27a34.35,34.35,0,0,1-3.3,10.76,58.67,58.67,0,0,1-6,9.53,69.5,69.5,0,0,1-7.55,8.25A50.87,50.87,0,0,1,337.2,203.75Z" style="fill: rgb(230, 230, 230); transform-origin: 350.075px 186.095px;" id="elofc2wmtbqd" class="animable"></path><path d="M344.13,198.81c2.16-2.71,4.33-5.27,6.46-7.86s4.19-5.16,6.2-7.78,3.89-5.31,5.72-8.07,3.42-5.65,5.15-8.68a30.21,30.21,0,0,1-2.53,10.08,44.88,44.88,0,0,1-5.34,8.95A52.38,52.38,0,0,1,352.7,193,38.7,38.7,0,0,1,344.13,198.81Z" style="fill: rgb(230, 230, 230); transform-origin: 355.895px 182.615px;" id="eljjtah2h41ek" class="animable"></path><path d="M338.6,202a16.47,16.47,0,0,0,1.72-8,19.9,19.9,0,0,0-2-7.53l-.38-.92-.49-.89-1-1.79c-.75-1.14-1.44-2.34-2.22-3.51s-1.58-2.33-2.41-3.5-1.7-2.33-2.47-3.64a36.18,36.18,0,0,1,3.79,2.35,37.09,37.09,0,0,1,3.38,2.91,17.22,17.22,0,0,1,1.51,1.68c.48.58,1,1.17,1.42,1.77l1.22,1.95c.19.33.39.66.58,1l.47,1.06a18.66,18.66,0,0,1,.84,2.19c.2.76.41,1.52.57,2.29s.17,1.59.22,2.38-.08,1.61-.16,2.39A11.34,11.34,0,0,1,338.6,202Z" style="fill: rgb(230, 230, 230); transform-origin: 336.356px 187.11px;" id="el4834ycyp6f8" class="animable"></path><path d="M340.7,198.35a41.6,41.6,0,0,0,1.9-8.64,22.1,22.1,0,0,0-.6-8.18,18.12,18.12,0,0,0-1.46-3.78c-.28-.63-.68-1.2-1-1.81s-.75-1.19-1.19-1.74a61.9,61.9,0,0,0-5.92-6.64,20.34,20.34,0,0,1,8.13,4.66,18,18,0,0,1,3.1,3.77,19,19,0,0,1,1.16,2.19,19.41,19.41,0,0,1,.83,2.36,17.93,17.93,0,0,1-.14,9.75A18.24,18.24,0,0,1,340.7,198.35Z" style="fill: rgb(230, 230, 230); transform-origin: 339.344px 182.955px;" id="elyakmhntly3" class="animable"></path><polygon points="346.24 195.67 363.96 178.66 363.25 195.34 346.24 195.67" style="fill: rgb(230, 230, 230); transform-origin: 355.1px 187.165px;" id="eltsu9umh9ct" class="animable"></polygon><polygon points="326.86 193.86 373.95 193.86 367.79 228.85 333.03 228.85 326.86 193.86" style="fill: rgb(245, 245, 245); transform-origin: 350.405px 211.355px;" id="elrhggama595" class="animable"></polygon><polygon points="356.28 193.86 373.95 193.86 367.79 228.85 358.5 228.85 356.28 193.86" style="fill: rgb(235, 235, 235); transform-origin: 365.115px 211.355px;" id="elpc9m0jpfivl" class="animable"></polygon></g><g id="freepik--Shadow--inject-409" class="animable" style="transform-origin: 250px 416.24px;"><ellipse id="freepik--path--inject-409" cx="250" cy="416.24" rx="193.89" ry="11.32" style="fill: rgb(245, 245, 245); transform-origin: 250px 416.24px;" class="animable"></ellipse></g><g id="freepik--Plant--inject-409" class="animable" style="transform-origin: 364.374px 320.675px;"><g id="eljeynaha5ndp"><rect x="389.39" y="394.77" width="5.42" height="1" style="fill: rgb(255, 165, 0); transform-origin: 392.1px 395.27px; transform: rotate(-82.08deg);" class="animable"></rect></g><g id="el7aoks4u4hbd"><rect x="383.84" y="374.28" width="22.2" height="1" style="fill: rgb(255, 165, 0); transform-origin: 394.94px 374.78px; transform: rotate(-82.08deg);" class="animable"></rect></g><path d="M395,352.86h-60.2l6.2,44.68a20.56,20.56,0,0,0,20.37,17.74h7.06a20.56,20.56,0,0,0,20.37-17.74Z" style="fill: rgb(255, 165, 0); transform-origin: 364.9px 384.07px;" id="el3ht9twdv3mj" class="animable"></path><ellipse cx="364.85" cy="352.86" rx="30.1" ry="3.46" style="fill: rgb(38, 50, 56); transform-origin: 364.85px 352.86px;" id="elfy6hrl5in7l" class="animable"></ellipse><path d="M374.39,334.12c-17.84-3.77-11-39.47.84-66.08,12-26.92,19.54-32.47,28.56-31.63,9.23.87-1.29,31.16-5.81,49.86S395.09,338.5,374.39,334.12Z" style="fill: rgb(255, 165, 0); transform-origin: 385.482px 285.421px;" id="el6gjldbhdrv7" class="animable"></path><g id="el9h4h980abg"><path d="M374.39,334.12c-17.84-3.77-11-39.47.84-66.08,12-26.92,19.54-32.47,28.56-31.63,9.23.87-1.29,31.16-5.81,49.86S395.09,338.5,374.39,334.12Z" style="fill: rgb(255, 255, 255); opacity: 0.4; transform-origin: 385.482px 285.421px;" class="animable"></path></g><path d="M373,353.84h0a.43.43,0,0,1-.43-.43c.19-31.77,8-78.39,22-102.19a.44.44,0,0,1,.6-.16.44.44,0,0,1,.15.59c-13.95,23.68-21.68,70.1-21.86,101.76A.44.44,0,0,1,373,353.84Z" style="fill: rgb(38, 50, 56); transform-origin: 383.974px 302.421px;" id="elche1j143tw" class="animable"></path><path d="M372.73,302c-3.28,2.3-6.71,2.65-8.8,4.88-1.42,12.54.41,22.82,7.62,26.31C374.25,330.47,374.79,312.4,372.73,302Z" style="fill: rgb(38, 50, 56); transform-origin: 368.734px 317.595px;" id="eloa6758aq879" class="animable"></path><path d="M372.56,283.1c-.61,19.24,7.87,51.71-13.29,51.66-18.24,0-18.89-36.36-12.71-64.85,6.26-28.8,14.77-42.8,23.77-43.82,3.67-.41,4.86,5.48,4.93,13.94-5.94.49-7.5,1.89-7.5,1.89a68.94,68.94,0,0,1,7.47,1.76C375,256.19,372.89,272.57,372.56,283.1Z" style="fill: rgb(255, 165, 0); transform-origin: 359.151px 280.415px;" id="elqvgofe203gp" class="animable"></path><path d="M349.49,342.12c11.78-3.71,4.88-27.33-4.87-44.5-9.85-17.37-15.28-20.63-21.31-19.47s2.9,20.92,7.16,33.24S335.81,346.42,349.49,342.12Z" style="fill: rgb(255, 165, 0); transform-origin: 338.489px 310.297px;" id="elcr168kk9izs" class="animable"></path><g id="el5g4atq74h1b"><path d="M349.49,342.12c11.78-3.71,4.88-27.33-4.87-44.5-9.85-17.37-15.28-20.63-21.31-19.47s2.9,20.92,7.16,33.24S335.81,346.42,349.49,342.12Z" style="fill: rgb(255, 255, 255); opacity: 0.4; transform-origin: 338.489px 310.297px;" class="animable"></path></g><path d="M351.66,355.47a.44.44,0,0,1-.43-.39C349.05,333.76,340.83,303,329.9,288a.43.43,0,0,1,.1-.61.42.42,0,0,1,.6.1c11,15.16,19.3,46.11,21.49,67.54a.41.41,0,0,1-.38.47Z" style="fill: rgb(38, 50, 56); transform-origin: 340.955px 321.403px;" id="el558amiy1k3e" class="animable"></path><path d="M361.88,354.36a.43.43,0,0,1-.43-.35c-6.32-31.13-8.26-78.35.6-104.53a.44.44,0,0,1,.55-.27.43.43,0,0,1,.27.55c-8.81,26-6.87,73.05-.57,104.08a.43.43,0,0,1-.34.51Z" style="fill: rgb(38, 50, 56); transform-origin: 359.47px 301.774px;" id="elfr2xlwdvc5w" class="animable"></path><path d="M386.18,271.85a.47.47,0,0,1-.38-.21.45.45,0,0,1,.15-.6c4.4-2.62,10.74-2.84,11-2.85a.44.44,0,0,1,0,.87c-.06,0-6.38.22-10.58,2.73A.46.46,0,0,1,386.18,271.85Z" style="fill: rgb(38, 50, 56); transform-origin: 391.533px 270.02px;" id="el1twl7eex3vh" class="animable"></path><path d="M379.52,296.54a.44.44,0,0,1-.41-.3,39.79,39.79,0,0,1-2-9.13.43.43,0,0,1,.41-.45.42.42,0,0,1,.45.41,40.3,40.3,0,0,0,2,8.89.44.44,0,0,1-.27.55Z" style="fill: rgb(38, 50, 56); transform-origin: 378.55px 291.599px;" id="elobw22r5r2mq" class="animable"></path></g><g id="freepik--Lamp--inject-409" class="animable" style="transform-origin: 110.84px 281.4px;"><rect x="109.25" y="147.52" width="3.19" height="266.26" style="fill: rgb(255, 165, 0); transform-origin: 110.845px 280.65px;" id="elpvsgn63709o" class="animable"></rect><path d="M109.35,237.07h0a2.14,2.14,0,0,1-2.13-2.13h0a2.13,2.13,0,0,1,2.13-2.13h0a2.13,2.13,0,0,1,2.14,2.13h0A2.14,2.14,0,0,1,109.35,237.07Z" style="fill: rgb(255, 165, 0); transform-origin: 109.355px 234.94px;" id="elij387zcmwnl" class="animable"></path><path d="M123.11,415.28H98.56a3,3,0,0,1,3-3H120.1a3,3,0,0,1,3,3Z" style="fill: rgb(255, 165, 0); transform-origin: 110.835px 413.78px;" id="elze8yr8ada4" class="animable"></path><path d="M133.75,207.27H87.93a4,4,0,0,1-3.9-4.64l8.62-49.8a4,4,0,0,1,3.91-3.29h28.56a4,4,0,0,1,3.9,3.29l8.63,49.8A4,4,0,0,1,133.75,207.27Z" style="fill: rgb(255, 165, 0); transform-origin: 110.84px 178.405px;" id="elgdrohoszuo4" class="animable"></path><g id="ela2y9w6lotus"><path d="M133.75,207.27H87.93a4,4,0,0,1-3.9-4.64l8.62-49.8a4,4,0,0,1,3.91-3.29h28.56a4,4,0,0,1,3.9,3.29l8.63,49.8A4,4,0,0,1,133.75,207.27Z" style="fill: rgb(255, 255, 255); opacity: 0.6; transform-origin: 110.84px 178.405px;" class="animable"></path></g></g><g id="freepik--Character--inject-409" class="animable animator-active" style="transform-origin: 246.177px 220.152px;"><path d="M257.12,65.62l1.43-1.1a3.08,3.08,0,0,1,4.16.39l2.47,2.74a3.09,3.09,0,0,1,.45,3.46L265,72.43a5.78,5.78,0,0,1-4.42,3.09l-4,.51a7,7,0,0,1-5.76-1.92l-.94-.9C251.69,68.88,257.12,65.62,257.12,65.62Z" style="fill: rgb(255, 195, 189); transform-origin: 257.923px 69.9873px;" id="elyy4hlfn2a08" class="animable"></path><path d="M210.14,130.17l.07-1.37.08-1.25c.07-.82.16-1.64.25-2.45.18-1.62.43-3.22.7-4.83a87.8,87.8,0,0,1,2.2-9.51,73.42,73.42,0,0,1,3.36-9.3,59.36,59.36,0,0,1,4.77-8.91,19.68,19.68,0,0,1,2.05-2.61c.64-.71,1.27-1.31,1.9-1.9,1.24-1.15,2.48-2.2,3.71-3.21,2.47-2,5-3.85,7.52-5.65a182.83,182.83,0,0,1,15.64-9.88,3.47,3.47,0,0,1,4.11,5.52l0,0c-4.33,4.2-8.79,8.31-13.1,12.42-2.16,2-4.28,4.13-6.31,6.18-1,1-2,2.06-2.86,3.07-.42.5-.84,1-1.18,1.45a6.55,6.55,0,0,0-.68,1,68.16,68.16,0,0,0-5.6,15.36c-.66,2.71-1.22,5.47-1.67,8.25-.23,1.39-.42,2.78-.6,4.17l-.24,2.08-.11,1-.08.91,0,.35a6.95,6.95,0,0,1-13.86-1Z" style="fill: rgb(255, 195, 189); transform-origin: 233.848px 103.101px;" id="elnha4zq1ky0b" class="animable"></path><path d="M272.15,97c17.08,14.41-5.45,27.8,10.44,43.23s27.79,26.55,14.76,42.07c-10.49,12.49-41.44,18.81-64.33-1.48s12.68-34.78-3.75-46.9,4.4-39.09,10.4-41.51C239.21,79.29,266.52,77.51,272.15,97Z" style="fill: rgb(38, 50, 56); transform-origin: 262.998px 138.186px;" id="eliwrjv25fvmd" class="animable"></path><path d="M312.66,178.89a.59.59,0,0,1-.22,0c-10.48-5-12.23-12.87-13.92-20.5-1.61-7.25-3.26-14.75-12.15-20.44-13.09-8.38-10.4-16.06-8-22.84,2.25-6.43,4.2-12-6.92-17.51a.51.51,0,0,1-.23-.68.53.53,0,0,1,.69-.23c11.92,5.93,9.74,12.16,7.43,18.76s-4.8,13.69,7.61,21.64c9.24,5.92,10.95,13.62,12.6,21.08,1.71,7.73,3.33,15,13.36,19.79a.51.51,0,0,1,.24.68A.5.5,0,0,1,312.66,178.89Z" style="fill: rgb(38, 50, 56); transform-origin: 292.184px 137.771px;" id="el6qlomphc9wx" class="animable"></path><path d="M193.68,176.59s-14.21,43.77-22.37,75.11a45.53,45.53,0,0,0-1.46,11.8c.31,32.24,1,96.42,1,96.42l7.67,1.05s18.84-70,14.17-96.28c26.6-47.39,34.56-71.81,34.56-71.81Z" style="fill: rgb(38, 50, 56); transform-origin: 198.549px 268.78px;" id="elp84a1l97ola" class="animable"></path><g id="el2f53vzi4f7e"><path d="M206.21,213.3l7.36,11.49q-4.53,9.47-10.94,21.67a96,96,0,0,0-2.6-28.38Z" style="opacity: 0.2; transform-origin: 206.8px 229.88px;" class="animable"></path></g><path d="M198.5,203c-3.46,6.51-1.92,13.9,1.49,20.43,6.52,12.47,21.57,33.25,28.93,52.55,6.25,16.4,71.49,46.28,78.75,52.3L313,323s-44-50.57-62.55-53.76c-5.39-63.13-24.08-79.91-24.08-79.91C213.28,186.94,204.31,192.08,198.5,203Z" style="fill: rgb(38, 50, 56); transform-origin: 254.774px 258.517px;" id="elvhe209bto2s" class="animable"></path><path d="M316.67,321.85c-2.33-.58-4.37-2.58-8.25-6a1.28,1.28,0,0,0-2.06.48,48.84,48.84,0,0,1-4,8.34,1.29,1.29,0,0,0,.24,1.73c9.17,7.54,8,9.1,8.4,12.29.53,3.92-1.22,11.18,1.6,10.48,4-1,6.37-6.08,6.09-10.17-.24-3.49.09-7.68,1.15-10.29C320.76,326.5,320,322.69,316.67,321.85Z" style="fill: rgb(255, 165, 0); transform-origin: 311.166px 332.365px;" id="el23u77ez6m19" class="animable"></path><path d="M181.5,364.27c-1-2.35-1-4.26,1.86-12.78a1.29,1.29,0,0,0-1-1.7c-2.83-.4-8.85-1.16-12-.86a1.29,1.29,0,0,0-1.18,1.42c.63,6.41-2.81,17.35-10.4,22.44-3.24,2.17-1.05,4,1.79,3.56,4.64-.65,7.74-3.12,11.29-5,2.26-1.21,4.71-.82,7.35-1.68A3.76,3.76,0,0,0,181.5,364.27Z" style="fill: rgb(255, 165, 0); transform-origin: 170.301px 362.639px;" id="el9tt83cpn2i" class="animable"></path><path d="M208.77,132.46c-1.53,3.55-10.93,8.93-6.41,16.88-2.61,7.42-5,14.82-8.68,27.25l35.38,17.17c3.38-10.68,9.2-21.88,24.77-42a9.94,9.94,0,0,0-2.66-14.53c-1.34-.83-2.78-1.68-4.28-2.49a124.24,124.24,0,0,0-16.06-7.79c-1.81-.69-3.71-1.34-5.54-1.93A13.51,13.51,0,0,0,208.77,132.46Z" style="fill: rgb(255, 165, 0); transform-origin: 224.788px 159.064px;" id="elw0n5s76p6sc" class="animable"></path><path d="M230.83,126.91c-4.18-1.78-7.74-8.62-6.06-14.21-5.76.37-12.55,4-14.92,9.28-.94,5.4-1,16.14-1,16.14Z" style="fill: rgb(255, 165, 0); transform-origin: 219.84px 125.41px;" id="elifmk9rjjkj" class="animable"></path><path d="M332.5,141.74l1.45-1.07a3.08,3.08,0,0,0,.76-4.11l-2-3.12a3.08,3.08,0,0,0-3.21-1.38l-1.45.28a5.77,5.77,0,0,0-4.18,3.41l-1.58,3.69a7,7,0,0,0,.27,6.06l.62,1.15C327.88,146.07,332.5,141.74,332.5,141.74Z" style="fill: rgb(255, 195, 189); transform-origin: 328.456px 139.325px;" id="elzkdb2oy5y7g" class="animable"></path><path d="M250,139.39l18.72,2c3.11.31,6.22.65,9.3.92l4.59.36c1.49.11,3.13.2,4.15.19,2.77-.12,6-.4,9.05-.73l9.4-1c6.3-.67,12.65-1.34,19-1.82h0a3.47,3.47,0,0,1,1.34,6.76c-6.14,2-12.31,3.7-18.55,5.25-3.12.78-6.26,1.5-9.44,2.18s-6.32,1.31-9.89,1.73c-2.17.2-3.71.21-5.4.24s-3.32,0-5,0c-3.27-.07-6.52-.19-9.75-.4-6.48-.4-12.85-1-19.29-1.9a7,7,0,0,1,1.67-13.81Z" style="fill: rgb(255, 195, 189); transform-origin: 285.399px 147.391px;" id="elfs21k1wrs6j" class="animable"></path><path d="M232.85,184.85c1.52,1-2.1,7.38-.72,10s2,4,.74,4.36-26.76-4.85-40.73-15.42a2,2,0,0,1-.75-1.72c.42-5.54,3-13.05,4.6-13.16S227.22,181.21,232.85,184.85Z" style="fill: rgb(255, 165, 0); transform-origin: 212.469px 184.068px;" id="ely7v75jo7rns" class="animable"></path><g id="elol0zazgrgra"><path d="M232.85,184.85c1.52,1-2.1,7.38-.72,10s2,4,.74,4.36-26.76-4.85-40.73-15.42a2,2,0,0,1-.75-1.72c.42-5.54,3-13.05,4.6-13.16S227.22,181.21,232.85,184.85Z" style="fill: rgb(255, 255, 255); opacity: 0.4; transform-origin: 212.469px 184.068px;" class="animable"></path></g><path d="M254.08,115.84c-3.52,4.67-9.13,13.65-7.19,18.86,0,0-12.64-3.84-25,3,.65-10.26,8.9-10.83,8.9-10.83,6.43,1.41,8.36-2.93,9.3-7.44Z" style="fill: rgb(255, 195, 189); transform-origin: 237.985px 126.77px;" id="el3tvz0d9u0c5" class="animable"></path><g id="elzvp96b3iy3i"><path d="M248.39,117.32l-8.25,2.15a18.08,18.08,0,0,1-.89,3.09c2.36.75,6.55-.2,7.91-2.39A8.56,8.56,0,0,0,248.39,117.32Z" style="opacity: 0.2; transform-origin: 243.82px 120.067px;" class="animable"></path></g><path d="M263.49,110.06c-6.1,7.43-8.42,11.58-15.26,11.9-11.7.54-16-9-13.09-15.89,3.48-8.14,12-19.31,21.67-17S269.58,102.63,263.49,110.06Z" style="fill: rgb(255, 195, 189); transform-origin: 250.44px 105.372px;" id="elmu17ufg8alo" class="animable"></path><path d="M247.1,86.64c.53,5.77,11.06,13.82,14.41,15.72-4.44,2.12-6.42,11.59,1.63,12.39S278.32,82.89,247.1,86.64Z" style="fill: rgb(38, 50, 56); transform-origin: 258.572px 100.552px;" id="el5umpkqzyzx5" class="animable"></path><path d="M238.48,105.2s3.16.71,11.22,4.38c-2,1.72-4.63,2.68-8.75.77S238.48,105.2,238.48,105.2Z" style="fill: rgb(38, 50, 56); transform-origin: 243.927px 108.3px;" id="elz20oth7i4z" class="animable"></path><path d="M243.7,109.53a9.19,9.19,0,0,0-5-1,5.13,5.13,0,0,0,2.26,1.82,9,9,0,0,0,5,1A5,5,0,0,0,243.7,109.53Z" style="fill: rgb(237, 132, 126); transform-origin: 242.33px 109.942px;" id="eljf2mxc99n5f" class="animable"></path><path d="M238.87,105.3a1.72,1.72,0,0,0,.74,1.65,53,53,0,0,0,7.4,2.7,2.61,2.61,0,0,0,2.34-.23A80.14,80.14,0,0,0,238.87,105.3Z" style="fill: rgb(255, 255, 255); transform-origin: 244.103px 107.563px;" id="el9n4h1mb2xqj" class="animable"></path><path d="M245.23,99a20.92,20.92,0,0,1-5.17,2.4c.27,1.39,1.94,2.06,1.94,2.06Z" style="fill: rgb(237, 132, 126); transform-origin: 242.645px 101.23px;" id="el8mi4280bf2e" class="animable"></path><path d="M261.06,117.44a6.14,6.14,0,0,1-5,.53c-2.08-.76-1.57-3.28.31-4.85,1.69-1.42,4.8-2.72,6.26-1.09S263.09,116.32,261.06,117.44Z" style="fill: rgb(255, 195, 189); transform-origin: 259.019px 114.774px;" id="elcb6g8ryp1wj" class="animable"></path><path d="M254.14,102.7a.45.45,0,0,1,0-.36A3.6,3.6,0,0,0,254,99a.46.46,0,0,1,.13-.63.44.44,0,0,1,.63.12,4.55,4.55,0,0,1,.24,4.18.46.46,0,0,1-.6.24A.41.41,0,0,1,254.14,102.7Z" style="fill: rgb(38, 50, 56); transform-origin: 254.662px 100.616px;" id="elr6wjfbk7md" class="animable"></path><path d="M250.38,103a.33.33,0,0,1-.1-.23,2.53,2.53,0,0,0-1-2.09.32.32,0,0,1-.08-.44.31.31,0,0,1,.44-.09,3.16,3.16,0,0,1,1.25,2.62.33.33,0,0,1-.33.32A.31.31,0,0,1,250.38,103Z" style="fill: rgb(38, 50, 56); transform-origin: 250.018px 101.592px;" id="el88bcgt73t5b" class="animable"></path><path d="M244.05,97.39a.32.32,0,0,1-.24-.08,2.55,2.55,0,0,0-2.22-.6.31.31,0,0,1-.39-.21.32.32,0,0,1,.21-.4,3.13,3.13,0,0,1,2.81.73.32.32,0,0,1,0,.45A.36.36,0,0,1,244.05,97.39Z" style="fill: rgb(38, 50, 56); transform-origin: 242.749px 96.705px;" id="elmof9gl9htrb" class="animable"></path><path d="M243.91,92.57a.43.43,0,0,1-.25-.23.47.47,0,0,1,.23-.61,4.53,4.53,0,0,1,4.18.11.46.46,0,0,1,.15.63.47.47,0,0,1-.64.15,3.59,3.59,0,0,0-3.31-.05A.45.45,0,0,1,243.91,92.57Z" style="fill: rgb(38, 50, 56); transform-origin: 245.954px 91.9801px;" id="elcogldfx8g9" class="animable"></path><g id="elghgadl8ta0g"><path d="M216.44,148.58a25.09,25.09,0,0,0,10.64,12.3C218.48,159.22,216.16,152.41,216.44,148.58Z" style="opacity: 0.2; transform-origin: 221.749px 154.73px;" class="animable"></path></g><path d="M246.89,134.7c4.64,3.09,17.39,4.24,21.63,4.54a.77.77,0,0,1,.6,1.23c-1.92,2-8.19,10.86-8.44,15.3a2.06,2.06,0,0,1-1.6,1.89c-12.32,2.69-17.94,1.23-20.25-1.95C236.41,152.38,246.89,134.7,246.89,134.7Z" style="fill: rgb(255, 165, 0); transform-origin: 253.87px 146.883px;" id="elktm9313zcim" class="animable"></path></g><defs>     <filter id="active" height="200%">         <feMorphology in="SourceAlpha" result="DILATED" operator="dilate" radius="2"></feMorphology>                <feFlood flood-color="#32DFEC" flood-opacity="1" result="PINK"></feFlood>        <feComposite in="PINK" in2="DILATED" operator="in" result="OUTLINE"></feComposite>        <feMerge>            <feMergeNode in="OUTLINE"></feMergeNode>            <feMergeNode in="SourceGraphic"></feMergeNode>        </feMerge>    </filter>    <filter id="hover" height="200%">        <feMorphology in="SourceAlpha" result="DILATED" operator="dilate" radius="2"></feMorphology>                <feFlood flood-color="#ff0000" flood-opacity="0.5" result="PINK"></feFlood>        <feComposite in="PINK" in2="DILATED" operator="in" result="OUTLINE"></feComposite>        <feMerge>            <feMergeNode in="OUTLINE"></feMergeNode>            <feMergeNode in="SourceGraphic"></feMergeNode>        </feMerge>            <feColorMatrix type="matrix" values="0   0   0   0   0                0   1   0   0   0                0   0   0   0   0                0   0   0   1   0 "></feColorMatrix>    </filter></defs></svg>